{"glyphs":{"0":{"ha":1303,"x_min":0,"x_max":0,"o":"m 651 944 b 58 465 249 944 58 790 b 651 -15 58 139 250 -15 b 1243 465 1054 -15 1243 139 b 651 944 1243 790 1054 944 z m 651 703 b 960 468 896 703 960 654 b 650 226 960 278 894 226 b 342 467 407 226 342 276 b 651 703 342 653 407 703 z "},"1":{"ha":618,"x_min":0,"x_max":0,"o":"m 529 0 l 529 929 l 190 929 l 10 690 l 243 690 l 243 0 z "},"2":{"ha":1299,"x_min":0,"x_max":0,"o":"m 1053 0 l 1240 242 l 344 242 l 344 300 b 432 363 344 347 367 363 l 885 363 b 1232 646 1103 363 1232 467 b 835 929 1232 829 1096 929 l 292 929 l 106 688 l 867 688 b 954 626 926 688 954 669 b 868 568 954 585 928 568 l 414 568 b 67 303 189 568 67 475 l 67 0 z "},"3":{"ha":1265,"x_min":0,"x_max":0,"o":"m 831 0 b 1207 261 1081 0 1207 88 b 1097 471 1207 354 1171 422 b 1189 668 1160 518 1189 582 b 836 929 1189 840 1069 929 l 246 929 l 58 688 l 840 688 b 915 629 893 688 915 669 b 849 568 915 589 893 568 l 435 568 l 276 364 l 851 364 b 921 304 897 364 921 344 b 842 242 921 263 894 242 l 194 242 l 13 0 z "},"4":{"ha":1333,"x_min":0,"x_max":0,"o":"m 782 0 l 1058 0 l 1058 111 l 1153 111 l 1325 342 l 1058 342 l 1058 769 b 904 946 1058 894 1006 946 b 775 899 867 946 817 932 l 100 349 b 178 111 -4 264 26 111 l 782 111 z m 467 342 l 782 597 l 782 342 z "},"5":{"ha":1247,"x_min":0,"x_max":0,"o":"m 806 0 b 1190 290 1060 0 1190 101 b 843 569 1190 474 1067 569 l 393 569 l 393 688 l 972 688 l 1158 929 l 107 929 l 107 364 l 824 364 b 907 300 881 364 907 343 b 822 242 907 260 883 242 l 243 242 l 58 0 z "},"6":{"ha":1349,"x_min":0,"x_max":0,"o":"m 572 688 l 1032 688 l 1218 929 l 617 929 b 58 435 281 929 58 732 b 728 -15 58 136 281 -15 b 1290 297 1099 -15 1290 90 b 942 567 1290 467 1161 567 l 361 567 b 572 688 394 646 467 688 z m 356 353 l 926 353 b 1017 306 993 353 1017 339 b 756 226 1017 249 947 226 b 356 353 508 226 394 258 z "},"7":{"ha":1174,"x_min":0,"x_max":0,"o":"m 519 0 l 1119 706 b 1003 929 1207 810 1150 929 l 199 929 l 17 688 l 739 688 l 142 0 z "},"8":{"ha":1324,"x_min":0,"x_max":0,"o":"m 888 0 b 1264 263 1138 0 1264 89 b 1157 476 1264 354 1228 428 b 1246 668 1215 522 1246 588 b 881 929 1246 835 1114 929 l 440 929 b 76 667 210 929 76 835 b 176 475 76 583 110 519 b 58 260 96 424 58 356 b 435 0 58 89 185 0 z m 892 364 b 978 301 949 364 978 343 b 888 242 978 261 949 242 l 435 242 b 344 303 375 242 344 263 b 429 364 344 342 375 364 z m 896 688 b 975 631 947 688 975 668 b 901 568 975 593 946 568 l 422 568 b 347 631 378 568 347 593 b 426 688 347 668 376 688 z "},"9":{"ha":1349,"x_min":0,"x_max":0,"o":"m 743 242 l 331 242 l 144 0 l 731 0 b 1290 492 1064 0 1290 197 b 633 944 1290 793 1071 944 b 58 619 251 944 58 836 b 428 360 58 460 200 360 b 992 397 638 360 824 372 b 743 242 963 297 875 242 z m 444 575 b 332 631 361 575 332 589 b 619 703 332 686 396 703 b 986 593 858 703 953 682 b 444 575 844 581 654 575 z "},"\u0000":{"ha":53,"x_min":0,"x_max":0,"o":""}," ":{"ha":532,"x_min":0,"x_max":0,"o":""},"!":{"ha":449,"x_min":0,"x_max":0,"o":"m 381 118 b 225 253 381 203 311 253 b 69 118 138 253 69 203 b 225 -15 69 32 138 -15 b 381 118 311 -15 381 32 z m 332 344 l 365 608 l 365 929 l 78 929 l 78 608 l 108 344 z "},"\"":{"ha":617,"x_min":0,"x_max":0,"o":"m 194 557 l 278 929 l 24 929 l 107 557 z m 511 557 l 594 929 l 338 929 l 422 557 z "},"#":{"ha":929,"x_min":0,"x_max":0,"o":"m 200 736 l 139 539 l 269 539 l 232 418 l 101 418 l 40 221 l 172 221 l 106 0 l 274 0 l 342 221 l 439 221 l 372 0 l 539 0 l 606 221 l 746 221 l 807 418 l 665 418 l 701 539 l 843 539 l 904 736 l 763 736 l 821 929 l 653 929 l 594 736 l 499 736 l 557 929 l 389 929 l 329 736 z m 401 418 l 439 539 l 535 539 l 499 418 z "},"$":{"ha":939,"x_min":0,"x_max":0,"o":"m 169 306 l 49 146 l 407 146 l 407 0 l 554 0 l 554 146 l 614 146 b 883 356 790 146 883 221 b 638 550 883 485 797 550 l 554 550 l 554 650 l 742 650 l 867 810 l 554 810 l 554 929 l 407 929 l 407 810 l 344 810 b 72 606 168 810 72 738 b 318 406 72 478 163 406 l 407 406 l 407 306 z m 269 600 b 332 650 269 635 288 650 l 407 650 l 407 550 l 332 550 b 269 600 288 550 269 565 z m 554 406 l 628 406 b 685 358 668 406 685 392 b 629 306 685 324 667 306 l 554 306 z "},"%":{"ha":1356,"x_min":0,"x_max":0,"o":"m 404 0 l 1068 929 l 936 929 l 263 0 z m 1001 458 b 704 219 800 458 704 382 b 1000 -21 704 56 799 -21 b 1297 219 1201 -21 1297 57 b 1001 458 1297 382 1201 458 z m 354 961 b 57 722 153 961 57 885 b 353 482 57 558 153 482 b 650 722 554 482 650 560 b 354 961 650 885 554 961 z m 1001 338 b 1151 221 1122 338 1151 314 b 1000 100 1151 125 1121 100 b 851 219 881 100 851 125 b 1001 338 851 314 881 338 z m 356 840 b 504 724 475 840 504 817 b 353 603 504 628 474 603 b 204 722 233 603 204 628 b 356 840 204 817 233 840 z "},"&":{"ha":1210,"x_min":0,"x_max":0,"o":"m 1014 0 l 1199 242 l 883 242 l 883 364 l 1024 364 l 1183 568 l 431 568 b 350 629 378 568 350 589 b 429 688 350 667 378 688 l 643 688 l 829 929 l 440 929 b 76 665 211 929 76 831 b 167 479 76 586 107 525 b 58 261 97 432 58 356 b 435 0 58 88 185 0 z m 649 242 l 419 242 b 344 303 369 242 344 263 b 419 364 344 343 369 364 l 649 364 z "},"'":{"ha":301,"x_min":0,"x_max":0,"o":"m 194 557 l 278 929 l 24 929 l 107 557 z "},"(":{"ha":486,"x_min":0,"x_max":0,"o":"m 436 -179 b 268 458 322 64 268 267 b 435 1101 268 644 319 844 l 264 1101 b 114 463 161 865 114 667 b 267 -179 114 254 161 51 z "},")":{"ha":486,"x_min":0,"x_max":0,"o":"m 47 1101 b 215 464 161 858 215 656 b 49 -179 215 278 164 78 l 219 -179 b 369 460 322 57 369 256 b 217 1101 369 668 322 871 z "},"*":{"ha":644,"x_min":0,"x_max":0,"o":"m 522 496 l 419 639 l 586 694 l 550 807 l 382 751 l 382 929 l 263 929 l 263 751 l 96 806 l 58 694 l 225 639 l 122 497 l 218 426 l 322 569 l 428 428 z "},"+":{"ha":874,"x_min":0,"x_max":0,"o":"m 518 92 l 518 389 l 817 389 l 817 553 l 518 553 l 518 850 l 354 850 l 354 553 l 58 553 l 58 389 l 354 389 l 354 92 z "},",":{"ha":404,"x_min":0,"x_max":0,"o":"m 226 -133 l 361 239 l 67 239 l 67 -133 z "},"-":{"ha":644,"x_min":0,"x_max":0,"o":"m 482 378 l 626 561 l 164 561 l 21 378 z "},".":{"ha":428,"x_min":0,"x_max":0,"o":"m 214 253 b 58 118 122 253 58 199 b 214 -15 58 38 121 -15 b 368 118 307 -15 368 38 b 214 253 368 199 307 253 z "},"/":{"ha":656,"x_min":0,"x_max":0,"o":"m 181 -53 l 660 981 l 482 981 l -4 -53 z "},":":{"ha":511,"x_min":0,"x_max":0,"o":"m 251 763 b 96 628 160 763 96 708 b 251 494 96 547 158 494 b 406 628 344 494 406 547 b 251 763 406 708 344 763 z m 251 324 b 96 189 160 324 96 269 b 251 56 96 108 158 56 b 406 189 344 56 406 108 b 251 324 406 269 344 324 z "},";":{"ha":426,"x_min":0,"x_max":0,"o":"m 229 -69 l 364 303 l 69 303 l 69 -69 z m 210 763 b 54 628 118 763 54 708 b 210 494 54 547 117 494 b 364 628 303 494 364 547 b 210 763 364 708 303 763 z "},"<":{"ha":849,"x_min":0,"x_max":0,"o":"m 792 74 l 792 253 l 326 468 l 792 683 l 792 863 l 107 543 b 107 394 42 513 42 425 z "},"=":{"ha":874,"x_min":0,"x_max":0,"o":"m 817 207 l 817 371 l 58 371 l 58 207 z m 817 574 l 817 738 l 58 738 l 58 574 z "},">":{"ha":849,"x_min":0,"x_max":0,"o":"m 740 393 b 740 543 808 425 808 513 l 58 863 l 58 683 l 522 468 l 58 253 l 58 74 z "},"?":{"ha":1031,"x_min":0,"x_max":0,"o":"m 372 253 b 217 118 279 253 217 199 b 372 -15 217 38 279 -15 b 528 118 465 -15 528 39 b 372 253 528 199 464 253 z m 643 383 b 996 646 881 383 996 475 b 607 929 996 833 856 929 l 204 929 l 17 688 l 621 688 b 710 628 683 688 710 669 b 619 569 710 585 685 569 l 435 569 b 242 399 308 569 242 511 l 242 329 l 481 329 l 481 356 b 513 383 481 376 489 383 z "},"@":{"ha":1267,"x_min":0,"x_max":0,"o":"m 1157 0 l 1031 163 l 621 163 b 249 472 388 163 249 278 b 621 767 249 661 381 767 l 989 767 l 989 390 l 896 390 l 896 672 l 596 672 b 375 464 465 672 375 586 b 596 256 375 342 467 256 l 1181 256 l 1181 929 l 621 929 b 58 453 296 929 58 728 b 621 0 58 185 288 0 z m 732 390 l 631 390 b 542 469 578 390 542 422 b 631 543 542 515 574 543 l 732 543 z "},"A":{"ha":1574,"x_min":0,"x_max":0,"o":"m 1561 0 l 979 840 b 796 944 939 899 882 944 b 611 840 707 944 651 896 l 15 0 l 351 0 l 792 621 l 1054 242 l 654 242 l 482 0 z "},"B":{"ha":1338,"x_min":0,"x_max":0,"o":"m 903 0 b 1282 267 1157 0 1282 88 b 1169 474 1282 356 1240 431 b 1263 674 1228 517 1263 588 b 897 929 1263 835 1129 929 l 285 929 l 88 688 l 914 688 b 990 629 964 688 990 667 b 913 568 990 589 964 568 l 88 568 l 88 0 z m 913 364 b 994 301 967 364 994 343 b 914 242 994 263 968 242 l 375 242 l 375 364 z "},"C":{"ha":1282,"x_min":0,"x_max":0,"o":"m 1085 0 l 1268 242 l 618 242 b 344 474 446 242 344 328 b 618 688 344 614 439 688 l 1085 688 l 1268 929 l 618 929 b 58 474 290 929 58 740 b 618 0 58 203 297 0 z "},"D":{"ha":1326,"x_min":0,"x_max":0,"o":"m 710 0 b 1269 474 1031 0 1269 203 b 710 929 1269 740 1038 929 l 272 929 l 88 688 l 710 688 b 982 474 878 688 982 606 b 710 242 982 324 888 242 l 375 242 l 375 574 l 88 574 l 88 0 z "},"E":{"ha":1176,"x_min":0,"x_max":0,"o":"m 375 688 l 978 688 l 1164 929 l 88 929 l 88 0 l 982 0 l 1165 242 l 375 242 l 375 363 l 943 363 l 1110 568 l 375 568 z "},"F":{"ha":1138,"x_min":0,"x_max":0,"o":"m 375 688 l 944 688 l 1129 929 l 88 929 l 88 0 l 375 0 l 375 333 l 897 333 l 1076 563 l 375 563 z "},"G":{"ha":1332,"x_min":0,"x_max":0,"o":"m 1256 0 l 1256 567 l 676 567 l 499 365 l 968 365 l 968 242 l 618 242 b 344 461 454 242 344 329 b 618 688 344 592 463 688 l 1096 688 l 1282 929 l 618 929 b 58 474 290 929 58 740 b 618 0 58 203 297 0 z "},"H":{"ha":1303,"x_min":0,"x_max":0,"o":"m 375 929 l 88 929 l 88 0 l 375 0 l 375 358 l 928 358 l 928 0 l 1214 0 l 1214 929 l 928 929 l 928 600 l 375 600 z "},"I":{"ha":469,"x_min":0,"x_max":0,"o":"m 379 0 l 379 929 l 92 929 l 92 0 z "},"J":{"ha":1017,"x_min":0,"x_max":0,"o":"m 656 929 l 656 400 b 364 242 656 285 578 242 l 203 242 l 15 0 l 364 0 b 943 422 750 0 943 140 l 943 929 z "},"K":{"ha":1265,"x_min":0,"x_max":0,"o":"m 375 929 l 88 929 l 88 0 l 375 0 l 375 401 l 846 0 l 1258 0 l 669 489 l 1226 929 l 838 929 l 375 550 z "},"L":{"ha":1101,"x_min":0,"x_max":0,"o":"m 910 0 l 1094 242 l 375 242 l 375 929 l 88 929 l 88 0 z "},"M":{"ha":1747,"x_min":0,"x_max":0,"o":"m 1731 0 l 1494 815 b 1331 944 1472 894 1410 944 b 1175 847 1264 944 1210 911 l 878 296 l 582 847 b 426 944 546 911 493 944 b 263 815 346 944 286 897 l 21 0 l 313 0 l 464 539 l 700 89 b 872 -15 742 11 786 -15 b 1044 89 957 -15 1001 11 l 1286 539 l 1433 0 z "},"N":{"ha":1268,"x_min":0,"x_max":0,"o":"m 83 0 l 360 0 l 360 540 l 914 35 b 1029 -17 953 -1 986 -17 b 1186 158 1126 -17 1186 51 l 1186 929 l 911 929 l 911 388 l 354 896 b 240 944 317 931 283 944 b 83 769 143 944 83 878 z "},"O":{"ha":1474,"x_min":0,"x_max":0,"o":"m 736 944 b 58 465 275 944 58 790 b 736 -15 58 139 276 -15 b 1417 465 1197 -15 1417 140 b 736 944 1417 790 1197 944 z m 736 703 b 1129 465 1049 703 1129 654 b 736 226 1129 276 1047 226 b 344 465 428 226 344 276 b 736 703 344 653 426 703 z "},"P":{"ha":1372,"x_min":0,"x_max":0,"o":"m 869 240 b 1313 582 1142 240 1313 374 b 869 929 1313 793 1139 929 l 278 929 l 85 688 l 901 688 b 1026 583 978 688 1026 647 b 901 478 1026 518 979 478 l 85 478 l 85 0 l 371 0 l 371 240 z "},"Q":{"ha":1474,"x_min":0,"x_max":0,"o":"m 1413 0 l 928 399 l 563 399 l 757 240 l 613 240 b 344 465 425 240 344 308 b 736 703 344 653 426 703 b 1129 465 1050 703 1129 654 b 1069 310 1129 392 1110 340 l 1369 310 b 1417 465 1396 344 1417 413 b 736 944 1417 790 1197 944 b 58 465 275 944 58 790 b 618 0 58 182 276 0 z "},"R":{"ha":1421,"x_min":0,"x_max":0,"o":"m 1347 590 b 879 929 1347 803 1171 929 l 276 929 l 85 688 l 907 688 b 1060 579 1011 688 1060 654 b 908 479 1060 510 1014 479 l 85 479 l 85 0 l 371 0 l 371 247 l 792 247 l 1025 0 l 1404 0 l 1124 286 b 1347 590 1265 340 1347 446 z "},"S":{"ha":1339,"x_min":0,"x_max":0,"o":"m 921 0 b 1296 297 1179 0 1296 93 b 943 567 1296 474 1174 567 l 436 567 b 349 628 376 567 349 586 b 436 688 349 668 376 688 l 1086 688 l 1271 929 l 458 929 b 67 642 196 929 67 833 b 424 363 67 465 197 363 l 926 363 b 1014 301 986 363 1014 344 b 929 242 1014 260 988 242 l 218 242 l 33 0 z "},"T":{"ha":1242,"x_min":0,"x_max":0,"o":"m 753 0 l 753 688 l 1046 688 l 1235 929 l 196 929 l 7 688 l 467 688 l 467 0 z "},"U":{"ha":1369,"x_min":0,"x_max":0,"o":"m 1007 406 b 688 226 1007 274 925 226 b 363 406 447 226 363 274 l 363 929 l 75 929 l 75 406 b 688 -15 75 114 265 -15 b 1293 406 1106 -15 1293 115 l 1293 929 l 1007 929 z "},"V":{"ha":1574,"x_min":0,"x_max":0,"o":"m 1560 929 l 1224 929 l 786 297 l 357 929 l 15 929 l 597 89 b 779 -15 647 17 706 -15 b 964 89 853 -15 915 19 z "},"W":{"ha":1749,"x_min":0,"x_max":0,"o":"m 18 929 l 253 114 b 417 -15 276 32 336 -15 b 572 82 485 -15 538 18 l 872 647 l 1168 82 b 1322 -15 1203 18 1256 -15 b 1488 114 1403 -15 1463 32 l 1729 929 l 1446 929 l 1290 374 l 1047 840 b 878 944 1006 918 961 944 b 704 840 792 944 747 918 l 458 375 l 306 929 z "},"X":{"ha":1444,"x_min":0,"x_max":0,"o":"m 1035 929 l 744 644 l 442 929 l 42 929 l 529 469 l 24 0 l 397 0 l 708 301 l 1028 0 l 1428 0 l 924 475 l 1404 929 z "},"Y":{"ha":1428,"x_min":0,"x_max":0,"o":"m 865 0 l 865 308 l 1417 929 l 1065 929 l 726 547 l 379 929 l 11 929 l 578 308 l 578 0 z "},"Z":{"ha":1247,"x_min":0,"x_max":0,"o":"m 200 929 l 17 688 l 714 688 l 114 231 b 185 0 1 146 46 0 l 1063 0 l 1236 242 l 528 242 l 1125 699 b 1054 929 1238 783 1192 929 z "},"[":{"ha":440,"x_min":0,"x_max":0,"o":"m 375 -179 l 375 -8 l 281 -8 l 281 928 l 375 928 l 375 1101 l 107 1101 l 107 -179 z "},"\\":{"ha":656,"x_min":0,"x_max":0,"o":"m 656 -53 l 176 981 l 0 981 l 469 -53 z "},"]":{"ha":443,"x_min":0,"x_max":0,"o":"m 68 1101 l 68 931 l 163 931 l 163 -6 l 68 -6 l 68 -179 l 336 -179 l 336 1101 z "},"^":{"ha":794,"x_min":0,"x_max":0,"o":"m 732 411 l 510 929 l 283 929 l 61 411 l 260 411 l 400 758 l 538 411 z "},"_":{"ha":936,"x_min":0,"x_max":0,"o":"m 943 -186 l 943 -56 l 0 -56 l 0 -186 z "},"a":{"ha":1574,"x_min":0,"x_max":0,"o":"m 1561 0 l 979 840 b 796 944 939 899 882 944 b 611 840 707 944 651 896 l 15 0 l 351 0 l 792 621 l 1054 242 l 654 242 l 482 0 z "},"b":{"ha":1338,"x_min":0,"x_max":0,"o":"m 903 0 b 1282 267 1157 0 1282 88 b 1169 474 1282 356 1240 431 b 1263 674 1228 517 1263 588 b 897 929 1263 835 1129 929 l 285 929 l 88 688 l 914 688 b 990 629 964 688 990 667 b 913 568 990 589 964 568 l 88 568 l 88 0 z m 913 364 b 994 301 967 364 994 343 b 914 242 994 263 968 242 l 375 242 l 375 364 z "},"c":{"ha":1282,"x_min":0,"x_max":0,"o":"m 1085 0 l 1268 242 l 618 242 b 344 474 446 242 344 328 b 618 688 344 614 439 688 l 1085 688 l 1268 929 l 618 929 b 58 474 290 929 58 740 b 618 0 58 203 297 0 z "},"d":{"ha":1326,"x_min":0,"x_max":0,"o":"m 710 0 b 1269 474 1031 0 1269 203 b 710 929 1269 740 1038 929 l 272 929 l 88 688 l 710 688 b 982 474 878 688 982 606 b 710 242 982 324 888 242 l 375 242 l 375 574 l 88 574 l 88 0 z "},"e":{"ha":1176,"x_min":0,"x_max":0,"o":"m 375 688 l 978 688 l 1164 929 l 88 929 l 88 0 l 982 0 l 1165 242 l 375 242 l 375 363 l 943 363 l 1110 568 l 375 568 z "},"f":{"ha":1138,"x_min":0,"x_max":0,"o":"m 375 688 l 944 688 l 1129 929 l 88 929 l 88 0 l 375 0 l 375 333 l 897 333 l 1076 563 l 375 563 z "},"g":{"ha":1332,"x_min":0,"x_max":0,"o":"m 1256 0 l 1256 567 l 676 567 l 499 365 l 968 365 l 968 242 l 618 242 b 344 461 454 242 344 329 b 618 688 344 592 463 688 l 1096 688 l 1282 929 l 618 929 b 58 474 290 929 58 740 b 618 0 58 203 297 0 z "},"h":{"ha":1303,"x_min":0,"x_max":0,"o":"m 375 929 l 88 929 l 88 0 l 375 0 l 375 358 l 928 358 l 928 0 l 1214 0 l 1214 929 l 928 929 l 928 600 l 375 600 z "},"i":{"ha":469,"x_min":0,"x_max":0,"o":"m 379 0 l 379 929 l 92 929 l 92 0 z "},"j":{"ha":1017,"x_min":0,"x_max":0,"o":"m 656 929 l 656 400 b 364 242 656 285 578 242 l 203 242 l 15 0 l 364 0 b 943 422 750 0 943 140 l 943 929 z "},"k":{"ha":1265,"x_min":0,"x_max":0,"o":"m 375 929 l 88 929 l 88 0 l 375 0 l 375 401 l 846 0 l 1258 0 l 669 489 l 1226 929 l 838 929 l 375 550 z "},"l":{"ha":1101,"x_min":0,"x_max":0,"o":"m 910 0 l 1094 242 l 375 242 l 375 929 l 88 929 l 88 0 z "},"m":{"ha":1747,"x_min":0,"x_max":0,"o":"m 1731 0 l 1494 815 b 1331 944 1472 894 1410 944 b 1175 847 1264 944 1210 911 l 878 296 l 582 847 b 426 944 546 911 493 944 b 263 815 346 944 286 897 l 21 0 l 313 0 l 464 539 l 700 89 b 872 -15 742 11 786 -15 b 1044 89 957 -15 1001 11 l 1286 539 l 1433 0 z "},"n":{"ha":1268,"x_min":0,"x_max":0,"o":"m 83 0 l 360 0 l 360 540 l 914 35 b 1029 -17 953 -1 986 -17 b 1186 158 1126 -17 1186 51 l 1186 929 l 911 929 l 911 388 l 354 896 b 240 944 317 931 283 944 b 83 769 143 944 83 878 z "},"o":{"ha":1474,"x_min":0,"x_max":0,"o":"m 736 944 b 58 465 275 944 58 790 b 736 -15 58 139 276 -15 b 1417 465 1197 -15 1417 140 b 736 944 1417 790 1197 944 z m 736 703 b 1129 465 1049 703 1129 654 b 736 226 1129 276 1047 226 b 344 465 428 226 344 276 b 736 703 344 653 426 703 z "},"p":{"ha":1372,"x_min":0,"x_max":0,"o":"m 869 240 b 1313 582 1142 240 1313 374 b 869 929 1313 793 1139 929 l 278 929 l 85 688 l 901 688 b 1026 583 978 688 1026 647 b 901 478 1026 518 979 478 l 85 478 l 85 0 l 371 0 l 371 240 z "},"q":{"ha":1474,"x_min":0,"x_max":0,"o":"m 1413 0 l 928 399 l 563 399 l 757 240 l 613 240 b 344 465 425 240 344 308 b 736 703 344 653 426 703 b 1129 465 1050 703 1129 654 b 1069 310 1129 392 1110 340 l 1369 310 b 1417 465 1396 344 1417 413 b 736 944 1417 790 1197 944 b 58 465 275 944 58 790 b 618 0 58 182 276 0 z "},"r":{"ha":1421,"x_min":0,"x_max":0,"o":"m 1347 590 b 879 929 1347 803 1171 929 l 276 929 l 85 688 l 907 688 b 1060 579 1011 688 1060 654 b 908 479 1060 510 1014 479 l 85 479 l 85 0 l 371 0 l 371 247 l 792 247 l 1025 0 l 1404 0 l 1124 286 b 1347 590 1265 340 1347 446 z "},"s":{"ha":1339,"x_min":0,"x_max":0,"o":"m 921 0 b 1296 297 1179 0 1296 93 b 943 567 1296 474 1174 567 l 436 567 b 349 628 376 567 349 586 b 436 688 349 668 376 688 l 1086 688 l 1271 929 l 458 929 b 67 642 196 929 67 833 b 424 363 67 465 197 363 l 926 363 b 1014 301 986 363 1014 344 b 929 242 1014 260 988 242 l 218 242 l 33 0 z "},"t":{"ha":1242,"x_min":0,"x_max":0,"o":"m 753 0 l 753 688 l 1046 688 l 1235 929 l 196 929 l 7 688 l 467 688 l 467 0 z "},"u":{"ha":1369,"x_min":0,"x_max":0,"o":"m 1007 406 b 688 226 1007 274 925 226 b 363 406 447 226 363 274 l 363 929 l 75 929 l 75 406 b 688 -15 75 114 265 -15 b 1293 406 1106 -15 1293 115 l 1293 929 l 1007 929 z "},"v":{"ha":1574,"x_min":0,"x_max":0,"o":"m 1560 929 l 1224 929 l 786 297 l 357 929 l 15 929 l 597 89 b 779 -15 647 17 706 -15 b 964 89 853 -15 915 19 z "},"w":{"ha":1749,"x_min":0,"x_max":0,"o":"m 18 929 l 253 114 b 417 -15 276 32 336 -15 b 572 82 485 -15 538 18 l 872 647 l 1168 82 b 1322 -15 1203 18 1256 -15 b 1488 114 1403 -15 1463 32 l 1729 929 l 1446 929 l 1290 374 l 1047 840 b 878 944 1006 918 961 944 b 704 840 792 944 747 918 l 458 375 l 306 929 z "},"x":{"ha":1444,"x_min":0,"x_max":0,"o":"m 1035 929 l 744 644 l 442 929 l 42 929 l 529 469 l 24 0 l 397 0 l 708 301 l 1028 0 l 1428 0 l 924 475 l 1404 929 z "},"y":{"ha":1428,"x_min":0,"x_max":0,"o":"m 865 0 l 865 308 l 1417 929 l 1065 929 l 726 547 l 379 929 l 11 929 l 578 308 l 578 0 z "},"z":{"ha":1247,"x_min":0,"x_max":0,"o":"m 200 929 l 17 688 l 714 688 l 114 231 b 185 0 1 146 46 0 l 1063 0 l 1236 242 l 528 242 l 1125 699 b 1054 929 1238 783 1192 929 z "},"{":{"ha":500,"x_min":0,"x_max":0,"o":"m 435 1101 l 340 1101 b 179 929 233 1101 179 1043 l 179 586 b 97 538 179 553 153 538 l 97 385 b 179 338 153 385 179 369 l 179 -7 b 340 -179 179 -121 233 -179 l 435 -179 l 435 -6 l 417 -6 b 351 65 371 -6 351 15 l 351 331 b 281 461 351 396 328 439 b 351 593 326 482 351 526 l 351 857 b 417 929 351 908 371 929 l 435 929 z "},"|":{"ha":415,"x_min":0,"x_max":0,"o":"m 289 -137 l 289 1049 l 125 1049 l 125 -137 z "},"}":{"ha":500,"x_min":0,"x_max":0,"o":"m 67 -179 l 161 -179 b 322 -7 268 -179 322 -121 l 322 336 b 404 385 322 369 349 385 l 404 538 b 322 585 349 538 322 553 l 322 929 b 161 1101 322 1043 268 1101 l 67 1101 l 67 928 l 85 928 b 150 857 131 928 150 907 l 150 592 b 221 461 150 526 174 483 b 150 329 175 440 150 396 l 150 65 b 85 -7 150 14 131 -7 l 67 -7 z "},"~":{"ha":788,"x_min":0,"x_max":0,"o":"m 724 622 b 550 511 668 547 611 511 b 246 613 443 511 347 613 b 56 521 175 613 114 583 l 56 300 b 228 413 114 376 169 413 b 531 311 329 413 428 311 b 724 400 603 311 664 339 z "}," ":{"ha":532,"x_min":0,"x_max":0,"o":""},"¡":{"ha":450,"x_min":0,"x_max":0,"o":"m 125 585 l 92 321 l 92 0 l 379 0 l 379 321 l 349 585 z m 76 811 b 232 676 76 726 146 676 b 388 811 319 676 388 726 b 232 944 388 897 319 944 b 76 811 146 944 76 897 z "},"¢":{"ha":915,"x_min":0,"x_max":0,"o":"m 869 806 l 603 806 l 603 929 l 456 929 l 456 806 b 69 485 229 801 69 669 b 456 151 69 297 235 156 l 456 0 l 603 0 l 603 151 l 740 151 l 871 325 l 603 325 l 603 631 l 740 631 z m 276 476 b 456 629 276 565 349 626 l 456 325 b 276 476 346 329 276 388 z "},"£":{"ha":1129,"x_min":0,"x_max":0,"o":"m 283 239 l 199 239 l 28 0 l 932 0 l 1119 239 l 564 239 l 564 381 l 724 381 l 864 563 l 564 563 l 564 610 b 644 688 564 663 590 688 l 931 688 l 1117 929 l 685 929 b 283 640 422 929 283 829 l 283 563 l 157 563 l 17 381 l 283 381 z "},"¥":{"ha":1428,"x_min":0,"x_max":0,"o":"m 11 929 l 453 450 l 206 450 l 206 297 l 578 297 l 578 228 l 206 228 l 206 74 l 578 74 l 578 0 l 865 0 l 865 74 l 1242 74 l 1242 228 l 865 228 l 865 297 l 1242 297 l 1242 450 l 988 450 l 1417 929 l 1057 929 l 724 519 l 379 929 z "},"¦":{"ha":415,"x_min":0,"x_max":0,"o":"m 289 -137 l 289 394 l 126 394 l 126 -137 z m 289 1049 l 126 1049 l 126 560 l 289 560 z "},"§":{"ha":1339,"x_min":0,"x_max":0,"o":"m 1271 929 l 465 929 b 67 650 200 929 67 836 b 132 467 67 575 89 513 b 71 289 92 419 71 360 b 419 13 71 114 196 13 l 935 13 b 1022 -50 993 13 1022 -8 b 938 -115 1022 -92 992 -115 l 224 -115 l 38 -354 l 925 -354 b 1300 -72 1178 -354 1300 -262 b 1238 114 1300 6 1279 68 b 1296 289 1278 163 1296 219 b 949 565 1296 469 1179 565 l 432 565 b 346 626 372 565 346 583 b 432 688 346 669 372 688 l 1088 688 z m 424 367 l 922 367 b 1018 282 992 367 1018 343 b 999 208 1018 253 1013 231 b 932 211 976 210 956 211 l 443 211 b 353 285 383 211 353 238 b 393 368 353 313 364 338 b 424 367 404 368 414 367 z "},"¨":{"ha":618,"x_min":0,"x_max":0,"o":"m 265 1113 b 163 1203 265 1168 221 1203 b 57 1113 103 1203 57 1168 b 163 1022 57 1057 103 1022 b 265 1113 221 1022 265 1057 z m 558 1113 b 454 1203 558 1168 515 1203 b 351 1113 396 1203 351 1168 b 454 1022 351 1057 396 1022 b 558 1113 515 1022 558 1057 z "},"©":{"ha":1081,"x_min":0,"x_max":0,"o":"m 642 242 l 699 317 l 536 317 b 385 463 449 317 385 376 b 536 611 385 549 449 611 l 642 611 l 699 686 l 536 686 b 297 468 396 686 297 596 b 536 242 297 339 399 242 z m 542 -15 b 1022 467 807 -15 1022 200 b 542 946 1022 732 808 946 b 60 465 275 946 60 731 b 542 -15 60 200 276 -15 z m 935 464 b 543 60 935 239 763 60 b 147 464 324 60 147 239 b 543 871 147 690 325 871 b 935 464 761 871 935 690 z "},"ª":{"ha":944,"x_min":0,"x_max":0,"o":"m 899 394 l 579 854 b 478 915 550 896 518 915 b 375 854 438 915 404 896 l 47 394 l 235 394 b 474 733 274 450 435 678 l 615 526 l 400 526 l 303 394 z "},"«":{"ha":589,"x_min":0,"x_max":0,"o":"m 289 219 l 289 357 l 156 451 l 289 542 l 289 683 l 74 529 b 74 367 11 485 11 408 z m 561 219 l 561 357 l 428 451 l 561 542 l 561 683 l 346 529 b 346 367 283 485 283 408 z "},"­":{"ha":644,"x_min":0,"x_max":0,"o":"m 482 378 l 626 561 l 164 561 l 21 378 z "},"®":{"ha":699,"x_min":0,"x_max":0,"o":"m 350 944 b 60 674 188 944 60 825 b 347 400 60 521 188 400 b 642 676 508 400 642 524 b 350 944 642 826 514 944 z m 347 892 b 586 668 476 892 586 790 b 350 454 586 549 482 454 b 117 671 218 454 117 550 b 347 892 117 793 218 892 z m 281 782 l 239 728 l 375 728 b 407 704 394 728 407 719 b 375 681 407 689 396 681 l 239 681 l 239 574 l 304 574 l 304 629 l 353 629 l 399 574 l 485 574 l 425 636 b 474 704 457 647 474 669 b 369 782 474 756 439 782 z "},"¯":{"ha":531,"x_min":0,"x_max":0,"o":"m 471 1039 l 471 1160 l 57 1160 l 57 1039 z "},"°":{"ha":547,"x_min":0,"x_max":0,"o":"m 278 944 b 65 732 140 944 65 869 b 278 519 65 593 140 519 b 490 732 415 519 490 594 b 278 944 490 869 415 944 z m 276 829 b 372 732 342 829 372 796 b 276 635 372 668 340 635 b 185 733 214 635 185 667 b 276 829 185 799 214 829 z "},"±":{"ha":874,"x_min":0,"x_max":0,"o":"m 518 92 l 518 389 l 817 389 l 817 553 l 518 553 l 518 850 l 354 850 l 354 553 l 58 553 l 58 389 l 354 389 l 354 92 z m 817 -175 l 817 -11 l 58 -11 l 58 -175 z "},"²":{"ha":689,"x_min":0,"x_max":0,"o":"m 547 490 l 642 608 l 192 608 l 192 642 b 239 669 192 664 200 669 l 463 669 b 636 811 572 669 636 722 b 440 954 636 904 569 954 l 164 954 l 72 832 l 451 832 b 497 803 485 832 497 825 b 451 772 497 781 483 772 l 226 772 b 53 640 113 772 53 726 l 53 490 z "},"³":{"ha":671,"x_min":0,"x_max":0,"o":"m 435 490 b 624 619 561 490 624 533 b 553 729 624 675 596 718 b 614 824 593 742 614 775 b 431 954 614 907 547 954 l 140 954 l 47 832 l 438 832 b 476 803 465 832 476 824 b 438 774 476 783 463 774 l 231 774 l 157 672 l 436 672 b 481 643 467 672 481 663 b 438 613 481 622 467 613 l 117 613 l 25 490 z "},"´":{"ha":531,"x_min":0,"x_max":0,"o":"m 471 1043 l 471 1204 l 57 1113 l 57 993 z "},"µ":{"ha":1042,"x_min":0,"x_max":0,"o":"m 75 615 l 75 -354 l 288 -354 l 288 44 b 549 -15 338 6 422 -15 b 967 293 829 -15 967 79 l 967 615 l 754 615 l 754 293 b 522 165 754 199 694 165 b 288 293 349 165 288 199 l 288 615 z "},"¶":{"ha":1426,"x_min":0,"x_max":0,"o":"m 510 240 l 597 240 l 597 -354 l 885 -354 l 885 478 l 467 478 b 343 583 390 478 343 518 b 467 688 343 647 392 688 l 1054 688 l 1054 -354 l 1340 -354 l 1340 929 l 508 929 b 57 582 232 929 57 794 b 510 240 57 371 231 240 z "},"·":{"ha":428,"x_min":0,"x_max":0,"o":"m 214 585 b 58 450 122 585 58 531 b 214 317 58 369 121 317 b 368 450 307 317 368 369 b 214 585 368 531 307 585 z "},"¸":{"ha":336,"x_min":0,"x_max":0,"o":"m 163 -354 l 278 -43 l 64 -43 l 58 -354 z "},"¹":{"ha":349,"x_min":0,"x_max":0,"o":"m 285 490 l 285 954 l 117 954 l 24 819 l 140 819 l 140 490 z "},"º":{"ha":889,"x_min":0,"x_max":0,"o":"m 444 914 b 71 651 190 914 71 829 b 446 385 71 471 193 385 b 819 650 697 385 819 471 b 444 914 819 829 699 914 z m 444 779 b 661 651 617 779 661 751 b 444 519 661 549 615 519 b 228 651 275 519 228 549 b 444 779 228 751 272 779 z "},"»":{"ha":589,"x_min":0,"x_max":0,"o":"m 28 683 l 28 546 l 161 451 l 28 361 l 28 219 l 243 374 b 243 536 306 418 306 494 z m 300 683 l 300 546 l 433 451 l 300 361 l 300 219 l 515 374 b 515 536 578 418 578 494 z "},"¼":{"ha":1306,"x_min":0,"x_max":0,"o":"m 1249 157 l 1114 157 l 1114 372 b 1035 460 1114 431 1089 460 b 972 436 1014 460 989 450 l 635 163 b 674 43 578 118 601 43 l 976 43 l 976 -12 l 1114 -12 l 1114 43 l 1161 43 z m 321 490 l 321 954 l 153 954 l 60 819 l 176 819 l 176 490 z m 222 -53 l 963 981 l 826 981 l 76 -53 z "},"½":{"ha":1293,"x_min":0,"x_max":0,"o":"m 1143 -12 l 1238 106 l 788 106 l 788 139 b 835 167 788 161 796 167 l 1058 167 b 1232 308 1168 167 1232 219 b 1036 451 1232 401 1165 451 l 760 451 l 668 329 l 1047 329 b 1093 300 1081 329 1093 322 b 1047 269 1093 278 1079 269 l 822 269 b 649 138 708 269 649 224 l 649 -12 z m 321 490 l 321 954 l 153 954 l 60 819 l 176 819 l 176 490 z m 222 -53 l 963 981 l 826 981 l 76 -53 z "},"¾":{"ha":1490,"x_min":0,"x_max":0,"o":"m 467 490 b 656 619 593 490 656 533 b 585 729 656 675 628 718 b 646 824 625 742 646 775 b 463 954 646 907 579 954 l 172 954 l 79 832 l 469 832 b 508 803 497 832 508 824 b 469 774 508 783 494 774 l 263 774 l 189 672 l 468 672 b 513 643 499 672 513 663 b 469 613 513 622 499 613 l 149 613 l 57 490 z m 463 -53 l 1203 981 l 1067 981 l 317 -53 z m 1435 157 l 1300 157 l 1300 372 b 1221 460 1300 431 1275 460 b 1158 436 1200 460 1175 450 l 821 163 b 860 43 764 118 788 43 l 1163 43 l 1163 -12 l 1300 -12 l 1300 43 l 1347 43 z "},"¿":{"ha":1031,"x_min":0,"x_max":0,"o":"m 383 546 b 31 283 146 546 31 454 b 419 0 31 96 171 0 l 822 0 l 1010 242 l 406 242 b 317 301 343 242 317 260 b 407 360 317 344 342 360 l 592 360 b 785 531 718 360 785 418 l 785 600 l 546 600 l 546 574 b 514 546 546 553 538 546 z m 654 676 b 810 811 747 676 810 731 b 654 944 810 892 747 944 b 499 811 561 944 499 890 b 654 676 499 731 563 676 z "},"À":{"ha":1574,"x_min":0,"x_max":0,"o":"m 1561 0 l 979 840 b 796 944 939 899 882 944 b 611 840 707 944 651 896 l 15 0 l 351 0 l 792 621 l 1054 242 l 654 242 l 482 0 z m 986 993 l 986 1113 l 572 1204 l 572 1043 z "},"Á":{"ha":1574,"x_min":0,"x_max":0,"o":"m 1561 0 l 979 840 b 796 944 939 899 882 944 b 611 840 707 944 651 896 l 15 0 l 351 0 l 792 621 l 1054 242 l 654 242 l 482 0 z m 1018 1043 l 1018 1204 l 604 1113 l 604 993 z "},"Â":{"ha":1574,"x_min":0,"x_max":0,"o":"m 1561 0 l 979 840 b 796 944 939 899 882 944 b 611 840 707 944 651 896 l 15 0 l 351 0 l 792 621 l 1054 242 l 654 242 l 482 0 z m 714 1204 l 557 993 l 704 993 l 796 1121 l 886 993 l 1033 993 l 879 1204 z "},"Ã":{"ha":1574,"x_min":0,"x_max":0,"o":"m 1561 0 l 979 840 b 796 944 939 899 882 944 b 611 840 707 944 651 896 l 15 0 l 351 0 l 792 621 l 1054 242 l 654 242 l 482 0 z m 1003 1039 l 1003 1160 l 589 1160 l 589 1039 z "},"Ä":{"ha":1574,"x_min":0,"x_max":0,"o":"m 1561 0 l 979 840 b 796 944 939 899 882 944 b 611 840 707 944 651 896 l 15 0 l 351 0 l 792 621 l 1054 242 l 654 242 l 482 0 z m 753 1113 b 650 1203 753 1168 708 1203 b 544 1113 590 1203 544 1168 b 650 1022 544 1057 590 1022 b 753 1113 708 1022 753 1057 z m 1046 1113 b 942 1203 1046 1168 1003 1203 b 839 1113 883 1203 839 1168 b 942 1022 839 1057 883 1022 b 1046 1113 1003 1022 1046 1057 z "},"Å":{"ha":1574,"x_min":0,"x_max":0,"o":"m 1561 0 l 979 840 b 796 944 939 899 882 944 b 611 840 707 944 651 896 l 15 0 l 351 0 l 792 621 l 1054 242 l 654 242 l 482 0 z m 739 1313 b 596 1196 643 1313 596 1274 l 596 1108 b 739 993 596 1031 643 993 l 851 993 b 996 1108 949 993 996 1031 l 996 1196 b 851 1313 996 1274 947 1313 z m 740 1210 l 850 1210 b 883 1183 875 1210 883 1203 l 883 1125 b 851 1094 883 1103 875 1094 l 740 1094 b 707 1125 718 1094 707 1103 l 707 1183 b 740 1210 707 1203 718 1210 z "},"Æ":{"ha":2003,"x_min":0,"x_max":0,"o":"m 1200 688 l 1803 688 l 1988 929 l 785 929 b 599 825 711 929 647 894 l 15 0 l 351 0 l 838 688 l 914 688 l 914 0 l 1806 0 l 1993 242 l 1200 242 l 1200 364 l 1767 364 l 1938 568 l 1200 568 z "},"Ç":{"ha":1282,"x_min":0,"x_max":0,"o":"m 1085 0 l 1268 242 l 618 242 b 344 474 446 242 344 328 b 618 688 344 614 439 688 l 1085 688 l 1268 929 l 618 929 b 58 474 290 929 58 740 b 618 0 58 203 297 0 z m 713 -354 l 828 -43 l 614 -43 l 608 -354 z "},"È":{"ha":1176,"x_min":0,"x_max":0,"o":"m 375 688 l 978 688 l 1164 929 l 88 929 l 88 0 l 982 0 l 1165 242 l 375 242 l 375 363 l 943 363 l 1110 568 l 375 568 z m 817 993 l 817 1113 l 403 1204 l 403 1043 z "},"É":{"ha":1176,"x_min":0,"x_max":0,"o":"m 375 688 l 978 688 l 1164 929 l 88 929 l 88 0 l 982 0 l 1165 242 l 375 242 l 375 363 l 943 363 l 1110 568 l 375 568 z m 849 1043 l 849 1204 l 435 1113 l 435 993 z "},"Ê":{"ha":1176,"x_min":0,"x_max":0,"o":"m 375 688 l 978 688 l 1164 929 l 88 929 l 88 0 l 982 0 l 1165 242 l 375 242 l 375 363 l 943 363 l 1110 568 l 375 568 z m 544 1204 l 388 993 l 535 993 l 626 1121 l 717 993 l 864 993 l 710 1204 z "},"Ë":{"ha":1176,"x_min":0,"x_max":0,"o":"m 375 688 l 978 688 l 1164 929 l 88 929 l 88 0 l 982 0 l 1165 242 l 375 242 l 375 363 l 943 363 l 1110 568 l 375 568 z m 583 1113 b 481 1203 583 1168 539 1203 b 375 1113 421 1203 375 1168 b 481 1022 375 1057 421 1022 b 583 1113 539 1022 583 1057 z m 876 1113 b 772 1203 876 1168 833 1203 b 669 1113 714 1203 669 1168 b 772 1022 669 1057 714 1022 b 876 1113 833 1022 876 1057 z "},"Ì":{"ha":469,"x_min":0,"x_max":0,"o":"m 379 0 l 379 929 l 92 929 l 92 0 z m 426 993 l 426 1113 l 13 1204 l 13 1043 z "},"Í":{"ha":469,"x_min":0,"x_max":0,"o":"m 379 0 l 379 929 l 92 929 l 92 0 z m 458 1043 l 458 1204 l 44 1113 l 44 993 z "},"Î":{"ha":543,"x_min":0,"x_max":0,"o":"m 417 0 l 417 929 l 129 929 l 129 0 z m 190 1204 l 33 993 l 181 993 l 272 1121 l 363 993 l 510 993 l 356 1204 z "},"Ï":{"ha":543,"x_min":0,"x_max":0,"o":"m 417 0 l 417 929 l 129 929 l 129 0 z m 229 1113 b 126 1203 229 1168 185 1203 b 21 1113 67 1203 21 1168 b 126 1022 21 1057 67 1022 b 229 1113 185 1022 229 1057 z m 522 1113 b 418 1203 522 1168 479 1203 b 315 1113 360 1203 315 1168 b 418 1022 315 1057 360 1022 b 522 1113 479 1022 522 1057 z "},"Ð":{"ha":1446,"x_min":0,"x_max":0,"o":"m 828 0 b 1388 474 1149 0 1388 203 b 828 929 1388 740 1156 929 l 392 929 l 207 688 l 828 688 b 1100 461 983 688 1100 590 b 828 242 1100 329 992 242 l 493 242 l 493 360 l 657 360 l 829 568 l 171 568 l 0 360 l 207 360 l 207 0 z "},"Ñ":{"ha":1268,"x_min":0,"x_max":0,"o":"m 83 0 l 360 0 l 360 540 l 914 35 b 1029 -17 953 -1 986 -17 b 1186 158 1126 -17 1186 51 l 1186 929 l 911 929 l 911 388 l 354 896 b 240 944 317 931 283 944 b 83 769 143 944 83 878 z m 843 1039 l 843 1160 l 429 1160 l 429 1039 z "},"Ò":{"ha":1474,"x_min":0,"x_max":0,"o":"m 736 944 b 58 465 275 944 58 790 b 736 -15 58 139 276 -15 b 1417 465 1197 -15 1417 140 b 736 944 1417 790 1197 944 z m 928 993 l 928 1113 l 514 1204 l 514 1043 z m 736 703 b 1129 465 1049 703 1129 654 b 736 226 1129 276 1047 226 b 344 465 428 226 344 276 b 736 703 344 653 426 703 z "},"Ó":{"ha":1474,"x_min":0,"x_max":0,"o":"m 736 944 b 58 465 275 944 58 790 b 736 -15 58 139 276 -15 b 1417 465 1197 -15 1417 140 b 736 944 1417 790 1197 944 z m 960 1043 l 960 1204 l 546 1113 l 546 993 z m 736 703 b 1129 465 1049 703 1129 654 b 736 226 1129 276 1047 226 b 344 465 428 226 344 276 b 736 703 344 653 426 703 z "},"Ô":{"ha":1474,"x_min":0,"x_max":0,"o":"m 736 944 b 58 465 275 944 58 790 b 736 -15 58 139 276 -15 b 1417 465 1197 -15 1417 140 b 736 944 1417 790 1197 944 z m 656 1204 l 499 993 l 646 993 l 738 1121 l 828 993 l 975 993 l 821 1204 z m 736 703 b 1129 465 1049 703 1129 654 b 736 226 1129 276 1047 226 b 344 465 428 226 344 276 b 736 703 344 653 426 703 z "},"Õ":{"ha":1474,"x_min":0,"x_max":0,"o":"m 736 944 b 58 465 275 944 58 790 b 736 -15 58 139 276 -15 b 1417 465 1197 -15 1417 140 b 736 944 1417 790 1197 944 z m 944 1039 l 944 1160 l 531 1160 l 531 1039 z m 736 703 b 1129 465 1049 703 1129 654 b 736 226 1129 276 1047 226 b 344 465 428 226 344 276 b 736 703 344 653 426 703 z "},"Ö":{"ha":1474,"x_min":0,"x_max":0,"o":"m 736 944 b 58 465 275 944 58 790 b 736 -15 58 139 276 -15 b 1417 465 1197 -15 1417 140 b 736 944 1417 790 1197 944 z m 694 1113 b 592 1203 694 1168 650 1203 b 486 1113 532 1203 486 1168 b 592 1022 486 1057 532 1022 b 694 1113 650 1022 694 1057 z m 988 1113 b 883 1203 988 1168 944 1203 b 781 1113 825 1203 781 1168 b 883 1022 781 1057 825 1022 b 988 1113 944 1022 988 1057 z m 736 703 b 1129 465 1049 703 1129 654 b 736 226 1129 276 1047 226 b 344 465 428 226 344 276 b 736 703 344 653 426 703 z "},"×":{"ha":874,"x_min":0,"x_max":0,"o":"m 232 800 l 118 683 l 326 474 l 115 264 l 232 149 l 442 357 l 651 146 l 767 263 l 557 472 l 769 683 l 653 797 l 442 588 z "},"Ø":{"ha":1474,"x_min":0,"x_max":0,"o":"m 440 -51 l 481 6 b 736 -15 556 -8 640 -15 b 1417 465 1197 -15 1417 140 b 1117 893 1417 682 1319 824 l 1181 982 l 1044 982 l 1001 922 b 736 944 925 938 836 944 b 58 465 275 944 58 790 b 358 36 58 247 156 106 l 294 -51 z m 736 703 b 840 700 774 703 808 701 l 508 243 b 344 465 383 271 344 335 b 736 703 344 653 426 703 z m 1129 465 b 736 226 1129 276 1047 226 b 640 228 701 226 669 226 l 968 685 b 1129 465 1092 658 1129 594 z "},"Ù":{"ha":1369,"x_min":0,"x_max":0,"o":"m 1007 406 b 688 226 1007 274 925 226 b 363 406 447 226 363 274 l 363 929 l 75 929 l 75 406 b 688 -15 75 114 265 -15 b 1293 406 1106 -15 1293 115 l 1293 929 l 1007 929 z m 875 993 l 875 1113 l 461 1204 l 461 1043 z "},"Ú":{"ha":1369,"x_min":0,"x_max":0,"o":"m 1007 406 b 688 226 1007 274 925 226 b 363 406 447 226 363 274 l 363 929 l 75 929 l 75 406 b 688 -15 75 114 265 -15 b 1293 406 1106 -15 1293 115 l 1293 929 l 1007 929 z m 907 1043 l 907 1204 l 493 1113 l 493 993 z "},"Û":{"ha":1369,"x_min":0,"x_max":0,"o":"m 1007 406 b 688 226 1007 274 925 226 b 363 406 447 226 363 274 l 363 929 l 75 929 l 75 406 b 688 -15 75 114 265 -15 b 1293 406 1106 -15 1293 115 l 1293 929 l 1007 929 z m 603 1204 l 446 993 l 593 993 l 685 1121 l 775 993 l 922 993 l 768 1204 z "},"Ü":{"ha":1369,"x_min":0,"x_max":0,"o":"m 1007 406 b 688 226 1007 274 925 226 b 363 406 447 226 363 274 l 363 929 l 75 929 l 75 406 b 688 -15 75 114 265 -15 b 1293 406 1106 -15 1293 115 l 1293 929 l 1007 929 z m 642 1113 b 539 1203 642 1168 597 1203 b 433 1113 479 1203 433 1168 b 539 1022 433 1057 479 1022 b 642 1113 597 1022 642 1057 z m 935 1113 b 831 1203 935 1168 892 1203 b 728 1113 772 1203 728 1168 b 831 1022 728 1057 772 1022 b 935 1113 892 1022 935 1057 z "},"Ý":{"ha":1428,"x_min":0,"x_max":0,"o":"m 865 0 l 865 308 l 1417 929 l 1065 929 l 726 547 l 379 929 l 11 929 l 578 308 l 578 0 z m 949 1043 l 949 1204 l 535 1113 l 535 993 z "},"Þ":{"ha":1331,"x_min":0,"x_max":0,"o":"m 375 929 l 88 929 l 88 0 l 375 0 l 375 557 l 849 557 b 992 454 940 557 992 521 b 847 349 992 386 940 349 l 622 349 l 433 107 l 822 107 b 1278 457 1101 107 1278 243 b 821 799 1278 667 1104 799 l 375 799 z "},"ß":{"ha":2676,"x_min":0,"x_max":0,"o":"m 921 0 b 1296 297 1179 0 1296 93 b 943 567 1296 474 1174 567 l 436 567 b 349 628 376 567 349 586 b 436 688 349 668 376 688 l 1086 688 l 1271 929 l 458 929 b 67 642 196 929 67 833 b 424 363 67 465 197 363 l 926 363 b 1014 301 986 363 1014 344 b 929 242 1014 260 988 242 l 218 242 l 33 0 z m 2260 0 b 2635 297 2518 0 2635 93 b 2282 567 2635 474 2513 567 l 1775 567 b 1688 628 1715 567 1688 586 b 1775 688 1688 668 1715 688 l 2425 688 l 2610 929 l 1797 929 b 1406 642 1535 929 1406 833 b 1763 363 1406 465 1536 363 l 2265 363 b 2353 301 2325 363 2353 344 b 2268 242 2353 260 2326 242 l 1557 242 l 1372 0 z "},"à":{"ha":1574,"x_min":0,"x_max":0,"o":"m 1561 0 l 979 840 b 796 944 939 899 882 944 b 611 840 707 944 651 896 l 15 0 l 351 0 l 792 621 l 1054 242 l 654 242 l 482 0 z m 986 993 l 986 1113 l 572 1204 l 572 1043 z "},"á":{"ha":1574,"x_min":0,"x_max":0,"o":"m 1561 0 l 979 840 b 796 944 939 899 882 944 b 611 840 707 944 651 896 l 15 0 l 351 0 l 792 621 l 1054 242 l 654 242 l 482 0 z m 1018 1043 l 1018 1204 l 604 1113 l 604 993 z "},"â":{"ha":1574,"x_min":0,"x_max":0,"o":"m 1561 0 l 979 840 b 796 944 939 899 882 944 b 611 840 707 944 651 896 l 15 0 l 351 0 l 792 621 l 1054 242 l 654 242 l 482 0 z m 714 1204 l 557 993 l 704 993 l 796 1121 l 886 993 l 1033 993 l 879 1204 z "},"ã":{"ha":1574,"x_min":0,"x_max":0,"o":"m 1561 0 l 979 840 b 796 944 939 899 882 944 b 611 840 707 944 651 896 l 15 0 l 351 0 l 792 621 l 1054 242 l 654 242 l 482 0 z m 1003 1039 l 1003 1160 l 589 1160 l 589 1039 z "},"ä":{"ha":1574,"x_min":0,"x_max":0,"o":"m 1561 0 l 979 840 b 796 944 939 899 882 944 b 611 840 707 944 651 896 l 15 0 l 351 0 l 792 621 l 1054 242 l 654 242 l 482 0 z m 753 1113 b 650 1203 753 1168 708 1203 b 544 1113 590 1203 544 1168 b 650 1022 544 1057 590 1022 b 753 1113 708 1022 753 1057 z m 1046 1113 b 942 1203 1046 1168 1003 1203 b 839 1113 883 1203 839 1168 b 942 1022 839 1057 883 1022 b 1046 1113 1003 1022 1046 1057 z "},"å":{"ha":1574,"x_min":0,"x_max":0,"o":"m 1561 0 l 979 840 b 796 944 939 899 882 944 b 611 840 707 944 651 896 l 15 0 l 351 0 l 792 621 l 1054 242 l 654 242 l 482 0 z m 739 1313 b 596 1196 643 1313 596 1274 l 596 1108 b 739 993 596 1031 643 993 l 851 993 b 996 1108 949 993 996 1031 l 996 1196 b 851 1313 996 1274 947 1313 z m 740 1210 l 850 1210 b 883 1183 875 1210 883 1203 l 883 1125 b 851 1094 883 1103 875 1094 l 740 1094 b 707 1125 718 1094 707 1103 l 707 1183 b 740 1210 707 1203 718 1210 z "},"æ":{"ha":2003,"x_min":0,"x_max":0,"o":"m 1200 688 l 1803 688 l 1988 929 l 785 929 b 599 825 711 929 647 894 l 15 0 l 351 0 l 838 688 l 914 688 l 914 0 l 1806 0 l 1993 242 l 1200 242 l 1200 364 l 1767 364 l 1938 568 l 1200 568 z "},"ç":{"ha":1282,"x_min":0,"x_max":0,"o":"m 1085 0 l 1268 242 l 618 242 b 344 474 446 242 344 328 b 618 688 344 614 439 688 l 1085 688 l 1268 929 l 618 929 b 58 474 290 929 58 740 b 618 0 58 203 297 0 z m 713 -354 l 828 -43 l 614 -43 l 608 -354 z "},"è":{"ha":1176,"x_min":0,"x_max":0,"o":"m 375 688 l 978 688 l 1164 929 l 88 929 l 88 0 l 982 0 l 1165 242 l 375 242 l 375 363 l 943 363 l 1110 568 l 375 568 z m 817 993 l 817 1113 l 403 1204 l 403 1043 z "},"é":{"ha":1176,"x_min":0,"x_max":0,"o":"m 375 688 l 978 688 l 1164 929 l 88 929 l 88 0 l 982 0 l 1165 242 l 375 242 l 375 363 l 943 363 l 1110 568 l 375 568 z m 849 1043 l 849 1204 l 435 1113 l 435 993 z "},"ê":{"ha":1176,"x_min":0,"x_max":0,"o":"m 375 688 l 978 688 l 1164 929 l 88 929 l 88 0 l 982 0 l 1165 242 l 375 242 l 375 363 l 943 363 l 1110 568 l 375 568 z m 544 1204 l 388 993 l 535 993 l 626 1121 l 717 993 l 864 993 l 710 1204 z "},"ë":{"ha":1176,"x_min":0,"x_max":0,"o":"m 375 688 l 978 688 l 1164 929 l 88 929 l 88 0 l 982 0 l 1165 242 l 375 242 l 375 363 l 943 363 l 1110 568 l 375 568 z m 583 1113 b 481 1203 583 1168 539 1203 b 375 1113 421 1203 375 1168 b 481 1022 375 1057 421 1022 b 583 1113 539 1022 583 1057 z m 876 1113 b 772 1203 876 1168 833 1203 b 669 1113 714 1203 669 1168 b 772 1022 669 1057 714 1022 b 876 1113 833 1022 876 1057 z "},"ì":{"ha":469,"x_min":0,"x_max":0,"o":"m 379 0 l 379 929 l 92 929 l 92 0 z m 426 993 l 426 1113 l 13 1204 l 13 1043 z "},"í":{"ha":469,"x_min":0,"x_max":0,"o":"m 379 0 l 379 929 l 92 929 l 92 0 z m 458 1043 l 458 1204 l 44 1113 l 44 993 z "},"î":{"ha":543,"x_min":0,"x_max":0,"o":"m 417 0 l 417 929 l 129 929 l 129 0 z m 190 1204 l 33 993 l 181 993 l 272 1121 l 363 993 l 510 993 l 356 1204 z "},"ï":{"ha":543,"x_min":0,"x_max":0,"o":"m 417 0 l 417 929 l 129 929 l 129 0 z m 229 1113 b 126 1203 229 1168 185 1203 b 21 1113 67 1203 21 1168 b 126 1022 21 1057 67 1022 b 229 1113 185 1022 229 1057 z m 522 1113 b 418 1203 522 1168 479 1203 b 315 1113 360 1203 315 1168 b 418 1022 315 1057 360 1022 b 522 1113 479 1022 522 1057 z "},"ð":{"ha":1446,"x_min":0,"x_max":0,"o":"m 828 0 b 1388 474 1149 0 1388 203 b 828 929 1388 740 1156 929 l 392 929 l 207 688 l 828 688 b 1100 461 983 688 1100 590 b 828 242 1100 329 992 242 l 493 242 l 493 360 l 657 360 l 829 568 l 171 568 l 0 360 l 207 360 l 207 0 z "},"ñ":{"ha":1268,"x_min":0,"x_max":0,"o":"m 83 0 l 360 0 l 360 540 l 914 35 b 1029 -17 953 -1 986 -17 b 1186 158 1126 -17 1186 51 l 1186 929 l 911 929 l 911 388 l 354 896 b 240 944 317 931 283 944 b 83 769 143 944 83 878 z m 843 1039 l 843 1160 l 429 1160 l 429 1039 z "},"ò":{"ha":1474,"x_min":0,"x_max":0,"o":"m 736 944 b 58 465 275 944 58 790 b 736 -15 58 139 276 -15 b 1417 465 1197 -15 1417 140 b 736 944 1417 790 1197 944 z m 928 993 l 928 1113 l 514 1204 l 514 1043 z m 736 703 b 1129 465 1049 703 1129 654 b 736 226 1129 276 1047 226 b 344 465 428 226 344 276 b 736 703 344 653 426 703 z "},"ó":{"ha":1474,"x_min":0,"x_max":0,"o":"m 736 944 b 58 465 275 944 58 790 b 736 -15 58 139 276 -15 b 1417 465 1197 -15 1417 140 b 736 944 1417 790 1197 944 z m 960 1043 l 960 1204 l 546 1113 l 546 993 z m 736 703 b 1129 465 1049 703 1129 654 b 736 226 1129 276 1047 226 b 344 465 428 226 344 276 b 736 703 344 653 426 703 z "},"ô":{"ha":1474,"x_min":0,"x_max":0,"o":"m 736 944 b 58 465 275 944 58 790 b 736 -15 58 139 276 -15 b 1417 465 1197 -15 1417 140 b 736 944 1417 790 1197 944 z m 656 1204 l 499 993 l 646 993 l 738 1121 l 828 993 l 975 993 l 821 1204 z m 736 703 b 1129 465 1049 703 1129 654 b 736 226 1129 276 1047 226 b 344 465 428 226 344 276 b 736 703 344 653 426 703 z "},"õ":{"ha":1474,"x_min":0,"x_max":0,"o":"m 736 944 b 58 465 275 944 58 790 b 736 -15 58 139 276 -15 b 1417 465 1197 -15 1417 140 b 736 944 1417 790 1197 944 z m 944 1039 l 944 1160 l 531 1160 l 531 1039 z m 736 703 b 1129 465 1049 703 1129 654 b 736 226 1129 276 1047 226 b 344 465 428 226 344 276 b 736 703 344 653 426 703 z "},"ö":{"ha":1474,"x_min":0,"x_max":0,"o":"m 736 944 b 58 465 275 944 58 790 b 736 -15 58 139 276 -15 b 1417 465 1197 -15 1417 140 b 736 944 1417 790 1197 944 z m 694 1113 b 592 1203 694 1168 650 1203 b 486 1113 532 1203 486 1168 b 592 1022 486 1057 532 1022 b 694 1113 650 1022 694 1057 z m 988 1113 b 883 1203 988 1168 944 1203 b 781 1113 825 1203 781 1168 b 883 1022 781 1057 825 1022 b 988 1113 944 1022 988 1057 z m 736 703 b 1129 465 1049 703 1129 654 b 736 226 1129 276 1047 226 b 344 465 428 226 344 276 b 736 703 344 653 426 703 z "},"÷":{"ha":874,"x_min":0,"x_max":0,"o":"m 433 329 b 276 193 340 329 276 274 b 433 60 276 114 339 60 b 588 193 525 60 588 114 b 433 329 588 274 525 329 z m 433 882 b 276 747 340 882 276 826 b 433 613 276 667 339 613 b 588 747 525 613 588 667 b 433 882 588 826 525 882 z m 817 390 l 817 553 l 58 553 l 58 390 z "},"ø":{"ha":1474,"x_min":0,"x_max":0,"o":"m 440 -51 l 481 6 b 736 -15 556 -8 640 -15 b 1417 465 1197 -15 1417 140 b 1117 893 1417 682 1319 824 l 1181 982 l 1044 982 l 1001 922 b 736 944 925 938 836 944 b 58 465 275 944 58 790 b 358 36 58 247 156 106 l 294 -51 z m 736 703 b 840 700 774 703 808 701 l 508 243 b 344 465 383 271 344 335 b 736 703 344 653 426 703 z m 1129 465 b 736 226 1129 276 1047 226 b 640 228 701 226 669 226 l 968 685 b 1129 465 1092 658 1129 594 z "},"ù":{"ha":1369,"x_min":0,"x_max":0,"o":"m 1007 406 b 688 226 1007 274 925 226 b 363 406 447 226 363 274 l 363 929 l 75 929 l 75 406 b 688 -15 75 114 265 -15 b 1293 406 1106 -15 1293 115 l 1293 929 l 1007 929 z m 875 993 l 875 1113 l 461 1204 l 461 1043 z "},"ú":{"ha":1369,"x_min":0,"x_max":0,"o":"m 1007 406 b 688 226 1007 274 925 226 b 363 406 447 226 363 274 l 363 929 l 75 929 l 75 406 b 688 -15 75 114 265 -15 b 1293 406 1106 -15 1293 115 l 1293 929 l 1007 929 z m 907 1043 l 907 1204 l 493 1113 l 493 993 z "},"û":{"ha":1369,"x_min":0,"x_max":0,"o":"m 1007 406 b 688 226 1007 274 925 226 b 363 406 447 226 363 274 l 363 929 l 75 929 l 75 406 b 688 -15 75 114 265 -15 b 1293 406 1106 -15 1293 115 l 1293 929 l 1007 929 z m 603 1204 l 446 993 l 593 993 l 685 1121 l 775 993 l 922 993 l 768 1204 z "},"ü":{"ha":1369,"x_min":0,"x_max":0,"o":"m 1007 406 b 688 226 1007 274 925 226 b 363 406 447 226 363 274 l 363 929 l 75 929 l 75 406 b 688 -15 75 114 265 -15 b 1293 406 1106 -15 1293 115 l 1293 929 l 1007 929 z m 642 1113 b 539 1203 642 1168 597 1203 b 433 1113 479 1203 433 1168 b 539 1022 433 1057 479 1022 b 642 1113 597 1022 642 1057 z m 935 1113 b 831 1203 935 1168 892 1203 b 728 1113 772 1203 728 1168 b 831 1022 728 1057 772 1022 b 935 1113 892 1022 935 1057 z "},"ý":{"ha":1428,"x_min":0,"x_max":0,"o":"m 865 0 l 865 308 l 1417 929 l 1065 929 l 726 547 l 379 929 l 11 929 l 578 308 l 578 0 z m 949 1043 l 949 1204 l 535 1113 l 535 993 z "},"þ":{"ha":1331,"x_min":0,"x_max":0,"o":"m 375 929 l 88 929 l 88 0 l 375 0 l 375 557 l 849 557 b 992 454 940 557 992 521 b 847 349 992 386 940 349 l 622 349 l 433 107 l 822 107 b 1278 457 1101 107 1278 243 b 821 799 1278 667 1104 799 l 375 799 z "},"ÿ":{"ha":1428,"x_min":0,"x_max":0,"o":"m 865 0 l 865 308 l 1417 929 l 1065 929 l 726 547 l 379 929 l 11 929 l 578 308 l 578 0 z m 683 1113 b 581 1203 683 1168 639 1203 b 475 1113 521 1203 475 1168 b 581 1022 475 1057 521 1022 b 683 1113 639 1022 683 1057 z m 976 1113 b 872 1203 976 1168 933 1203 b 769 1113 814 1203 769 1168 b 872 1022 769 1057 814 1022 b 976 1113 933 1022 976 1057 z "},"Ā":{"ha":1574,"x_min":0,"x_max":0,"o":"m 1561 0 l 979 840 b 796 944 939 899 882 944 b 611 840 707 944 651 896 l 15 0 l 351 0 l 792 621 l 1054 242 l 654 242 l 482 0 z m 1003 1039 l 1003 1160 l 589 1160 l 589 1039 z "},"ā":{"ha":1574,"x_min":0,"x_max":0,"o":"m 1561 0 l 979 840 b 796 944 939 899 882 944 b 611 840 707 944 651 896 l 15 0 l 351 0 l 792 621 l 1054 242 l 654 242 l 482 0 z m 1003 1039 l 1003 1160 l 589 1160 l 589 1039 z "},"Ă":{"ha":1574,"x_min":0,"x_max":0,"o":"m 1561 0 l 979 840 b 796 944 939 899 882 944 b 611 840 707 944 651 896 l 15 0 l 351 0 l 792 621 l 1054 242 l 654 242 l 482 0 z m 572 1204 b 756 993 572 1085 651 993 l 839 993 b 1021 1204 942 993 1021 1083 l 876 1204 b 813 1086 876 1129 853 1086 l 789 1086 b 715 1204 743 1086 715 1132 z "},"ă":{"ha":1574,"x_min":0,"x_max":0,"o":"m 1561 0 l 979 840 b 796 944 939 899 882 944 b 611 840 707 944 651 896 l 15 0 l 351 0 l 792 621 l 1054 242 l 654 242 l 482 0 z m 572 1204 b 756 993 572 1085 651 993 l 839 993 b 1021 1204 942 993 1021 1083 l 876 1204 b 813 1086 876 1129 853 1086 l 789 1086 b 715 1204 743 1086 715 1132 z "},"Ą":{"ha":1574,"x_min":0,"x_max":0,"o":"m 1561 0 l 979 840 b 796 944 939 899 882 944 b 611 840 707 944 651 896 l 15 0 l 351 0 l 792 621 l 1054 242 l 654 242 l 482 0 l 1449 0 l 1311 -112 b 1249 -228 1271 -147 1249 -189 b 1404 -347 1249 -306 1311 -347 l 1560 -347 l 1560 -169 l 1425 -169 b 1394 -147 1407 -169 1394 -160 b 1408 -125 1394 -140 1399 -133 l 1560 0 z "},"ą":{"ha":1574,"x_min":0,"x_max":0,"o":"m 1561 0 l 979 840 b 796 944 939 899 882 944 b 611 840 707 944 651 896 l 15 0 l 351 0 l 792 621 l 1054 242 l 654 242 l 482 0 l 1449 0 l 1311 -112 b 1249 -228 1271 -147 1249 -189 b 1404 -347 1249 -306 1311 -347 l 1560 -347 l 1560 -169 l 1425 -169 b 1394 -147 1407 -169 1394 -160 b 1408 -125 1394 -140 1399 -133 l 1560 0 z "},"Ć":{"ha":1282,"x_min":0,"x_max":0,"o":"m 1085 0 l 1268 242 l 618 242 b 344 474 446 242 344 328 b 618 688 344 614 439 688 l 1085 688 l 1268 929 l 618 929 b 58 474 290 929 58 740 b 618 0 58 203 297 0 z m 949 1043 l 949 1204 l 535 1113 l 535 993 z "},"ć":{"ha":1282,"x_min":0,"x_max":0,"o":"m 1085 0 l 1268 242 l 618 242 b 344 474 446 242 344 328 b 618 688 344 614 439 688 l 1085 688 l 1268 929 l 618 929 b 58 474 290 929 58 740 b 618 0 58 203 297 0 z m 949 1043 l 949 1204 l 535 1113 l 535 993 z "},"Ċ":{"ha":1282,"x_min":0,"x_max":0,"o":"m 1085 0 l 1268 242 l 618 242 b 344 474 446 242 344 328 b 618 688 344 614 439 688 l 1085 688 l 1268 929 l 618 929 b 58 474 290 929 58 740 b 618 0 58 203 297 0 z m 831 1113 b 726 1203 831 1168 785 1203 b 624 1113 668 1203 624 1168 b 726 1022 624 1057 668 1022 b 831 1113 785 1022 831 1057 z "},"ċ":{"ha":1282,"x_min":0,"x_max":0,"o":"m 1085 0 l 1268 242 l 618 242 b 344 474 446 242 344 328 b 618 688 344 614 439 688 l 1085 688 l 1268 929 l 618 929 b 58 474 290 929 58 740 b 618 0 58 203 297 0 z m 831 1113 b 726 1203 831 1168 785 1203 b 624 1113 668 1203 624 1168 b 726 1022 624 1057 668 1022 b 831 1113 785 1022 831 1057 z "},"Č":{"ha":1282,"x_min":0,"x_max":0,"o":"m 1085 0 l 1268 242 l 618 242 b 344 474 446 242 344 328 b 618 688 344 614 439 688 l 1085 688 l 1268 929 l 618 929 b 58 474 290 929 58 740 b 618 0 58 203 297 0 z m 803 993 l 961 1204 l 822 1204 l 726 1069 l 631 1204 l 493 1204 l 647 993 z "},"č":{"ha":1282,"x_min":0,"x_max":0,"o":"m 1085 0 l 1268 242 l 618 242 b 344 474 446 242 344 328 b 618 688 344 614 439 688 l 1085 688 l 1268 929 l 618 929 b 58 474 290 929 58 740 b 618 0 58 203 297 0 z m 803 993 l 961 1204 l 822 1204 l 726 1069 l 631 1204 l 493 1204 l 647 993 z "},"Ď":{"ha":1326,"x_min":0,"x_max":0,"o":"m 710 0 b 1269 474 1031 0 1269 203 b 710 929 1269 740 1038 929 l 272 929 l 88 688 l 710 688 b 982 474 878 688 982 606 b 710 242 982 324 888 242 l 375 242 l 375 574 l 88 574 l 88 0 z m 707 993 l 865 1204 l 726 1204 l 631 1069 l 535 1204 l 397 1204 l 551 993 z "},"ď":{"ha":1326,"x_min":0,"x_max":0,"o":"m 710 0 b 1269 474 1031 0 1269 203 b 710 929 1269 740 1038 929 l 272 929 l 88 688 l 710 688 b 982 474 878 688 982 606 b 710 242 982 324 888 242 l 375 242 l 375 574 l 88 574 l 88 0 z m 707 993 l 865 1204 l 726 1204 l 631 1069 l 535 1204 l 397 1204 l 551 993 z "},"Đ":{"ha":1446,"x_min":0,"x_max":0,"o":"m 828 0 b 1388 474 1149 0 1388 203 b 828 929 1388 740 1156 929 l 392 929 l 207 688 l 828 688 b 1100 461 983 688 1100 590 b 828 242 1100 329 992 242 l 493 242 l 493 360 l 657 360 l 829 568 l 171 568 l 0 360 l 207 360 l 207 0 z "},"đ":{"ha":1446,"x_min":0,"x_max":0,"o":"m 828 0 b 1388 474 1149 0 1388 203 b 828 929 1388 740 1156 929 l 392 929 l 207 688 l 828 688 b 1100 461 983 688 1100 590 b 828 242 1100 329 992 242 l 493 242 l 493 360 l 657 360 l 829 568 l 171 568 l 0 360 l 207 360 l 207 0 z "},"Ē":{"ha":1176,"x_min":0,"x_max":0,"o":"m 375 688 l 978 688 l 1164 929 l 88 929 l 88 0 l 982 0 l 1165 242 l 375 242 l 375 363 l 943 363 l 1110 568 l 375 568 z m 833 1039 l 833 1160 l 419 1160 l 419 1039 z "},"ē":{"ha":1176,"x_min":0,"x_max":0,"o":"m 375 688 l 978 688 l 1164 929 l 88 929 l 88 0 l 982 0 l 1165 242 l 375 242 l 375 363 l 943 363 l 1110 568 l 375 568 z m 833 1039 l 833 1160 l 419 1160 l 419 1039 z "},"Ė":{"ha":1176,"x_min":0,"x_max":0,"o":"m 375 688 l 978 688 l 1164 929 l 88 929 l 88 0 l 982 0 l 1165 242 l 375 242 l 375 363 l 943 363 l 1110 568 l 375 568 z m 731 1113 b 626 1203 731 1168 685 1203 b 524 1113 568 1203 524 1168 b 626 1022 524 1057 568 1022 b 731 1113 685 1022 731 1057 z "},"ė":{"ha":1176,"x_min":0,"x_max":0,"o":"m 375 688 l 978 688 l 1164 929 l 88 929 l 88 0 l 982 0 l 1165 242 l 375 242 l 375 363 l 943 363 l 1110 568 l 375 568 z m 731 1113 b 626 1203 731 1168 685 1203 b 524 1113 568 1203 524 1168 b 626 1022 524 1057 568 1022 b 731 1113 685 1022 731 1057 z "},"Ę":{"ha":1176,"x_min":0,"x_max":0,"o":"m 375 688 l 976 688 l 1164 929 l 88 929 l 88 0 l 861 0 l 761 -112 b 704 -228 728 -151 704 -187 b 846 -347 704 -292 742 -347 l 1032 -347 l 1032 -169 l 907 -169 b 876 -147 888 -169 876 -160 b 890 -125 876 -140 882 -133 l 1165 239 l 375 239 l 375 360 l 944 360 l 1110 568 l 375 568 z "},"ę":{"ha":1176,"x_min":0,"x_max":0,"o":"m 375 688 l 976 688 l 1164 929 l 88 929 l 88 0 l 861 0 l 761 -112 b 704 -228 728 -151 704 -187 b 846 -347 704 -292 742 -347 l 1032 -347 l 1032 -169 l 907 -169 b 876 -147 888 -169 876 -160 b 890 -125 876 -140 882 -133 l 1165 239 l 375 239 l 375 360 l 944 360 l 1110 568 l 375 568 z "},"Ě":{"ha":1176,"x_min":0,"x_max":0,"o":"m 375 688 l 978 688 l 1164 929 l 88 929 l 88 0 l 982 0 l 1165 242 l 375 242 l 375 363 l 943 363 l 1110 568 l 375 568 z m 703 993 l 861 1204 l 722 1204 l 626 1069 l 531 1204 l 393 1204 l 547 993 z "},"ě":{"ha":1176,"x_min":0,"x_max":0,"o":"m 375 688 l 978 688 l 1164 929 l 88 929 l 88 0 l 982 0 l 1165 242 l 375 242 l 375 363 l 943 363 l 1110 568 l 375 568 z m 703 993 l 861 1204 l 722 1204 l 626 1069 l 531 1204 l 393 1204 l 547 993 z "},"Ğ":{"ha":1332,"x_min":0,"x_max":0,"o":"m 1256 0 l 1256 567 l 676 567 l 499 365 l 968 365 l 968 242 l 618 242 b 344 461 454 242 344 329 b 618 688 344 592 463 688 l 1096 688 l 1282 929 l 618 929 b 58 474 290 929 58 740 b 618 0 58 203 297 0 z m 518 1204 b 701 993 518 1085 597 993 l 785 993 b 967 1204 888 993 967 1083 l 822 1204 b 758 1086 822 1129 799 1086 l 735 1086 b 661 1204 689 1086 661 1132 z "},"ğ":{"ha":1332,"x_min":0,"x_max":0,"o":"m 1256 0 l 1256 567 l 676 567 l 499 365 l 968 365 l 968 242 l 618 242 b 344 461 454 242 344 329 b 618 688 344 592 463 688 l 1096 688 l 1282 929 l 618 929 b 58 474 290 929 58 740 b 618 0 58 203 297 0 z m 518 1204 b 701 993 518 1085 597 993 l 785 993 b 967 1204 888 993 967 1083 l 822 1204 b 758 1086 822 1129 799 1086 l 735 1086 b 661 1204 689 1086 661 1132 z "},"Ġ":{"ha":1332,"x_min":0,"x_max":0,"o":"m 1256 0 l 1256 567 l 676 567 l 499 365 l 968 365 l 968 242 l 618 242 b 344 461 454 242 344 329 b 618 688 344 592 463 688 l 1096 688 l 1282 929 l 618 929 b 58 474 290 929 58 740 b 618 0 58 203 297 0 z m 846 1113 b 742 1203 846 1168 800 1203 b 639 1113 683 1203 639 1168 b 742 1022 639 1057 683 1022 b 846 1113 800 1022 846 1057 z "},"ġ":{"ha":1332,"x_min":0,"x_max":0,"o":"m 1256 0 l 1256 567 l 676 567 l 499 365 l 968 365 l 968 242 l 618 242 b 344 461 454 242 344 329 b 618 688 344 592 463 688 l 1096 688 l 1282 929 l 618 929 b 58 474 290 929 58 740 b 618 0 58 203 297 0 z m 846 1113 b 742 1203 846 1168 800 1203 b 639 1113 683 1203 639 1168 b 742 1022 639 1057 683 1022 b 846 1113 800 1022 846 1057 z "},"Ģ":{"ha":1332,"x_min":0,"x_max":0,"o":"m 1256 0 l 1256 567 l 676 567 l 499 365 l 968 365 l 968 242 l 618 242 b 344 461 454 242 344 329 b 618 688 344 592 463 688 l 1096 688 l 1282 929 l 618 929 b 58 474 290 929 58 740 b 618 0 58 203 297 0 z m 728 -354 l 843 -43 l 629 -43 l 624 -354 z "},"ģ":{"ha":1332,"x_min":0,"x_max":0,"o":"m 1256 0 l 1256 567 l 676 567 l 499 365 l 968 365 l 968 242 l 618 242 b 344 461 454 242 344 329 b 618 688 344 592 463 688 l 1096 688 l 1282 929 l 618 929 b 58 474 290 929 58 740 b 618 0 58 203 297 0 z m 728 -354 l 843 -43 l 629 -43 l 624 -354 z "},"Ħ":{"ha":1303,"x_min":0,"x_max":0,"o":"m 375 929 l 88 929 l 88 0 l 375 0 l 375 357 l 928 357 l 928 0 l 1214 0 l 1214 929 l 928 929 l 928 851 l 375 851 z m 375 599 l 375 721 l 928 721 l 928 599 z "},"ħ":{"ha":1303,"x_min":0,"x_max":0,"o":"m 375 929 l 88 929 l 88 0 l 375 0 l 375 357 l 928 357 l 928 0 l 1214 0 l 1214 929 l 928 929 l 928 851 l 375 851 z m 375 599 l 375 721 l 928 721 l 928 599 z "},"Ĩ":{"ha":579,"x_min":0,"x_max":0,"o":"m 435 0 l 435 929 l 147 929 l 147 0 z m 497 1039 l 497 1160 l 83 1160 l 83 1039 z "},"ĩ":{"ha":579,"x_min":0,"x_max":0,"o":"m 435 0 l 435 929 l 147 929 l 147 0 z m 497 1039 l 497 1160 l 83 1160 l 83 1039 z "},"Ī":{"ha":579,"x_min":0,"x_max":0,"o":"m 435 0 l 435 929 l 147 929 l 147 0 z m 497 1039 l 497 1160 l 83 1160 l 83 1039 z "},"ī":{"ha":579,"x_min":0,"x_max":0,"o":"m 435 0 l 435 929 l 147 929 l 147 0 z m 497 1039 l 497 1160 l 83 1160 l 83 1039 z "},"Ĭ":{"ha":469,"x_min":0,"x_max":0,"o":"m 379 0 l 379 929 l 92 929 l 92 0 z m 13 1204 b 196 993 13 1085 92 993 l 279 993 b 461 1204 382 993 461 1083 l 317 1204 b 253 1086 317 1129 293 1086 l 229 1086 b 156 1204 183 1086 156 1132 z "},"ĭ":{"ha":469,"x_min":0,"x_max":0,"o":"m 379 0 l 379 929 l 92 929 l 92 0 z m 13 1204 b 196 993 13 1085 92 993 l 279 993 b 461 1204 382 993 461 1083 l 317 1204 b 253 1086 317 1129 293 1086 l 229 1086 b 156 1204 183 1086 156 1132 z "},"Į":{"ha":469,"x_min":0,"x_max":0,"o":"m 378 -347 l 378 -169 l 243 -169 b 213 -147 225 -169 213 -160 b 226 -125 213 -140 217 -133 l 379 0 l 379 929 l 92 929 l 92 0 l 267 0 l 128 -112 b 67 -228 89 -144 67 -186 b 222 -347 67 -299 129 -347 z "},"į":{"ha":469,"x_min":0,"x_max":0,"o":"m 378 -347 l 378 -169 l 243 -169 b 213 -147 225 -169 213 -160 b 226 -125 213 -140 217 -133 l 379 0 l 379 929 l 92 929 l 92 0 l 267 0 l 128 -112 b 67 -228 89 -144 67 -186 b 222 -347 67 -299 129 -347 z "},"İ":{"ha":469,"x_min":0,"x_max":0,"o":"m 379 0 l 379 929 l 92 929 l 92 0 z m 340 1113 b 236 1203 340 1168 294 1203 b 133 1113 178 1203 133 1168 b 236 1022 133 1057 178 1022 b 340 1113 294 1022 340 1057 z "},"ı":{"ha":469,"x_min":0,"x_max":0,"o":"m 379 0 l 379 929 l 92 929 l 92 0 z "},"Ĳ":{"ha":1486,"x_min":0,"x_max":0,"o":"m 379 0 l 379 929 l 92 929 l 92 0 z m 1125 929 l 1125 400 b 833 242 1125 285 1047 242 l 672 242 l 485 0 l 833 0 b 1413 422 1219 0 1413 140 l 1413 929 z "},"ĳ":{"ha":1486,"x_min":0,"x_max":0,"o":"m 379 0 l 379 929 l 92 929 l 92 0 z m 1125 929 l 1125 400 b 833 242 1125 285 1047 242 l 672 242 l 485 0 l 833 0 b 1413 422 1219 0 1413 140 l 1413 929 z "},"Ķ":{"ha":1265,"x_min":0,"x_max":0,"o":"m 375 929 l 88 929 l 88 0 l 375 0 l 375 401 l 846 0 l 1258 0 l 669 489 l 1226 929 l 838 929 l 375 550 z m 575 -354 l 690 -43 l 476 -43 l 471 -354 z "},"ķ":{"ha":1265,"x_min":0,"x_max":0,"o":"m 375 929 l 88 929 l 88 0 l 375 0 l 375 401 l 846 0 l 1258 0 l 669 489 l 1226 929 l 838 929 l 375 550 z m 575 -354 l 690 -43 l 476 -43 l 471 -354 z "},"Ĺ":{"ha":1101,"x_min":0,"x_max":0,"o":"m 910 0 l 1094 242 l 375 242 l 375 929 l 88 929 l 88 0 z m 717 1043 l 717 1204 l 303 1113 l 303 993 z "},"ĺ":{"ha":1101,"x_min":0,"x_max":0,"o":"m 910 0 l 1094 242 l 375 242 l 375 929 l 88 929 l 88 0 z m 717 1043 l 717 1204 l 303 1113 l 303 993 z "},"Ļ":{"ha":1101,"x_min":0,"x_max":0,"o":"m 910 0 l 1094 242 l 375 242 l 375 929 l 88 929 l 88 0 z m 553 -354 l 668 -43 l 454 -43 l 449 -354 z "},"ļ":{"ha":1101,"x_min":0,"x_max":0,"o":"m 910 0 l 1094 242 l 375 242 l 375 929 l 88 929 l 88 0 z m 553 -354 l 668 -43 l 454 -43 l 449 -354 z "},"Ľ":{"ha":1101,"x_min":0,"x_max":0,"o":"m 910 0 l 1094 242 l 375 242 l 375 929 l 88 929 l 88 0 z m 899 557 l 1035 929 l 785 929 l 779 557 z "},"ľ":{"ha":1101,"x_min":0,"x_max":0,"o":"m 910 0 l 1094 242 l 375 242 l 375 929 l 88 929 l 88 0 z m 899 557 l 1035 929 l 785 929 l 779 557 z "},"Ł":{"ha":1101,"x_min":0,"x_max":0,"o":"m 375 929 l 88 929 l 88 0 l 908 0 l 1093 242 l 375 242 l 375 392 l 660 392 l 828 613 l 375 613 z "},"ł":{"ha":1101,"x_min":0,"x_max":0,"o":"m 375 929 l 88 929 l 88 0 l 908 0 l 1093 242 l 375 242 l 375 392 l 660 392 l 828 613 l 375 613 z "},"Ń":{"ha":1268,"x_min":0,"x_max":0,"o":"m 83 0 l 360 0 l 360 540 l 914 35 b 1029 -17 953 -1 986 -17 b 1186 158 1126 -17 1186 51 l 1186 929 l 911 929 l 911 388 l 354 896 b 240 944 317 931 283 944 b 83 769 143 944 83 878 z m 858 1043 l 858 1204 l 444 1113 l 444 993 z "},"ń":{"ha":1268,"x_min":0,"x_max":0,"o":"m 83 0 l 360 0 l 360 540 l 914 35 b 1029 -17 953 -1 986 -17 b 1186 158 1126 -17 1186 51 l 1186 929 l 911 929 l 911 388 l 354 896 b 240 944 317 931 283 944 b 83 769 143 944 83 878 z m 858 1043 l 858 1204 l 444 1113 l 444 993 z "},"Ņ":{"ha":1268,"x_min":0,"x_max":0,"o":"m 83 0 l 360 0 l 360 540 l 914 35 b 1029 -17 953 -1 986 -17 b 1186 158 1126 -17 1186 51 l 1186 929 l 911 929 l 911 388 l 354 896 b 240 944 317 931 283 944 b 83 769 143 944 83 878 z m 622 -354 l 738 -43 l 524 -43 l 518 -354 z "},"ņ":{"ha":1268,"x_min":0,"x_max":0,"o":"m 83 0 l 360 0 l 360 540 l 914 35 b 1029 -17 953 -1 986 -17 b 1186 158 1126 -17 1186 51 l 1186 929 l 911 929 l 911 388 l 354 896 b 240 944 317 931 283 944 b 83 769 143 944 83 878 z m 622 -354 l 738 -43 l 524 -43 l 518 -354 z "},"Ň":{"ha":1268,"x_min":0,"x_max":0,"o":"m 83 0 l 360 0 l 360 540 l 914 35 b 1029 -17 953 -1 986 -17 b 1186 158 1126 -17 1186 51 l 1186 929 l 911 929 l 911 388 l 354 896 b 240 944 317 931 283 944 b 83 769 143 944 83 878 z m 713 993 l 871 1204 l 732 1204 l 636 1069 l 540 1204 l 403 1204 l 557 993 z "},"ň":{"ha":1268,"x_min":0,"x_max":0,"o":"m 83 0 l 360 0 l 360 540 l 914 35 b 1029 -17 953 -1 986 -17 b 1186 158 1126 -17 1186 51 l 1186 929 l 911 929 l 911 388 l 354 896 b 240 944 317 931 283 944 b 83 769 143 944 83 878 z m 713 993 l 871 1204 l 732 1204 l 636 1069 l 540 1204 l 403 1204 l 557 993 z "},"Ŋ":{"ha":1268,"x_min":0,"x_max":0,"o":"m 911 929 l 911 397 l 354 896 b 239 944 315 931 282 944 b 83 769 143 944 83 878 l 83 0 l 360 0 l 360 532 l 910 42 b 607 -114 901 -71 821 -114 l 581 -114 l 393 -354 l 607 -354 b 1186 63 996 -354 1186 -217 l 1186 929 z "},"ŋ":{"ha":1268,"x_min":0,"x_max":0,"o":"m 911 929 l 911 397 l 354 896 b 239 944 315 931 282 944 b 83 769 143 944 83 878 l 83 0 l 360 0 l 360 532 l 910 42 b 607 -114 901 -71 821 -114 l 581 -114 l 393 -354 l 607 -354 b 1186 63 996 -354 1186 -217 l 1186 929 z "},"Ō":{"ha":1474,"x_min":0,"x_max":0,"o":"m 736 944 b 58 465 275 944 58 790 b 736 -15 58 139 276 -15 b 1417 465 1197 -15 1417 140 b 736 944 1417 790 1197 944 z m 944 1039 l 944 1160 l 531 1160 l 531 1039 z m 736 703 b 1129 465 1049 703 1129 654 b 736 226 1129 276 1047 226 b 344 465 428 226 344 276 b 736 703 344 653 426 703 z "},"ō":{"ha":1474,"x_min":0,"x_max":0,"o":"m 736 944 b 58 465 275 944 58 790 b 736 -15 58 139 276 -15 b 1417 465 1197 -15 1417 140 b 736 944 1417 790 1197 944 z m 944 1039 l 944 1160 l 531 1160 l 531 1039 z m 736 703 b 1129 465 1049 703 1129 654 b 736 226 1129 276 1047 226 b 344 465 428 226 344 276 b 736 703 344 653 426 703 z "},"Ő":{"ha":1474,"x_min":0,"x_max":0,"o":"m 736 944 b 58 465 275 944 58 790 b 736 -15 58 139 276 -15 b 1417 465 1197 -15 1417 140 b 736 944 1417 790 1197 944 z m 643 1007 l 781 1204 l 596 1204 l 526 1007 z m 897 1007 l 1033 1204 l 850 1204 l 781 1007 z m 736 703 b 1129 465 1049 703 1129 654 b 736 226 1129 276 1047 226 b 344 465 428 226 344 276 b 736 703 344 653 426 703 z "},"ő":{"ha":1474,"x_min":0,"x_max":0,"o":"m 736 944 b 58 465 275 944 58 790 b 736 -15 58 139 276 -15 b 1417 465 1197 -15 1417 140 b 736 944 1417 790 1197 944 z m 643 1007 l 781 1204 l 596 1204 l 526 1007 z m 897 1007 l 1033 1204 l 850 1204 l 781 1007 z m 736 703 b 1129 465 1049 703 1129 654 b 736 226 1129 276 1047 226 b 344 465 428 226 344 276 b 736 703 344 653 426 703 z "},"Œ":{"ha":2090,"x_min":0,"x_max":0,"o":"m 1288 688 l 1890 688 l 2076 929 l 1001 929 b 736 944 931 940 844 944 b 58 465 275 944 58 790 b 736 -15 58 139 276 -15 b 1001 0 844 -15 932 -11 l 1896 0 l 2079 242 l 1288 242 l 1288 363 l 1857 363 l 2024 568 l 1288 568 z m 1001 251 b 736 226 944 233 865 226 b 344 465 426 226 344 278 b 736 703 344 653 425 703 b 1001 678 861 703 944 696 z "},"œ":{"ha":2090,"x_min":0,"x_max":0,"o":"m 1288 688 l 1890 688 l 2076 929 l 1001 929 b 736 944 931 940 844 944 b 58 465 275 944 58 790 b 736 -15 58 139 276 -15 b 1001 0 844 -15 932 -11 l 1896 0 l 2079 242 l 1288 242 l 1288 363 l 1857 363 l 2024 568 l 1288 568 z m 1001 251 b 736 226 944 233 865 226 b 344 465 426 226 344 278 b 736 703 344 653 425 703 b 1001 678 861 703 944 696 z "},"Ŕ":{"ha":1421,"x_min":0,"x_max":0,"o":"m 1347 590 b 879 929 1347 803 1171 929 l 276 929 l 85 688 l 907 688 b 1060 579 1011 688 1060 654 b 908 479 1060 510 1014 479 l 85 479 l 85 0 l 371 0 l 371 247 l 792 247 l 1025 0 l 1404 0 l 1124 286 b 1347 590 1265 340 1347 446 z m 888 1043 l 888 1204 l 474 1113 l 474 993 z "},"ŕ":{"ha":1421,"x_min":0,"x_max":0,"o":"m 1347 590 b 879 929 1347 803 1171 929 l 276 929 l 85 688 l 907 688 b 1060 579 1011 688 1060 654 b 908 479 1060 510 1014 479 l 85 479 l 85 0 l 371 0 l 371 247 l 792 247 l 1025 0 l 1404 0 l 1124 286 b 1347 590 1265 340 1347 446 z m 888 1043 l 888 1204 l 474 1113 l 474 993 z "},"Ŗ":{"ha":1421,"x_min":0,"x_max":0,"o":"m 1347 590 b 879 929 1347 803 1171 929 l 276 929 l 85 688 l 907 688 b 1060 579 1011 688 1060 654 b 908 479 1060 510 1014 479 l 85 479 l 85 0 l 371 0 l 371 247 l 792 247 l 1025 0 l 1404 0 l 1124 286 b 1347 590 1265 340 1347 446 z m 651 -354 l 767 -43 l 553 -43 l 547 -354 z "},"ŗ":{"ha":1421,"x_min":0,"x_max":0,"o":"m 1347 590 b 879 929 1347 803 1171 929 l 276 929 l 85 688 l 907 688 b 1060 579 1011 688 1060 654 b 908 479 1060 510 1014 479 l 85 479 l 85 0 l 371 0 l 371 247 l 792 247 l 1025 0 l 1404 0 l 1124 286 b 1347 590 1265 340 1347 446 z m 651 -354 l 767 -43 l 553 -43 l 547 -354 z "},"Ř":{"ha":1421,"x_min":0,"x_max":0,"o":"m 1347 590 b 879 929 1347 803 1171 929 l 276 929 l 85 688 l 907 688 b 1060 579 1011 688 1060 654 b 908 479 1060 510 1014 479 l 85 479 l 85 0 l 371 0 l 371 247 l 792 247 l 1025 0 l 1404 0 l 1124 286 b 1347 590 1265 340 1347 446 z m 742 993 l 900 1204 l 761 1204 l 665 1069 l 569 1204 l 432 1204 l 586 993 z "},"ř":{"ha":1421,"x_min":0,"x_max":0,"o":"m 1347 590 b 879 929 1347 803 1171 929 l 276 929 l 85 688 l 907 688 b 1060 579 1011 688 1060 654 b 908 479 1060 510 1014 479 l 85 479 l 85 0 l 371 0 l 371 247 l 792 247 l 1025 0 l 1404 0 l 1124 286 b 1347 590 1265 340 1347 446 z m 742 993 l 900 1204 l 761 1204 l 665 1069 l 569 1204 l 432 1204 l 586 993 z "},"Ś":{"ha":1339,"x_min":0,"x_max":0,"o":"m 921 0 b 1296 297 1179 0 1296 93 b 943 567 1296 474 1174 567 l 436 567 b 349 628 376 567 349 586 b 436 688 349 668 376 688 l 1086 688 l 1271 929 l 458 929 b 67 642 196 929 67 833 b 424 363 67 465 197 363 l 926 363 b 1014 301 986 363 1014 344 b 929 242 1014 260 988 242 l 218 242 l 33 0 z m 889 1043 l 889 1204 l 475 1113 l 475 993 z "},"ś":{"ha":1339,"x_min":0,"x_max":0,"o":"m 921 0 b 1296 297 1179 0 1296 93 b 943 567 1296 474 1174 567 l 436 567 b 349 628 376 567 349 586 b 436 688 349 668 376 688 l 1086 688 l 1271 929 l 458 929 b 67 642 196 929 67 833 b 424 363 67 465 197 363 l 926 363 b 1014 301 986 363 1014 344 b 929 242 1014 260 988 242 l 218 242 l 33 0 z m 889 1043 l 889 1204 l 475 1113 l 475 993 z "},"Ş":{"ha":1339,"x_min":0,"x_max":0,"o":"m 921 0 b 1296 297 1179 0 1296 93 b 943 567 1296 474 1174 567 l 436 567 b 349 628 376 567 349 586 b 436 688 349 668 376 688 l 1086 688 l 1271 929 l 458 929 b 67 642 196 929 67 833 b 424 363 67 465 197 363 l 926 363 b 1014 301 986 363 1014 344 b 929 242 1014 260 988 242 l 218 242 l 33 0 z m 653 -354 l 768 -43 l 554 -43 l 549 -354 z "},"ş":{"ha":1339,"x_min":0,"x_max":0,"o":"m 921 0 b 1296 297 1179 0 1296 93 b 943 567 1296 474 1174 567 l 436 567 b 349 628 376 567 349 586 b 436 688 349 668 376 688 l 1086 688 l 1271 929 l 458 929 b 67 642 196 929 67 833 b 424 363 67 465 197 363 l 926 363 b 1014 301 986 363 1014 344 b 929 242 1014 260 988 242 l 218 242 l 33 0 z m 653 -354 l 768 -43 l 554 -43 l 549 -354 z "},"Š":{"ha":1339,"x_min":0,"x_max":0,"o":"m 921 0 b 1296 297 1179 0 1296 93 b 943 567 1296 474 1174 567 l 436 567 b 349 628 376 567 349 586 b 436 688 349 668 376 688 l 1086 688 l 1271 929 l 458 929 b 67 642 196 929 67 833 b 424 363 67 465 197 363 l 926 363 b 1014 301 986 363 1014 344 b 929 242 1014 260 988 242 l 218 242 l 33 0 z m 743 993 l 901 1204 l 763 1204 l 667 1069 l 571 1204 l 433 1204 l 588 993 z "},"š":{"ha":1339,"x_min":0,"x_max":0,"o":"m 921 0 b 1296 297 1179 0 1296 93 b 943 567 1296 474 1174 567 l 436 567 b 349 628 376 567 349 586 b 436 688 349 668 376 688 l 1086 688 l 1271 929 l 458 929 b 67 642 196 929 67 833 b 424 363 67 465 197 363 l 926 363 b 1014 301 986 363 1014 344 b 929 242 1014 260 988 242 l 218 242 l 33 0 z m 743 993 l 901 1204 l 763 1204 l 667 1069 l 571 1204 l 433 1204 l 588 993 z "},"Ţ":{"ha":1242,"x_min":0,"x_max":0,"o":"m 753 0 l 753 688 l 1046 688 l 1235 929 l 196 929 l 7 688 l 467 688 l 467 0 z m 601 -354 l 717 -43 l 503 -43 l 497 -354 z "},"ţ":{"ha":1242,"x_min":0,"x_max":0,"o":"m 753 0 l 753 688 l 1046 688 l 1235 929 l 196 929 l 7 688 l 467 688 l 467 0 z m 601 -354 l 717 -43 l 503 -43 l 497 -354 z "},"Ť":{"ha":1242,"x_min":0,"x_max":0,"o":"m 753 0 l 753 688 l 1046 688 l 1235 929 l 196 929 l 7 688 l 467 688 l 467 0 z m 692 993 l 850 1204 l 711 1204 l 615 1069 l 519 1204 l 382 1204 l 536 993 z "},"ť":{"ha":1242,"x_min":0,"x_max":0,"o":"m 753 0 l 753 688 l 1046 688 l 1235 929 l 196 929 l 7 688 l 467 688 l 467 0 z m 692 993 l 850 1204 l 711 1204 l 615 1069 l 519 1204 l 382 1204 l 536 993 z "},"Ŧ":{"ha":1242,"x_min":0,"x_max":0,"o":"m 467 0 l 753 0 l 753 376 l 831 376 l 975 564 l 753 564 l 753 688 l 1056 688 l 1242 929 l 186 929 l 0 688 l 467 688 l 467 564 l 397 564 l 249 376 l 467 376 z "},"ŧ":{"ha":1242,"x_min":0,"x_max":0,"o":"m 467 0 l 753 0 l 753 376 l 831 376 l 975 564 l 753 564 l 753 688 l 1056 688 l 1242 929 l 186 929 l 0 688 l 467 688 l 467 564 l 397 564 l 249 376 l 467 376 z "},"Ũ":{"ha":1369,"x_min":0,"x_max":0,"o":"m 1007 406 b 688 226 1007 274 925 226 b 363 406 447 226 363 274 l 363 929 l 75 929 l 75 406 b 688 -15 75 114 265 -15 b 1293 406 1106 -15 1293 115 l 1293 929 l 1007 929 z m 892 1039 l 892 1160 l 478 1160 l 478 1039 z "},"ũ":{"ha":1369,"x_min":0,"x_max":0,"o":"m 1007 406 b 688 226 1007 274 925 226 b 363 406 447 226 363 274 l 363 929 l 75 929 l 75 406 b 688 -15 75 114 265 -15 b 1293 406 1106 -15 1293 115 l 1293 929 l 1007 929 z m 892 1039 l 892 1160 l 478 1160 l 478 1039 z "},"Ū":{"ha":1369,"x_min":0,"x_max":0,"o":"m 1007 406 b 688 226 1007 274 925 226 b 363 406 447 226 363 274 l 363 929 l 75 929 l 75 406 b 688 -15 75 114 265 -15 b 1293 406 1106 -15 1293 115 l 1293 929 l 1007 929 z m 892 1039 l 892 1160 l 478 1160 l 478 1039 z "},"ū":{"ha":1369,"x_min":0,"x_max":0,"o":"m 1007 406 b 688 226 1007 274 925 226 b 363 406 447 226 363 274 l 363 929 l 75 929 l 75 406 b 688 -15 75 114 265 -15 b 1293 406 1106 -15 1293 115 l 1293 929 l 1007 929 z m 892 1039 l 892 1160 l 478 1160 l 478 1039 z "},"Ů":{"ha":1369,"x_min":0,"x_max":0,"o":"m 1007 406 b 688 226 1007 274 925 226 b 363 406 447 226 363 274 l 363 929 l 75 929 l 75 406 b 688 -15 75 114 265 -15 b 1293 406 1106 -15 1293 115 l 1293 929 l 1007 929 z m 628 1313 b 485 1196 532 1313 485 1274 l 485 1108 b 628 993 485 1031 532 993 l 740 993 b 885 1108 838 993 885 1031 l 885 1196 b 740 1313 885 1274 836 1313 z m 629 1210 l 739 1210 b 772 1183 764 1210 772 1203 l 772 1125 b 740 1094 772 1103 764 1094 l 629 1094 b 596 1125 607 1094 596 1103 l 596 1183 b 629 1210 596 1203 607 1210 z "},"ů":{"ha":1369,"x_min":0,"x_max":0,"o":"m 1007 406 b 688 226 1007 274 925 226 b 363 406 447 226 363 274 l 363 929 l 75 929 l 75 406 b 688 -15 75 114 265 -15 b 1293 406 1106 -15 1293 115 l 1293 929 l 1007 929 z m 628 1313 b 485 1196 532 1313 485 1274 l 485 1108 b 628 993 485 1031 532 993 l 740 993 b 885 1108 838 993 885 1031 l 885 1196 b 740 1313 885 1274 836 1313 z m 629 1210 l 739 1210 b 772 1183 764 1210 772 1203 l 772 1125 b 740 1094 772 1103 764 1094 l 629 1094 b 596 1125 607 1094 596 1103 l 596 1183 b 629 1210 596 1203 607 1210 z "},"Ű":{"ha":1369,"x_min":0,"x_max":0,"o":"m 1007 406 b 688 226 1007 274 925 226 b 363 406 447 226 363 274 l 363 929 l 75 929 l 75 406 b 688 -15 75 114 265 -15 b 1293 406 1106 -15 1293 115 l 1293 929 l 1007 929 z m 590 1007 l 728 1204 l 543 1204 l 474 1007 z m 844 1007 l 981 1204 l 797 1204 l 728 1007 z "},"ű":{"ha":1369,"x_min":0,"x_max":0,"o":"m 1007 406 b 688 226 1007 274 925 226 b 363 406 447 226 363 274 l 363 929 l 75 929 l 75 406 b 688 -15 75 114 265 -15 b 1293 406 1106 -15 1293 115 l 1293 929 l 1007 929 z m 590 1007 l 728 1204 l 543 1204 l 474 1007 z m 844 1007 l 981 1204 l 797 1204 l 728 1007 z "},"Ų":{"ha":1369,"x_min":0,"x_max":0,"o":"m 813 -347 l 813 -169 l 678 -169 b 647 -147 660 -169 647 -160 b 661 -125 647 -140 651 -133 l 799 -12 b 1293 406 1139 11 1293 143 l 1293 929 l 1007 929 l 1007 406 b 688 226 1007 274 925 226 b 363 406 447 226 363 274 l 363 929 l 75 929 l 75 406 b 682 -15 75 115 264 -14 l 564 -112 b 501 -228 524 -147 501 -189 b 657 -347 501 -306 564 -347 z "},"ų":{"ha":1369,"x_min":0,"x_max":0,"o":"m 813 -347 l 813 -169 l 678 -169 b 647 -147 660 -169 647 -160 b 661 -125 647 -140 651 -133 l 799 -12 b 1293 406 1139 11 1293 143 l 1293 929 l 1007 929 l 1007 406 b 688 226 1007 274 925 226 b 363 406 447 226 363 274 l 363 929 l 75 929 l 75 406 b 682 -15 75 115 264 -14 l 564 -112 b 501 -228 524 -147 501 -189 b 657 -347 501 -306 564 -347 z "},"Ŵ":{"ha":1749,"x_min":0,"x_max":0,"o":"m 18 929 l 253 114 b 417 -15 276 32 336 -15 b 572 82 485 -15 538 18 l 872 647 l 1168 82 b 1322 -15 1203 18 1256 -15 b 1488 114 1403 -15 1463 32 l 1729 929 l 1446 929 l 1290 374 l 1047 840 b 878 944 1006 918 961 944 b 704 840 792 944 747 918 l 458 375 l 306 929 z m 796 1204 l 639 993 l 786 993 l 878 1121 l 968 993 l 1115 993 l 961 1204 z "},"ŵ":{"ha":1749,"x_min":0,"x_max":0,"o":"m 18 929 l 253 114 b 417 -15 276 32 336 -15 b 572 82 485 -15 538 18 l 872 647 l 1168 82 b 1322 -15 1203 18 1256 -15 b 1488 114 1403 -15 1463 32 l 1729 929 l 1446 929 l 1290 374 l 1047 840 b 878 944 1006 918 961 944 b 704 840 792 944 747 918 l 458 375 l 306 929 z m 796 1204 l 639 993 l 786 993 l 878 1121 l 968 993 l 1115 993 l 961 1204 z "},"Ŷ":{"ha":1428,"x_min":0,"x_max":0,"o":"m 865 0 l 865 308 l 1417 929 l 1065 929 l 726 547 l 379 929 l 11 929 l 578 308 l 578 0 z m 644 1204 l 488 993 l 635 993 l 726 1121 l 817 993 l 964 993 l 810 1204 z "},"ŷ":{"ha":1428,"x_min":0,"x_max":0,"o":"m 865 0 l 865 308 l 1417 929 l 1065 929 l 726 547 l 379 929 l 11 929 l 578 308 l 578 0 z m 644 1204 l 488 993 l 635 993 l 726 1121 l 817 993 l 964 993 l 810 1204 z "},"Ÿ":{"ha":1428,"x_min":0,"x_max":0,"o":"m 865 0 l 865 308 l 1417 929 l 1065 929 l 726 547 l 379 929 l 11 929 l 578 308 l 578 0 z m 683 1113 b 581 1203 683 1168 639 1203 b 475 1113 521 1203 475 1168 b 581 1022 475 1057 521 1022 b 683 1113 639 1022 683 1057 z m 976 1113 b 872 1203 976 1168 933 1203 b 769 1113 814 1203 769 1168 b 872 1022 769 1057 814 1022 b 976 1113 933 1022 976 1057 z "},"Ź":{"ha":1247,"x_min":0,"x_max":0,"o":"m 200 929 l 17 688 l 714 688 l 114 231 b 185 0 1 146 46 0 l 1063 0 l 1236 242 l 528 242 l 1125 699 b 1054 929 1238 783 1192 929 z m 847 1043 l 847 1204 l 433 1113 l 433 993 z "},"ź":{"ha":1247,"x_min":0,"x_max":0,"o":"m 200 929 l 17 688 l 714 688 l 114 231 b 185 0 1 146 46 0 l 1063 0 l 1236 242 l 528 242 l 1125 699 b 1054 929 1238 783 1192 929 z m 847 1043 l 847 1204 l 433 1113 l 433 993 z "},"Ż":{"ha":1247,"x_min":0,"x_max":0,"o":"m 200 929 l 17 688 l 714 688 l 114 231 b 185 0 1 146 46 0 l 1063 0 l 1236 242 l 528 242 l 1125 699 b 1054 929 1238 783 1192 929 z m 729 1113 b 625 1203 729 1168 683 1203 b 522 1113 567 1203 522 1168 b 625 1022 522 1057 567 1022 b 729 1113 683 1022 729 1057 z "},"ż":{"ha":1247,"x_min":0,"x_max":0,"o":"m 200 929 l 17 688 l 714 688 l 114 231 b 185 0 1 146 46 0 l 1063 0 l 1236 242 l 528 242 l 1125 699 b 1054 929 1238 783 1192 929 z m 729 1113 b 625 1203 729 1168 683 1203 b 522 1113 567 1203 522 1168 b 625 1022 522 1057 567 1022 b 729 1113 683 1022 729 1057 z "},"Ž":{"ha":1247,"x_min":0,"x_max":0,"o":"m 200 929 l 17 688 l 714 688 l 114 231 b 185 0 1 146 46 0 l 1063 0 l 1236 242 l 528 242 l 1125 699 b 1054 929 1238 783 1192 929 z m 701 993 l 860 1204 l 721 1204 l 625 1069 l 529 1204 l 392 1204 l 546 993 z "},"ž":{"ha":1247,"x_min":0,"x_max":0,"o":"m 200 929 l 17 688 l 714 688 l 114 231 b 185 0 1 146 46 0 l 1063 0 l 1236 242 l 528 242 l 1125 699 b 1054 929 1238 783 1192 929 z m 701 993 l 860 1204 l 721 1204 l 625 1069 l 529 1204 l 392 1204 l 546 993 z "},"Ɔ":{"ha":1281,"x_min":0,"x_max":0,"o":"m 196 929 l 13 688 l 663 688 b 936 456 835 688 936 601 b 663 242 936 315 842 242 l 196 242 l 13 0 l 663 0 b 1222 456 990 0 1222 189 b 663 929 1222 726 983 929 z "},"Ǝ":{"ha":1176,"x_min":0,"x_max":0,"o":"m 801 242 l 199 242 l 13 0 l 1089 0 l 1089 929 l 194 929 l 11 688 l 801 688 l 801 567 l 233 567 l 67 361 l 801 361 z "},"Ə":{"ha":1349,"x_min":0,"x_max":0,"o":"m 776 688 b 988 567 882 688 954 646 l 407 567 b 58 297 188 567 58 467 b 621 -15 58 90 250 -15 b 1290 435 1068 -15 1290 136 b 732 929 1290 732 1068 929 l 131 929 l 317 688 z m 993 353 b 593 226 954 258 840 226 b 332 306 401 226 332 249 b 422 353 332 339 356 353 z "},"Ɛ":{"ha":1267,"x_min":0,"x_max":0,"o":"m 1071 0 l 1253 242 l 415 242 b 344 301 369 242 344 263 b 414 364 344 342 369 364 l 817 364 l 975 568 l 417 568 b 349 628 369 568 349 588 b 415 688 349 668 371 688 l 1022 688 l 1207 929 l 421 929 b 75 671 192 929 75 842 b 169 471 75 585 106 518 b 58 257 94 422 58 351 b 424 0 58 86 181 0 z "},"Ƒ":{"ha":1274,"x_min":0,"x_max":0,"o":"m 510 688 l 1079 688 l 1264 929 l 224 929 l 224 47 b -68 -111 224 -68 146 -111 l -90 -111 l -278 -353 l -68 -353 b 510 69 318 -353 510 -212 l 510 333 l 1032 333 l 1213 563 l 510 563 z "},"ƒ":{"ha":1107,"x_min":0,"x_max":0,"o":"m 806 336 l 946 519 l 692 519 l 692 521 b 863 688 692 642 739 688 l 919 688 l 1107 929 l 863 929 b 404 519 556 929 408 796 l 264 519 l 119 336 l 404 336 l 404 46 b 232 -112 404 -67 354 -112 l 188 -112 l 0 -354 l 232 -354 b 692 68 544 -354 692 -217 l 692 336 z "},"Ɲ":{"ha":1268,"x_min":0,"x_max":0,"o":"m 83 0 l 83 -47 b -49 -122 83 -100 44 -122 l -168 -122 l -340 -354 l -43 -354 b 360 -47 207 -354 360 -237 l 360 540 l 914 35 b 1029 -17 953 -1 986 -17 b 1186 158 1126 -17 1186 51 l 1186 929 l 911 929 l 911 388 l 354 896 b 240 944 317 931 283 944 b 83 769 143 944 83 878 z "},"Ơ":{"ha":1417,"x_min":0,"x_max":0,"o":"m 736 944 b 58 465 275 944 58 790 b 736 -15 58 139 276 -15 b 1417 465 1197 -15 1417 140 b 1313 772 1417 593 1382 696 b 1524 1001 1456 799 1524 876 l 1524 1147 l 1236 1147 l 1236 978 b 1164 929 1236 944 1214 929 l 964 929 b 736 944 896 939 819 944 z m 736 703 b 1129 465 1049 703 1129 654 b 736 226 1129 276 1047 226 b 344 465 428 226 344 276 b 736 703 344 653 426 703 z "},"ơ":{"ha":1417,"x_min":0,"x_max":0,"o":"m 736 944 b 58 465 275 944 58 790 b 736 -15 58 139 276 -15 b 1417 465 1197 -15 1417 140 b 1313 772 1417 593 1382 696 b 1524 1001 1456 799 1524 876 l 1524 1147 l 1236 1147 l 1236 978 b 1164 929 1236 944 1214 929 l 964 929 b 736 944 896 939 819 944 z m 736 703 b 1129 465 1049 703 1129 654 b 736 226 1129 276 1047 226 b 344 465 428 226 344 276 b 736 703 344 653 426 703 z "},"Ư":{"ha":1526,"x_min":0,"x_max":0,"o":"m 1007 406 b 688 226 1007 274 925 226 b 363 406 447 226 363 274 l 363 929 l 75 929 l 75 406 b 688 -15 75 114 265 -15 b 1293 406 1106 -15 1293 115 l 1293 768 b 1526 1001 1451 790 1526 869 l 1526 1147 l 1240 1147 l 1240 978 b 1165 929 1240 944 1217 929 l 1007 929 z "},"ư":{"ha":1526,"x_min":0,"x_max":0,"o":"m 1007 406 b 688 226 1007 274 925 226 b 363 406 447 226 363 274 l 363 929 l 75 929 l 75 406 b 688 -15 75 114 265 -15 b 1293 406 1106 -15 1293 115 l 1293 768 b 1526 1001 1451 790 1526 869 l 1526 1147 l 1240 1147 l 1240 978 b 1165 929 1240 944 1217 929 l 1007 929 z "},"Ʒ":{"ha":1290,"x_min":0,"x_max":0,"o":"m 200 929 l 15 688 l 715 688 l 235 322 b 306 97 124 238 167 97 l 821 97 b 946 -7 897 97 946 57 b 821 -112 946 -71 897 -112 l 233 -112 l 44 -354 l 783 -354 b 1232 -8 1060 -354 1232 -221 b 782 339 1232 206 1058 339 l 656 339 l 1126 699 b 1056 929 1239 783 1193 929 z "},"ǝ":{"ha":1176,"x_min":0,"x_max":0,"o":"m 801 242 l 199 242 l 13 0 l 1089 0 l 1089 929 l 194 929 l 11 688 l 801 688 l 801 567 l 233 567 l 67 361 l 801 361 z "},"Ǧ":{"ha":1332,"x_min":0,"x_max":0,"o":"m 1256 0 l 1256 567 l 676 567 l 499 365 l 968 365 l 968 242 l 618 242 b 344 461 454 242 344 329 b 618 688 344 592 463 688 l 1096 688 l 1282 929 l 618 929 b 58 474 290 929 58 740 b 618 0 58 203 297 0 z m 818 993 l 976 1204 l 838 1204 l 742 1069 l 646 1204 l 508 1204 l 663 993 z "},"ǧ":{"ha":1332,"x_min":0,"x_max":0,"o":"m 1256 0 l 1256 567 l 676 567 l 499 365 l 968 365 l 968 242 l 618 242 b 344 461 454 242 344 329 b 618 688 344 592 463 688 l 1096 688 l 1282 929 l 618 929 b 58 474 290 929 58 740 b 618 0 58 203 297 0 z m 818 993 l 976 1204 l 838 1204 l 742 1069 l 646 1204 l 508 1204 l 663 993 z "},"Ǯ":{"ha":1290,"x_min":0,"x_max":0,"o":"m 200 929 l 15 688 l 715 688 l 235 322 b 306 97 124 238 167 97 l 821 97 b 946 -7 897 97 946 57 b 821 -112 946 -71 897 -112 l 233 -112 l 44 -354 l 783 -354 b 1232 -8 1060 -354 1232 -221 b 782 339 1232 206 1058 339 l 656 339 l 1126 699 b 1056 929 1239 783 1193 929 z m 731 993 l 889 1204 l 750 1204 l 654 1069 l 558 1204 l 421 1204 l 575 993 z "},"ǯ":{"ha":1290,"x_min":0,"x_max":0,"o":"m 200 929 l 15 688 l 715 688 l 235 322 b 306 97 124 238 167 97 l 821 97 b 946 -7 897 97 946 57 b 821 -112 946 -71 897 -112 l 233 -112 l 44 -354 l 783 -354 b 1232 -8 1060 -354 1232 -221 b 782 339 1232 206 1058 339 l 656 339 l 1126 699 b 1056 929 1239 783 1193 929 z m 731 993 l 889 1204 l 750 1204 l 654 1069 l 558 1204 l 421 1204 l 575 993 z "},"Ǵ":{"ha":1332,"x_min":0,"x_max":0,"o":"m 1256 0 l 1256 567 l 676 567 l 499 365 l 968 365 l 968 242 l 618 242 b 344 461 454 242 344 329 b 618 688 344 592 463 688 l 1096 688 l 1282 929 l 618 929 b 58 474 290 929 58 740 b 618 0 58 203 297 0 z m 964 1043 l 964 1204 l 550 1113 l 550 993 z "},"ǵ":{"ha":1332,"x_min":0,"x_max":0,"o":"m 1256 0 l 1256 567 l 676 567 l 499 365 l 968 365 l 968 242 l 618 242 b 344 461 454 242 344 329 b 618 688 344 592 463 688 l 1096 688 l 1282 929 l 618 929 b 58 474 290 929 58 740 b 618 0 58 203 297 0 z m 964 1043 l 964 1204 l 550 1113 l 550 993 z "},"Ǹ":{"ha":1268,"x_min":0,"x_max":0,"o":"m 83 0 l 360 0 l 360 540 l 914 35 b 1029 -17 953 -1 986 -17 b 1186 158 1126 -17 1186 51 l 1186 929 l 911 929 l 911 388 l 354 896 b 240 944 317 931 283 944 b 83 769 143 944 83 878 z m 826 993 l 826 1113 l 413 1204 l 413 1043 z "},"ǹ":{"ha":1268,"x_min":0,"x_max":0,"o":"m 83 0 l 360 0 l 360 540 l 914 35 b 1029 -17 953 -1 986 -17 b 1186 158 1126 -17 1186 51 l 1186 929 l 911 929 l 911 388 l 354 896 b 240 944 317 931 283 944 b 83 769 143 944 83 878 z m 826 993 l 826 1113 l 413 1204 l 413 1043 z "},"Ș":{"ha":1339,"x_min":0,"x_max":0,"o":"m 921 0 b 1296 297 1179 0 1296 93 b 943 567 1296 474 1174 567 l 436 567 b 349 628 376 567 349 586 b 436 688 349 668 376 688 l 1086 688 l 1271 929 l 458 929 b 67 642 196 929 67 833 b 424 363 67 465 197 363 l 926 363 b 1014 301 986 363 1014 344 b 929 242 1014 260 988 242 l 218 242 l 33 0 z m 653 -354 l 768 -43 l 554 -43 l 549 -354 z "},"ș":{"ha":1339,"x_min":0,"x_max":0,"o":"m 921 0 b 1296 297 1179 0 1296 93 b 943 567 1296 474 1174 567 l 436 567 b 349 628 376 567 349 586 b 436 688 349 668 376 688 l 1086 688 l 1271 929 l 458 929 b 67 642 196 929 67 833 b 424 363 67 465 197 363 l 926 363 b 1014 301 986 363 1014 344 b 929 242 1014 260 988 242 l 218 242 l 33 0 z m 653 -354 l 768 -43 l 554 -43 l 549 -354 z "},"Ț":{"ha":1242,"x_min":0,"x_max":0,"o":"m 753 0 l 753 688 l 1046 688 l 1235 929 l 196 929 l 7 688 l 467 688 l 467 0 z m 601 -354 l 717 -43 l 503 -43 l 497 -354 z "},"ț":{"ha":1242,"x_min":0,"x_max":0,"o":"m 753 0 l 753 688 l 1046 688 l 1235 929 l 196 929 l 7 688 l 467 688 l 467 0 z m 601 -354 l 717 -43 l 503 -43 l 497 -354 z "},"Ɂ":{"ha":1031,"x_min":0,"x_max":0,"o":"m 676 363 b 996 636 878 363 996 464 b 596 929 996 826 854 929 l 206 929 l 17 688 l 617 688 b 710 622 679 688 710 667 b 619 561 710 579 682 561 l 504 561 b 274 313 365 561 274 463 l 274 0 l 560 0 l 560 279 b 624 363 560 333 582 363 z "},"ɂ":{"ha":1031,"x_min":0,"x_max":0,"o":"m 676 363 b 996 636 878 363 996 464 b 596 929 996 826 854 929 l 206 929 l 17 688 l 617 688 b 710 622 679 688 710 667 b 619 561 710 579 682 561 l 504 561 b 274 313 365 561 274 463 l 274 0 l 560 0 l 560 279 b 624 363 560 333 582 363 z "},"Ɍ":{"ha":1638,"x_min":0,"x_max":0,"o":"m 11 247 l 317 247 l 317 0 l 603 0 l 603 247 l 1024 247 l 1257 0 l 1636 0 l 1356 286 b 1579 590 1497 340 1579 446 b 1111 929 1579 803 1403 929 l 508 929 l 317 688 l 1139 688 b 1292 579 1243 688 1292 654 b 1140 479 1292 510 1246 479 l 194 479 z "},"ɍ":{"ha":1638,"x_min":0,"x_max":0,"o":"m 11 247 l 317 247 l 317 0 l 603 0 l 603 247 l 1024 247 l 1257 0 l 1636 0 l 1356 286 b 1579 590 1497 340 1579 446 b 1111 929 1579 803 1403 929 l 508 929 l 317 688 l 1139 688 b 1292 579 1243 688 1292 654 b 1140 479 1292 510 1246 479 l 194 479 z "},"ɔ":{"ha":1281,"x_min":0,"x_max":0,"o":"m 196 929 l 13 688 l 663 688 b 936 456 835 688 936 601 b 663 242 936 315 842 242 l 196 242 l 13 0 l 663 0 b 1222 456 990 0 1222 189 b 663 929 1222 726 983 929 z "},"ɘ":{"ha":1176,"x_min":0,"x_max":0,"o":"m 801 242 l 199 242 l 13 0 l 1089 0 l 1089 929 l 194 929 l 11 688 l 801 688 l 801 567 l 233 567 l 67 361 l 801 361 z "},"ə":{"ha":1349,"x_min":0,"x_max":0,"o":"m 776 688 b 988 567 882 688 954 646 l 407 567 b 58 297 188 567 58 467 b 621 -15 58 90 250 -15 b 1290 435 1068 -15 1290 136 b 732 929 1290 732 1068 929 l 131 929 l 317 688 z m 993 353 b 593 226 954 258 840 226 b 332 306 401 226 332 249 b 422 353 332 339 356 353 z "},"ɛ":{"ha":1267,"x_min":0,"x_max":0,"o":"m 1071 0 l 1253 242 l 415 242 b 344 301 369 242 344 263 b 414 364 344 342 369 364 l 817 364 l 975 568 l 417 568 b 349 628 369 568 349 588 b 415 688 349 668 371 688 l 1022 688 l 1207 929 l 421 929 b 75 671 192 929 75 842 b 169 471 75 585 106 518 b 58 257 94 422 58 351 b 424 0 58 86 181 0 z "},"ɲ":{"ha":1268,"x_min":0,"x_max":0,"o":"m 83 769 l 83 -47 b -49 -122 83 -100 44 -122 l -168 -122 l -340 -354 l -43 -354 b 360 -47 207 -354 360 -237 l 360 540 l 914 35 b 1029 -17 953 -1 986 -17 b 1186 158 1126 -17 1186 51 l 1186 929 l 911 929 l 911 388 l 354 896 b 240 944 317 931 283 944 b 83 769 143 944 83 878 z "},"ʒ":{"ha":1290,"x_min":0,"x_max":0,"o":"m 200 929 l 15 688 l 715 688 l 235 322 b 306 97 124 238 167 97 l 821 97 b 946 -7 897 97 946 57 b 821 -112 946 -71 897 -112 l 233 -112 l 44 -354 l 783 -354 b 1232 -8 1060 -354 1232 -221 b 782 339 1232 206 1058 339 l 656 339 l 1126 699 b 1056 929 1239 783 1193 929 z "},"ʔ":{"ha":1031,"x_min":0,"x_max":0,"o":"m 676 363 b 996 636 878 363 996 464 b 596 929 996 826 854 929 l 206 929 l 17 688 l 617 688 b 710 622 679 688 710 667 b 619 561 710 579 682 561 l 504 561 b 274 313 365 561 274 463 l 274 0 l 560 0 l 560 279 b 624 363 560 333 582 363 z "},"ʼ":{"ha":303,"x_min":0,"x_max":0,"o":"m 144 557 l 281 929 l 31 929 l 25 557 z "},"ˆ":{"ha":593,"x_min":0,"x_max":0,"o":"m 215 1204 l 58 993 l 206 993 l 297 1121 l 388 993 l 535 993 l 381 1204 z "},"ˇ":{"ha":583,"x_min":0,"x_max":0,"o":"m 367 993 l 525 1204 l 386 1204 l 290 1069 l 194 1204 l 57 1204 l 211 993 z "},"˘":{"ha":565,"x_min":0,"x_max":0,"o":"m 58 1204 b 242 993 58 1085 138 993 l 325 993 b 507 1204 428 993 507 1083 l 363 1204 b 299 1086 363 1129 339 1086 l 275 1086 b 201 1204 229 1086 201 1132 z "},"˙":{"ha":324,"x_min":0,"x_max":0,"o":"m 265 1113 b 161 1203 265 1168 219 1203 b 58 1113 103 1203 58 1168 b 161 1022 58 1057 103 1022 b 265 1113 219 1022 265 1057 z "},"˚":{"ha":517,"x_min":0,"x_max":0,"o":"m 201 1313 b 58 1196 106 1313 58 1274 l 58 1108 b 201 993 58 1031 106 993 l 314 993 b 458 1108 411 993 458 1031 l 458 1196 b 314 1313 458 1274 410 1313 z m 203 1210 l 313 1210 b 346 1183 338 1210 346 1203 l 346 1125 b 314 1094 346 1103 338 1094 l 203 1094 b 169 1125 181 1094 169 1103 l 169 1183 b 203 1210 169 1203 181 1210 z "},"˛":{"ha":428,"x_min":0,"x_max":0,"o":"m 368 -347 l 368 -169 l 233 -169 b 203 -147 215 -169 203 -160 b 217 -125 203 -140 207 -133 l 368 0 l 257 0 l 119 -112 b 57 -228 79 -147 57 -189 b 213 -347 57 -306 119 -347 z "},"˜":{"ha":531,"x_min":0,"x_max":0,"o":"m 471 1039 l 471 1160 l 57 1160 l 57 1039 z "},"˝":{"ha":624,"x_min":0,"x_max":0,"o":"m 175 1007 l 313 1204 l 128 1204 l 58 1007 z m 429 1007 l 565 1204 l 382 1204 l 313 1007 z "},"̀":{"ha":0,"x_min":0,"x_max":0,"o":"m -546 993 l -546 1113 l -960 1204 l -960 1043 z "},"́":{"ha":0,"x_min":0,"x_max":0,"o":"m -514 1043 l -514 1204 l -928 1113 l -928 993 z "},"̂":{"ha":0,"x_min":0,"x_max":0,"o":"m -818 1204 l -975 993 l -828 993 l -736 1121 l -646 993 l -499 993 l -653 1204 z "},"̃":{"ha":0,"x_min":0,"x_max":0,"o":"m -529 1039 l -529 1160 l -943 1160 l -943 1039 z "},"̄":{"ha":0,"x_min":0,"x_max":0,"o":"m -529 1039 l -529 1160 l -943 1160 l -943 1039 z "},"̆":{"ha":0,"x_min":0,"x_max":0,"o":"m -960 1204 b -776 993 -960 1085 -881 993 l -693 993 b -511 1204 -590 993 -511 1083 l -656 1204 b -719 1086 -656 1129 -679 1086 l -743 1086 b -817 1204 -789 1086 -817 1132 z "},"̇":{"ha":0,"x_min":0,"x_max":0,"o":"m -632 1113 b -736 1203 -632 1168 -678 1203 b -839 1113 -794 1203 -839 1168 b -736 1022 -839 1057 -794 1022 b -632 1113 -678 1022 -632 1057 z "},"̈":{"ha":0,"x_min":0,"x_max":0,"o":"m -779 1113 b -882 1203 -779 1168 -824 1203 b -987 1113 -942 1203 -987 1168 b -882 1022 -987 1057 -942 1022 b -779 1113 -824 1022 -779 1057 z m -486 1113 b -590 1203 -486 1168 -529 1203 b -693 1113 -649 1203 -693 1168 b -590 1022 -693 1057 -649 1022 b -486 1113 -529 1022 -486 1057 z "},"̉":{"ha":0,"x_min":0,"x_max":0,"o":"m -624 994 b -415 1140 -481 994 -415 1040 b -640 1313 -415 1251 -494 1313 l -782 1313 l -897 1164 l -633 1164 b -589 1132 -601 1164 -589 1154 b -633 1103 -589 1111 -600 1103 l -681 1103 b -803 990 -761 1103 -803 1064 l -803 969 l -681 969 l -681 978 b -664 994 -681 989 -675 994 z "},"̊":{"ha":0,"x_min":0,"x_max":0,"o":"m -793 1313 b -936 1196 -889 1313 -936 1274 l -936 1108 b -793 993 -936 1031 -889 993 l -681 993 b -536 1108 -583 993 -536 1031 l -536 1196 b -681 1313 -536 1274 -585 1313 z m -792 1210 l -682 1210 b -649 1183 -657 1210 -649 1203 l -649 1125 b -681 1094 -649 1103 -657 1094 l -792 1094 b -825 1125 -814 1094 -825 1103 l -825 1183 b -792 1210 -825 1203 -814 1210 z "},"̋":{"ha":0,"x_min":0,"x_max":0,"o":"m -831 1007 l -693 1204 l -878 1204 l -947 1007 z m -576 1007 l -440 1204 l -624 1204 l -693 1007 z "},"̌":{"ha":0,"x_min":0,"x_max":0,"o":"m -660 993 l -501 1204 l -640 1204 l -736 1069 l -832 1204 l -969 1204 l -815 993 z "},"̓":{"ha":0,"x_min":0,"x_max":0,"o":"m -737 1299 l -851 988 l -637 988 l -632 1299 z "},"̛":{"ha":85,"x_min":0,"x_max":0,"o":"m -249 761 b 85 1001 -21 761 85 844 l 85 1147 l -201 1147 l -201 978 b -275 929 -201 944 -225 929 l -636 929 l -429 761 z "},"̣":{"ha":0,"x_min":0,"x_max":0,"o":"m -632 -183 b -736 -93 -632 -128 -678 -93 b -839 -183 -794 -93 -839 -128 b -736 -274 -839 -239 -794 -274 b -632 -183 -678 -274 -632 -239 z "},"̦":{"ha":0,"x_min":0,"x_max":0,"o":"m -750 -354 l -635 -43 l -849 -43 l -854 -354 z "},"̧":{"ha":0,"x_min":0,"x_max":0,"o":"m -750 -354 l -635 -43 l -849 -43 l -854 -354 z "},"̨":{"ha":0,"x_min":0,"x_max":0,"o":"m -632 -347 l -632 -169 l -767 -169 b -797 -147 -785 -169 -797 -160 b -783 -125 -797 -140 -793 -133 l -632 0 l -743 0 l -881 -112 b -943 -228 -921 -147 -943 -189 b -787 -347 -943 -306 -881 -347 z "},"̭":{"ha":0,"x_min":0,"x_max":0,"o":"m -818 -64 l -975 -275 l -828 -275 l -736 -147 l -646 -275 l -499 -275 l -653 -64 z "},"΄":{"ha":271,"x_min":0,"x_max":0,"o":"m 215 983 l 215 1313 l 54 1313 l 54 983 z "},"΅":{"ha":254,"x_min":0,"x_max":0,"o":"m 231 1113 b 126 1203 231 1168 185 1203 b 24 1113 68 1203 24 1168 b 126 1022 24 1057 68 1022 b 231 1113 185 1022 231 1057 z m 425 983 l 425 1313 l 264 1313 l 264 983 z m 665 1113 b 561 1203 665 1168 619 1203 b 458 1113 503 1203 458 1168 b 561 1022 458 1057 503 1022 b 665 1113 619 1022 665 1057 z "},"Ά":{"ha":1617,"x_min":0,"x_max":0,"o":"m 58 0 l 394 0 l 833 629 l 997 389 l 786 389 l 642 185 l 1136 185 l 1261 0 l 1603 0 l 1021 840 b 839 944 971 913 913 944 b 654 840 765 944 704 910 z m 235 600 l 235 929 l 74 929 l 74 600 z "},"·":{"ha":428,"x_min":0,"x_max":0,"o":"m 214 701 b 58 567 122 701 58 647 b 214 433 58 486 121 433 b 368 567 307 433 368 486 b 214 701 368 647 307 701 z "},"Έ":{"ha":1447,"x_min":0,"x_max":0,"o":"m 215 600 l 215 929 l 54 929 l 54 600 z m 646 688 l 1249 688 l 1435 929 l 358 929 l 358 0 l 1253 0 l 1436 242 l 646 242 l 646 363 l 1214 363 l 1381 568 l 646 568 z "},"Ή":{"ha":1574,"x_min":0,"x_max":0,"o":"m 215 600 l 215 929 l 54 929 l 54 600 z m 646 929 l 358 929 l 358 0 l 646 0 l 646 358 l 1199 358 l 1199 0 l 1485 0 l 1485 929 l 1199 929 l 1199 600 l 646 600 z "},"Ί":{"ha":690,"x_min":0,"x_max":0,"o":"m 600 0 l 600 929 l 313 929 l 313 0 z m 215 600 l 215 929 l 54 929 l 54 600 z "},"Ό":{"ha":1671,"x_min":0,"x_max":0,"o":"m 215 600 l 215 929 l 54 929 l 54 600 z m 933 944 b 256 465 472 944 256 790 b 933 -15 256 139 474 -15 b 1614 465 1394 -15 1614 140 b 933 944 1614 790 1394 944 z m 933 703 b 1326 465 1246 703 1326 654 b 933 226 1326 276 1244 226 b 542 465 625 226 542 276 b 933 703 542 653 624 703 z "},"Ύ":{"ha":1699,"x_min":0,"x_max":0,"o":"m 215 600 l 215 929 l 54 929 l 54 600 z m 1136 0 l 1136 308 l 1688 929 l 1336 929 l 997 547 l 650 929 l 282 929 l 849 308 l 849 0 z "},"Ώ":{"ha":1746,"x_min":0,"x_max":0,"o":"m 974 944 b 300 554 533 944 300 807 b 463 244 300 439 350 347 l 467 242 l 364 242 l 190 0 l 743 0 b 796 221 867 0 899 136 l 706 297 b 588 514 621 368 588 431 b 975 703 588 654 685 703 b 1363 514 1265 703 1363 654 b 1244 297 1363 431 1329 368 l 1154 221 b 1207 0 1051 136 1083 0 l 1560 0 l 1733 242 l 1486 242 l 1497 251 b 1649 547 1603 346 1649 432 b 974 944 1649 804 1418 944 z m 215 600 l 215 929 l 54 929 l 54 600 z "},"Α":{"ha":1574,"x_min":0,"x_max":0,"o":"m 15 0 l 351 0 l 790 629 l 954 389 l 743 389 l 599 185 l 1093 185 l 1218 0 l 1560 0 l 978 840 b 796 944 928 913 869 944 b 611 840 722 944 661 910 z "},"Β":{"ha":1338,"x_min":0,"x_max":0,"o":"m 903 0 b 1282 267 1157 0 1282 88 b 1169 474 1282 356 1240 431 b 1263 674 1228 517 1263 588 b 897 929 1263 835 1129 929 l 285 929 l 88 688 l 914 688 b 990 629 964 688 990 667 b 913 568 990 589 964 568 l 88 568 l 88 0 z m 913 364 b 994 301 967 364 994 343 b 914 242 994 263 968 242 l 375 242 l 375 364 z "},"Γ":{"ha":1101,"x_min":0,"x_max":0,"o":"m 1093 929 l 88 929 l 88 0 l 375 0 l 375 688 l 907 688 z "},"Δ":{"ha":1574,"x_min":0,"x_max":0,"o":"m 796 944 b 611 840 707 944 651 896 l 15 0 l 1561 0 l 979 840 b 796 944 939 899 882 944 z m 792 631 l 1061 242 l 515 242 z "},"Ε":{"ha":1176,"x_min":0,"x_max":0,"o":"m 375 688 l 978 688 l 1164 929 l 88 929 l 88 0 l 982 0 l 1165 242 l 375 242 l 375 363 l 943 363 l 1110 568 l 375 568 z "},"Ζ":{"ha":1247,"x_min":0,"x_max":0,"o":"m 200 929 l 17 688 l 714 688 l 114 231 b 185 0 1 146 46 0 l 1063 0 l 1236 242 l 528 242 l 1125 699 b 1054 929 1238 783 1192 929 z "},"Η":{"ha":1303,"x_min":0,"x_max":0,"o":"m 375 929 l 88 929 l 88 0 l 375 0 l 375 358 l 928 358 l 928 0 l 1214 0 l 1214 929 l 928 929 l 928 600 l 375 600 z "},"Θ":{"ha":1474,"x_min":0,"x_max":0,"o":"m 736 944 b 58 465 275 944 58 790 b 736 -15 58 139 276 -15 b 1417 465 1197 -15 1417 140 b 736 944 1417 790 1197 944 z m 736 703 b 1117 568 982 703 1085 672 l 493 568 l 350 392 b 344 465 346 414 344 438 b 736 703 344 653 426 703 z m 1129 465 b 736 226 1129 276 1047 226 b 357 364 493 226 390 258 l 981 364 l 1124 539 b 1129 465 1128 517 1129 493 z "},"Ι":{"ha":469,"x_min":0,"x_max":0,"o":"m 379 0 l 379 929 l 92 929 l 92 0 z "},"Κ":{"ha":1265,"x_min":0,"x_max":0,"o":"m 375 929 l 88 929 l 88 0 l 375 0 l 375 401 l 846 0 l 1258 0 l 669 489 l 1226 929 l 838 929 l 375 550 z "},"Λ":{"ha":1574,"x_min":0,"x_max":0,"o":"m 15 0 l 351 0 l 789 632 l 1218 0 l 1560 0 l 978 840 b 796 944 928 913 869 944 b 611 840 722 944 660 910 z "},"Μ":{"ha":1747,"x_min":0,"x_max":0,"o":"m 1731 0 l 1494 815 b 1331 944 1472 894 1410 944 b 1175 847 1264 944 1210 911 l 878 296 l 582 847 b 426 944 546 911 493 944 b 263 815 346 944 286 897 l 21 0 l 313 0 l 464 539 l 700 89 b 872 -15 742 11 786 -15 b 1044 89 957 -15 1001 11 l 1286 539 l 1433 0 z "},"Ν":{"ha":1268,"x_min":0,"x_max":0,"o":"m 83 0 l 360 0 l 360 540 l 914 35 b 1029 -17 953 -1 986 -17 b 1186 158 1126 -17 1186 51 l 1186 929 l 911 929 l 911 388 l 354 896 b 240 944 317 931 283 944 b 83 769 143 944 83 878 z "},"Ξ":{"ha":1249,"x_min":0,"x_max":0,"o":"m 194 242 l 11 0 l 1054 0 l 1238 242 z m 1018 364 l 1182 568 l 232 568 l 68 364 z m 1051 688 l 1236 929 l 200 929 l 13 688 z "},"Ο":{"ha":1474,"x_min":0,"x_max":0,"o":"m 736 944 b 58 465 275 944 58 790 b 736 -15 58 139 276 -15 b 1417 465 1197 -15 1417 140 b 736 944 1417 790 1197 944 z m 736 703 b 1129 465 1049 703 1129 654 b 736 226 1129 276 1047 226 b 344 465 428 226 344 276 b 736 703 344 653 426 703 z "},"Π":{"ha":1303,"x_min":0,"x_max":0,"o":"m 928 0 l 1214 0 l 1214 929 l 88 929 l 88 0 l 375 0 l 375 688 l 928 688 z "},"Ρ":{"ha":1372,"x_min":0,"x_max":0,"o":"m 869 240 b 1313 582 1142 240 1313 374 b 869 929 1313 793 1139 929 l 278 929 l 85 688 l 901 688 b 1026 583 978 688 1026 647 b 901 478 1026 518 979 478 l 85 478 l 85 0 l 371 0 l 371 240 z "},"Σ":{"ha":1247,"x_min":0,"x_max":0,"o":"m 1236 929 l 183 929 b 113 699 46 929 1 783 l 424 464 l 113 231 b 183 0 0 147 46 0 l 1064 0 l 1236 242 l 497 242 l 643 353 b 643 576 733 422 733 507 l 497 688 l 1064 688 z "},"Τ":{"ha":1242,"x_min":0,"x_max":0,"o":"m 753 0 l 753 688 l 1046 688 l 1235 929 l 196 929 l 7 688 l 467 688 l 467 0 z "},"Υ":{"ha":1428,"x_min":0,"x_max":0,"o":"m 865 0 l 865 308 l 1417 929 l 1065 929 l 726 547 l 379 929 l 11 929 l 578 308 l 578 0 z "},"Φ":{"ha":1474,"x_min":0,"x_max":0,"o":"m 881 0 l 881 96 b 1417 467 1244 119 1417 239 b 881 835 1417 693 1246 811 l 881 929 l 594 929 l 594 835 b 58 465 229 813 58 693 b 594 96 58 238 229 118 l 594 0 z m 344 467 b 594 624 344 578 389 615 l 594 307 b 344 467 389 317 344 354 z m 1129 467 b 881 307 1129 354 1085 317 l 881 624 b 1129 467 1086 614 1129 578 z "},"Χ":{"ha":1444,"x_min":0,"x_max":0,"o":"m 1035 929 l 744 644 l 442 929 l 42 929 l 529 469 l 24 0 l 397 0 l 708 301 l 1028 0 l 1428 0 l 924 475 l 1404 929 z "},"Ψ":{"ha":1369,"x_min":0,"x_max":0,"o":"m 828 0 l 828 151 b 1293 567 1149 181 1293 311 l 1293 929 l 1007 929 l 1007 567 b 828 396 1007 465 958 414 l 828 929 l 542 929 l 542 396 b 363 567 411 415 363 467 l 363 929 l 75 929 l 75 567 b 542 151 75 311 222 181 l 542 0 z "},"Ω":{"ha":1567,"x_min":0,"x_max":0,"o":"m 794 944 b 121 554 354 944 121 807 b 283 244 121 439 171 347 l 288 242 l 185 242 l 11 0 l 564 0 b 617 221 688 0 719 136 l 526 297 b 408 514 442 368 408 431 b 796 703 408 654 506 703 b 1183 514 1086 703 1183 654 b 1065 297 1183 431 1150 368 l 975 221 b 1028 0 872 136 904 0 l 1381 0 l 1554 242 l 1307 242 l 1318 251 b 1469 547 1424 346 1469 432 b 794 944 1469 804 1239 944 z "},"Ϊ":{"ha":543,"x_min":0,"x_max":0,"o":"m 417 0 l 417 929 l 129 929 l 129 0 z m 229 1113 b 126 1203 229 1168 185 1203 b 21 1113 67 1203 21 1168 b 126 1022 21 1057 67 1022 b 229 1113 185 1022 229 1057 z m 522 1113 b 418 1203 522 1168 479 1203 b 315 1113 360 1203 315 1168 b 418 1022 315 1057 360 1022 b 522 1113 479 1022 522 1057 z "},"Ϋ":{"ha":1428,"x_min":0,"x_max":0,"o":"m 865 0 l 865 308 l 1417 929 l 1065 929 l 726 547 l 379 929 l 11 929 l 578 308 l 578 0 z m 683 1113 b 581 1203 683 1168 639 1203 b 475 1113 521 1203 475 1168 b 581 1022 475 1057 521 1022 b 683 1113 639 1022 683 1057 z m 976 1113 b 872 1203 976 1168 933 1203 b 769 1113 814 1203 769 1168 b 872 1022 769 1057 814 1022 b 976 1113 933 1022 976 1057 z "},"ά":{"ha":1617,"x_min":0,"x_max":0,"o":"m 58 0 l 394 0 l 833 629 l 997 389 l 786 389 l 642 185 l 1136 185 l 1261 0 l 1603 0 l 1021 840 b 839 944 971 913 913 944 b 654 840 765 944 704 910 z m 235 600 l 235 929 l 74 929 l 74 600 z "},"έ":{"ha":1447,"x_min":0,"x_max":0,"o":"m 215 600 l 215 929 l 54 929 l 54 600 z m 646 688 l 1249 688 l 1435 929 l 358 929 l 358 0 l 1253 0 l 1436 242 l 646 242 l 646 363 l 1214 363 l 1381 568 l 646 568 z "},"ή":{"ha":1574,"x_min":0,"x_max":0,"o":"m 215 600 l 215 929 l 54 929 l 54 600 z m 646 929 l 358 929 l 358 0 l 646 0 l 646 358 l 1199 358 l 1199 0 l 1485 0 l 1485 929 l 1199 929 l 1199 600 l 646 600 z "},"ί":{"ha":690,"x_min":0,"x_max":0,"o":"m 600 0 l 600 929 l 313 929 l 313 0 z m 215 600 l 215 929 l 54 929 l 54 600 z "},"α":{"ha":1574,"x_min":0,"x_max":0,"o":"m 15 0 l 351 0 l 790 629 l 954 389 l 743 389 l 599 185 l 1093 185 l 1218 0 l 1560 0 l 978 840 b 796 944 928 913 869 944 b 611 840 722 944 661 910 z "},"β":{"ha":1338,"x_min":0,"x_max":0,"o":"m 903 0 b 1282 267 1157 0 1282 88 b 1169 474 1282 356 1240 431 b 1263 674 1228 517 1263 588 b 897 929 1263 835 1129 929 l 285 929 l 88 688 l 914 688 b 990 629 964 688 990 667 b 913 568 990 589 964 568 l 88 568 l 88 0 z m 913 364 b 994 301 967 364 994 343 b 914 242 994 263 968 242 l 375 242 l 375 364 z "},"γ":{"ha":1101,"x_min":0,"x_max":0,"o":"m 1093 929 l 88 929 l 88 0 l 375 0 l 375 688 l 907 688 z "},"δ":{"ha":1574,"x_min":0,"x_max":0,"o":"m 796 944 b 611 840 707 944 651 896 l 15 0 l 1561 0 l 979 840 b 796 944 939 899 882 944 z m 792 631 l 1061 242 l 515 242 z "},"ε":{"ha":1176,"x_min":0,"x_max":0,"o":"m 375 688 l 978 688 l 1164 929 l 88 929 l 88 0 l 982 0 l 1165 242 l 375 242 l 375 363 l 943 363 l 1110 568 l 375 568 z "},"ζ":{"ha":1247,"x_min":0,"x_max":0,"o":"m 200 929 l 17 688 l 714 688 l 114 231 b 185 0 1 146 46 0 l 1063 0 l 1236 242 l 528 242 l 1125 699 b 1054 929 1238 783 1192 929 z "},"η":{"ha":1303,"x_min":0,"x_max":0,"o":"m 375 929 l 88 929 l 88 0 l 375 0 l 375 358 l 928 358 l 928 0 l 1214 0 l 1214 929 l 928 929 l 928 600 l 375 600 z "},"θ":{"ha":1474,"x_min":0,"x_max":0,"o":"m 736 944 b 58 465 275 944 58 790 b 736 -15 58 139 276 -15 b 1417 465 1197 -15 1417 140 b 736 944 1417 790 1197 944 z m 736 703 b 1117 568 982 703 1085 672 l 493 568 l 350 392 b 344 465 346 414 344 438 b 736 703 344 653 426 703 z m 1129 465 b 736 226 1129 276 1047 226 b 357 364 493 226 390 258 l 981 364 l 1124 539 b 1129 465 1128 517 1129 493 z "},"ι":{"ha":469,"x_min":0,"x_max":0,"o":"m 379 0 l 379 929 l 92 929 l 92 0 z "},"κ":{"ha":1265,"x_min":0,"x_max":0,"o":"m 375 929 l 88 929 l 88 0 l 375 0 l 375 401 l 846 0 l 1258 0 l 669 489 l 1226 929 l 838 929 l 375 550 z "},"λ":{"ha":1574,"x_min":0,"x_max":0,"o":"m 15 0 l 351 0 l 789 632 l 1218 0 l 1560 0 l 978 840 b 796 944 928 913 869 944 b 611 840 722 944 660 910 z "},"μ":{"ha":1747,"x_min":0,"x_max":0,"o":"m 1731 0 l 1494 815 b 1331 944 1472 894 1410 944 b 1175 847 1264 944 1210 911 l 878 296 l 582 847 b 426 944 546 911 493 944 b 263 815 346 944 286 897 l 21 0 l 313 0 l 464 539 l 700 89 b 872 -15 742 11 786 -15 b 1044 89 957 -15 1001 11 l 1286 539 l 1433 0 z "},"ν":{"ha":1268,"x_min":0,"x_max":0,"o":"m 83 0 l 360 0 l 360 540 l 914 35 b 1029 -17 953 -1 986 -17 b 1186 158 1126 -17 1186 51 l 1186 929 l 911 929 l 911 388 l 354 896 b 240 944 317 931 283 944 b 83 769 143 944 83 878 z "},"ξ":{"ha":1249,"x_min":0,"x_max":0,"o":"m 194 242 l 11 0 l 1054 0 l 1238 242 z m 1018 364 l 1182 568 l 232 568 l 68 364 z m 1051 688 l 1236 929 l 200 929 l 13 688 z "},"ο":{"ha":1474,"x_min":0,"x_max":0,"o":"m 736 944 b 58 465 275 944 58 790 b 736 -15 58 139 276 -15 b 1417 465 1197 -15 1417 140 b 736 944 1417 790 1197 944 z m 736 703 b 1129 465 1049 703 1129 654 b 736 226 1129 276 1047 226 b 344 465 428 226 344 276 b 736 703 344 653 426 703 z "},"π":{"ha":1303,"x_min":0,"x_max":0,"o":"m 928 0 l 1214 0 l 1214 929 l 88 929 l 88 0 l 375 0 l 375 688 l 928 688 z "},"ρ":{"ha":1372,"x_min":0,"x_max":0,"o":"m 869 240 b 1313 582 1142 240 1313 374 b 869 929 1313 793 1139 929 l 278 929 l 85 688 l 901 688 b 1026 583 978 688 1026 647 b 901 478 1026 518 979 478 l 85 478 l 85 0 l 371 0 l 371 240 z "},"ς":{"ha":1247,"x_min":0,"x_max":0,"o":"m 1236 929 l 183 929 b 113 699 46 929 1 783 l 424 464 l 113 231 b 183 0 0 147 46 0 l 1064 0 l 1236 242 l 497 242 l 643 353 b 643 576 733 422 733 507 l 497 688 l 1064 688 z "},"σ":{"ha":1247,"x_min":0,"x_max":0,"o":"m 1236 929 l 183 929 b 113 699 46 929 1 783 l 424 464 l 113 231 b 183 0 0 147 46 0 l 1064 0 l 1236 242 l 497 242 l 643 353 b 643 576 733 422 733 507 l 497 688 l 1064 688 z "},"τ":{"ha":1242,"x_min":0,"x_max":0,"o":"m 753 0 l 753 688 l 1046 688 l 1235 929 l 196 929 l 7 688 l 467 688 l 467 0 z "},"υ":{"ha":1428,"x_min":0,"x_max":0,"o":"m 865 0 l 865 308 l 1417 929 l 1065 929 l 726 547 l 379 929 l 11 929 l 578 308 l 578 0 z "},"φ":{"ha":1474,"x_min":0,"x_max":0,"o":"m 881 0 l 881 96 b 1417 467 1244 119 1417 239 b 881 835 1417 693 1246 811 l 881 929 l 594 929 l 594 835 b 58 465 229 813 58 693 b 594 96 58 238 229 118 l 594 0 z m 344 467 b 594 624 344 578 389 615 l 594 307 b 344 467 389 317 344 354 z m 1129 467 b 881 307 1129 354 1085 317 l 881 624 b 1129 467 1086 614 1129 578 z "},"χ":{"ha":1444,"x_min":0,"x_max":0,"o":"m 1035 929 l 744 644 l 442 929 l 42 929 l 529 469 l 24 0 l 397 0 l 708 301 l 1028 0 l 1428 0 l 924 475 l 1404 929 z "},"ψ":{"ha":1369,"x_min":0,"x_max":0,"o":"m 828 0 l 828 151 b 1293 567 1149 181 1293 311 l 1293 929 l 1007 929 l 1007 567 b 828 396 1007 465 958 414 l 828 929 l 542 929 l 542 396 b 363 567 411 415 363 467 l 363 929 l 75 929 l 75 567 b 542 151 75 311 222 181 l 542 0 z "},"ω":{"ha":1567,"x_min":0,"x_max":0,"o":"m 794 944 b 121 554 354 944 121 807 b 283 244 121 439 171 347 l 288 242 l 185 242 l 11 0 l 564 0 b 617 221 688 0 719 136 l 526 297 b 408 514 442 368 408 431 b 796 703 408 654 506 703 b 1183 514 1086 703 1183 654 b 1065 297 1183 431 1150 368 l 975 221 b 1028 0 872 136 904 0 l 1381 0 l 1554 242 l 1307 242 l 1318 251 b 1469 547 1424 346 1469 432 b 794 944 1469 804 1239 944 z "},"ϊ":{"ha":543,"x_min":0,"x_max":0,"o":"m 417 0 l 417 929 l 129 929 l 129 0 z m 229 1113 b 126 1203 229 1168 185 1203 b 21 1113 67 1203 21 1168 b 126 1022 21 1057 67 1022 b 229 1113 185 1022 229 1057 z m 522 1113 b 418 1203 522 1168 479 1203 b 315 1113 360 1203 315 1168 b 418 1022 315 1057 360 1022 b 522 1113 479 1022 522 1057 z "},"ϋ":{"ha":1428,"x_min":0,"x_max":0,"o":"m 865 0 l 865 308 l 1417 929 l 1065 929 l 726 547 l 379 929 l 11 929 l 578 308 l 578 0 z m 683 1113 b 581 1203 683 1168 639 1203 b 475 1113 521 1203 475 1168 b 581 1022 475 1057 521 1022 b 683 1113 639 1022 683 1057 z m 976 1113 b 872 1203 976 1168 933 1203 b 769 1113 814 1203 769 1168 b 872 1022 769 1057 814 1022 b 976 1113 933 1022 976 1057 z "},"ό":{"ha":1671,"x_min":0,"x_max":0,"o":"m 215 600 l 215 929 l 54 929 l 54 600 z m 933 944 b 256 465 472 944 256 790 b 933 -15 256 139 474 -15 b 1614 465 1394 -15 1614 140 b 933 944 1614 790 1394 944 z m 933 703 b 1326 465 1246 703 1326 654 b 933 226 1326 276 1244 226 b 542 465 625 226 542 276 b 933 703 542 653 624 703 z "},"ύ":{"ha":1699,"x_min":0,"x_max":0,"o":"m 215 600 l 215 929 l 54 929 l 54 600 z m 1136 0 l 1136 308 l 1688 929 l 1336 929 l 997 547 l 650 929 l 282 929 l 849 308 l 849 0 z "},"ώ":{"ha":1746,"x_min":0,"x_max":0,"o":"m 974 944 b 300 554 533 944 300 807 b 463 244 300 439 350 347 l 467 242 l 364 242 l 190 0 l 743 0 b 796 221 867 0 899 136 l 706 297 b 588 514 621 368 588 431 b 975 703 588 654 685 703 b 1363 514 1265 703 1363 654 b 1244 297 1363 431 1329 368 l 1154 221 b 1207 0 1051 136 1083 0 l 1560 0 l 1733 242 l 1486 242 l 1497 251 b 1649 547 1603 346 1649 432 b 974 944 1649 804 1418 944 z m 215 600 l 215 929 l 54 929 l 54 600 z "},"Ѐ":{"ha":1176,"x_min":0,"x_max":0,"o":"m 375 688 l 978 688 l 1164 929 l 88 929 l 88 0 l 982 0 l 1165 242 l 375 242 l 375 363 l 943 363 l 1110 568 l 375 568 z m 817 993 l 817 1113 l 403 1204 l 403 1043 z "},"Ё":{"ha":1176,"x_min":0,"x_max":0,"o":"m 375 688 l 978 688 l 1164 929 l 88 929 l 88 0 l 982 0 l 1165 242 l 375 242 l 375 363 l 943 363 l 1110 568 l 375 568 z m 583 1113 b 481 1203 583 1168 539 1203 b 375 1113 421 1203 375 1168 b 481 1022 375 1057 421 1022 b 583 1113 539 1022 583 1057 z m 876 1113 b 772 1203 876 1168 833 1203 b 669 1113 714 1203 669 1168 b 772 1022 669 1057 714 1022 b 876 1113 833 1022 876 1057 z "},"Ђ":{"ha":1638,"x_min":0,"x_max":0,"o":"m 657 688 l 1164 688 l 1349 929 l 193 929 l 7 688 l 371 688 l 371 0 l 657 0 l 657 331 l 1113 331 b 1275 206 1231 331 1275 296 l 1275 0 l 1274 0 l 1274 -47 b 1138 -122 1274 -100 1233 -122 l 1014 -122 l 835 -354 l 1143 -354 b 1561 -47 1403 -354 1561 -237 l 1561 206 b 1107 572 1561 453 1414 572 l 657 572 z "},"Ѓ":{"ha":1101,"x_min":0,"x_max":0,"o":"m 1093 929 l 88 929 l 88 0 l 375 0 l 375 688 l 907 688 z m 814 1043 l 814 1204 l 400 1113 l 400 993 z "},"Є":{"ha":1282,"x_min":0,"x_max":0,"o":"m 1085 0 l 1268 242 l 618 242 b 369 361 496 242 410 285 l 851 361 l 1017 567 l 363 567 b 618 688 397 646 483 688 l 1085 688 l 1268 929 l 618 929 b 58 474 290 929 58 740 b 618 0 58 203 297 0 z "},"Ѕ":{"ha":1339,"x_min":0,"x_max":0,"o":"m 921 0 b 1296 297 1179 0 1296 93 b 943 567 1296 474 1174 567 l 436 567 b 349 628 376 567 349 586 b 436 688 349 668 376 688 l 1086 688 l 1271 929 l 458 929 b 67 642 196 929 67 833 b 424 363 67 465 197 363 l 926 363 b 1014 301 986 363 1014 344 b 929 242 1014 260 988 242 l 218 242 l 33 0 z "},"І":{"ha":469,"x_min":0,"x_max":0,"o":"m 379 0 l 379 929 l 92 929 l 92 0 z "},"Ї":{"ha":543,"x_min":0,"x_max":0,"o":"m 417 0 l 417 929 l 129 929 l 129 0 z m 229 1113 b 126 1203 229 1168 185 1203 b 21 1113 67 1203 21 1168 b 126 1022 21 1057 67 1022 b 229 1113 185 1022 229 1057 z m 522 1113 b 418 1203 522 1168 479 1203 b 315 1113 360 1203 315 1168 b 418 1022 315 1057 360 1022 b 522 1113 479 1022 522 1057 z "},"Ј":{"ha":1017,"x_min":0,"x_max":0,"o":"m 656 929 l 656 400 b 364 242 656 285 578 242 l 203 242 l 15 0 l 364 0 b 943 422 750 0 943 140 l 943 929 z "},"Љ":{"ha":2249,"x_min":0,"x_max":0,"o":"m 1735 688 l 1247 688 l 1247 929 l 786 929 b 601 825 713 929 653 894 l 15 0 l 351 0 l 833 688 l 961 688 l 961 451 l 1778 451 b 1903 346 1856 451 1903 411 b 1778 242 1903 282 1854 242 l 1149 242 l 961 0 l 1736 0 b 2189 347 2014 0 2189 135 b 1735 688 2189 557 2015 688 z "},"Њ":{"ha":2103,"x_min":0,"x_max":0,"o":"m 375 929 l 88 929 l 88 0 l 375 0 l 375 438 l 1633 438 b 1758 338 1711 438 1758 403 b 1633 242 1758 275 1710 242 l 1060 242 l 872 0 l 1592 0 b 2044 346 1869 0 2044 135 b 1590 679 2044 557 1872 679 l 1158 679 l 1158 929 l 872 929 l 872 679 l 375 679 z "},"Ћ":{"ha":1638,"x_min":0,"x_max":0,"o":"m 657 688 l 1164 688 l 1349 929 l 193 929 l 7 688 l 371 688 l 371 0 l 657 0 l 657 331 l 1113 331 b 1275 206 1231 331 1275 296 l 1275 0 l 1561 0 l 1561 206 b 1107 572 1561 453 1414 572 l 657 572 z "},"Ќ":{"ha":1265,"x_min":0,"x_max":0,"o":"m 375 929 l 88 929 l 88 0 l 375 0 l 375 401 l 846 0 l 1258 0 l 669 489 l 1226 929 l 838 929 l 375 550 z m 811 1043 l 811 1204 l 397 1113 l 397 993 z "},"Ѝ":{"ha":1268,"x_min":0,"x_max":0,"o":"m 1186 769 b 1029 944 1186 878 1126 944 b 915 896 986 944 953 931 l 358 388 l 358 929 l 83 929 l 83 158 b 240 -17 83 51 143 -17 b 356 35 283 -17 317 -1 l 910 540 l 910 0 l 1186 0 z m 825 993 l 825 1113 l 411 1204 l 411 1043 z "},"Ў":{"ha":1428,"x_min":0,"x_max":0,"o":"m 11 929 l 561 349 b 351 242 501 281 425 242 l 203 242 l 15 0 l 351 0 b 885 318 554 0 663 65 l 1417 929 l 1069 929 l 726 536 l 375 929 z m 503 1204 b 686 993 503 1085 582 993 l 769 993 b 951 1204 872 993 951 1083 l 807 1204 b 743 1086 807 1129 783 1086 l 719 1086 b 646 1204 674 1086 646 1132 z "},"Џ":{"ha":1303,"x_min":0,"x_max":0,"o":"m 375 929 l 88 929 l 88 0 l 539 0 l 539 -354 l 764 -354 l 764 0 l 1214 0 l 1214 929 l 928 929 l 928 242 l 375 242 z "},"А":{"ha":1574,"x_min":0,"x_max":0,"o":"m 1561 0 l 979 840 b 796 944 939 899 882 944 b 611 840 707 944 651 896 l 15 0 l 351 0 l 792 621 l 1054 242 l 654 242 l 482 0 z "},"Б":{"ha":1375,"x_min":0,"x_max":0,"o":"m 85 929 l 85 0 l 919 0 b 1317 290 1185 0 1317 100 b 969 569 1317 474 1193 569 l 371 569 l 371 688 l 949 688 l 1135 929 z m 371 364 l 946 364 b 1035 303 1010 364 1035 346 b 944 242 1035 258 1008 242 l 371 242 z "},"В":{"ha":1338,"x_min":0,"x_max":0,"o":"m 903 0 b 1282 267 1157 0 1282 88 b 1169 474 1282 356 1240 431 b 1263 674 1228 517 1263 588 b 897 929 1263 835 1129 929 l 285 929 l 88 688 l 914 688 b 990 629 964 688 990 667 b 913 568 990 589 964 568 l 88 568 l 88 0 z m 913 364 b 994 301 967 364 994 343 b 914 242 994 263 968 242 l 375 242 l 375 364 z "},"Г":{"ha":1101,"x_min":0,"x_max":0,"o":"m 1093 929 l 88 929 l 88 0 l 375 0 l 375 688 l 907 688 z "},"Д":{"ha":1596,"x_min":0,"x_max":0,"o":"m 17 242 l 17 -354 l 243 -354 l 243 0 l 1354 0 l 1354 -354 l 1579 -354 l 1579 242 l 1406 242 l 990 840 b 808 944 940 913 882 944 b 624 840 735 944 672 910 l 199 242 z m 531 242 l 801 632 l 1067 242 z "},"Е":{"ha":1176,"x_min":0,"x_max":0,"o":"m 375 688 l 978 688 l 1164 929 l 88 929 l 88 0 l 982 0 l 1165 242 l 375 242 l 375 363 l 943 363 l 1110 568 l 375 568 z "},"Ж":{"ha":1803,"x_min":0,"x_max":0,"o":"m 393 929 l 49 929 l 492 490 l 17 0 l 390 0 l 758 385 l 758 0 l 1044 0 l 1044 385 l 1414 0 l 1786 0 l 1313 490 l 1754 929 l 1410 929 l 1044 567 l 1044 929 l 758 929 l 758 567 z "},"З":{"ha":1265,"x_min":0,"x_max":0,"o":"m 831 0 b 1207 261 1081 0 1207 88 b 1097 471 1207 354 1171 422 b 1189 668 1160 518 1189 582 b 836 929 1189 840 1069 929 l 246 929 l 58 688 l 840 688 b 915 629 893 688 915 669 b 849 568 915 589 893 568 l 435 568 l 276 364 l 851 364 b 921 304 897 364 921 344 b 842 242 921 263 894 242 l 194 242 l 13 0 z "},"И":{"ha":1268,"x_min":0,"x_max":0,"o":"m 1186 769 b 1029 944 1186 878 1126 944 b 915 896 986 944 953 931 l 358 388 l 358 929 l 83 929 l 83 158 b 240 -17 83 51 143 -17 b 356 35 283 -17 317 -1 l 910 540 l 910 0 l 1186 0 z "},"Й":{"ha":1268,"x_min":0,"x_max":0,"o":"m 1186 769 b 1029 944 1186 878 1126 944 b 915 896 986 944 953 931 l 358 388 l 358 929 l 83 929 l 83 158 b 240 -17 83 51 143 -17 b 356 35 283 -17 317 -1 l 910 540 l 910 0 l 1186 0 z m 411 1204 b 594 993 411 1085 490 993 l 678 993 b 860 1204 781 993 860 1083 l 715 1204 b 651 1086 715 1129 692 1086 l 628 1086 b 554 1204 582 1086 554 1132 z "},"К":{"ha":1265,"x_min":0,"x_max":0,"o":"m 375 929 l 88 929 l 88 0 l 375 0 l 375 401 l 846 0 l 1258 0 l 669 489 l 1226 929 l 838 929 l 375 550 z "},"Л":{"ha":1574,"x_min":0,"x_max":0,"o":"m 15 0 l 351 0 l 789 632 l 1218 0 l 1560 0 l 978 840 b 796 944 928 913 869 944 b 611 840 722 944 660 910 z "},"М":{"ha":1747,"x_min":0,"x_max":0,"o":"m 1731 0 l 1494 815 b 1331 944 1472 894 1410 944 b 1175 847 1264 944 1210 911 l 878 296 l 582 847 b 426 944 546 911 493 944 b 263 815 346 944 286 897 l 21 0 l 313 0 l 464 539 l 700 89 b 872 -15 742 11 786 -15 b 1044 89 957 -15 1001 11 l 1286 539 l 1433 0 z "},"Н":{"ha":1303,"x_min":0,"x_max":0,"o":"m 375 929 l 88 929 l 88 0 l 375 0 l 375 358 l 928 358 l 928 0 l 1214 0 l 1214 929 l 928 929 l 928 600 l 375 600 z "},"О":{"ha":1474,"x_min":0,"x_max":0,"o":"m 736 944 b 58 465 275 944 58 790 b 736 -15 58 139 276 -15 b 1417 465 1197 -15 1417 140 b 736 944 1417 790 1197 944 z m 736 703 b 1129 465 1049 703 1129 654 b 736 226 1129 276 1047 226 b 344 465 428 226 344 276 b 736 703 344 653 426 703 z "},"П":{"ha":1303,"x_min":0,"x_max":0,"o":"m 928 0 l 1214 0 l 1214 929 l 88 929 l 88 0 l 375 0 l 375 688 l 928 688 z "},"Р":{"ha":1372,"x_min":0,"x_max":0,"o":"m 869 240 b 1313 582 1142 240 1313 374 b 869 929 1313 793 1139 929 l 278 929 l 85 688 l 901 688 b 1026 583 978 688 1026 647 b 901 478 1026 518 979 478 l 85 478 l 85 0 l 371 0 l 371 240 z "},"С":{"ha":1282,"x_min":0,"x_max":0,"o":"m 1085 0 l 1268 242 l 618 242 b 344 474 446 242 344 328 b 618 688 344 614 439 688 l 1085 688 l 1268 929 l 618 929 b 58 474 290 929 58 740 b 618 0 58 203 297 0 z "},"Т":{"ha":1242,"x_min":0,"x_max":0,"o":"m 753 0 l 753 688 l 1046 688 l 1235 929 l 196 929 l 7 688 l 467 688 l 467 0 z "},"У":{"ha":1428,"x_min":0,"x_max":0,"o":"m 11 929 l 561 349 b 351 242 501 281 425 242 l 203 242 l 15 0 l 351 0 b 885 318 554 0 663 65 l 1417 929 l 1069 929 l 726 536 l 375 929 z "},"Ф":{"ha":1474,"x_min":0,"x_max":0,"o":"m 881 0 l 881 96 b 1417 467 1244 119 1417 239 b 881 835 1417 693 1246 811 l 881 929 l 594 929 l 594 835 b 58 465 229 813 58 693 b 594 96 58 238 229 118 l 594 0 z m 344 467 b 594 624 344 578 389 615 l 594 307 b 344 467 389 317 344 354 z m 1129 467 b 881 307 1129 354 1085 317 l 881 624 b 1129 467 1086 614 1129 578 z "},"Х":{"ha":1444,"x_min":0,"x_max":0,"o":"m 1035 929 l 744 644 l 442 929 l 42 929 l 529 469 l 24 0 l 397 0 l 708 301 l 1028 0 l 1428 0 l 924 475 l 1404 929 z "},"Ц":{"ha":1368,"x_min":0,"x_max":0,"o":"m 379 929 l 92 929 l 92 0 l 1125 0 l 1125 -354 l 1351 -354 l 1351 242 l 1218 242 l 1218 929 l 932 929 l 932 242 l 379 242 z "},"Ч":{"ha":1369,"x_min":0,"x_max":0,"o":"m 1007 540 l 524 540 b 363 683 413 540 363 586 l 363 929 l 75 929 l 75 683 b 531 299 75 431 229 299 l 1007 299 l 1007 0 l 1293 0 l 1293 929 l 1007 929 z "},"Ш":{"ha":1647,"x_min":0,"x_max":0,"o":"m 1556 0 l 1556 929 l 1268 929 l 1268 242 l 967 242 l 967 929 l 681 929 l 681 242 l 379 242 l 379 929 l 92 929 l 92 0 z "},"Щ":{"ha":1704,"x_min":0,"x_max":0,"o":"m 1688 -354 l 1688 242 l 1556 242 l 1556 929 l 1268 929 l 1268 242 l 967 242 l 967 929 l 681 929 l 681 242 l 379 242 l 379 929 l 92 929 l 92 0 l 1463 0 l 1463 -354 z "},"Ъ":{"ha":1713,"x_min":0,"x_max":0,"o":"m 1199 688 l 713 688 l 713 929 l 186 929 l 1 688 l 425 688 l 425 451 l 1242 451 b 1367 346 1319 451 1367 411 b 1242 242 1367 282 1318 242 l 613 242 l 425 0 l 1200 0 b 1653 347 1478 0 1653 135 b 1199 688 1653 557 1479 688 z "},"Ы":{"ha":1842,"x_min":0,"x_max":0,"o":"m 858 688 l 371 688 l 371 929 l 85 929 l 85 451 l 901 451 b 1026 346 979 451 1026 411 b 901 242 1026 282 978 242 l 272 242 l 85 0 l 860 0 b 1313 347 1138 0 1313 135 b 858 688 1313 557 1139 688 z m 1751 0 l 1751 929 l 1464 929 l 1464 0 z "},"Ь":{"ha":1372,"x_min":0,"x_max":0,"o":"m 858 688 l 371 688 l 371 929 l 85 929 l 85 451 l 901 451 b 1026 346 979 451 1026 411 b 901 242 1026 282 978 242 l 272 242 l 85 0 l 860 0 b 1313 347 1138 0 1313 135 b 858 688 1313 557 1139 688 z "},"Э":{"ha":1326,"x_min":0,"x_max":0,"o":"m 58 0 l 708 0 b 1268 474 1029 0 1268 203 b 708 929 1268 740 1036 929 l 242 929 l 58 688 l 708 688 b 963 568 842 688 928 647 l 475 568 l 308 364 l 957 364 b 708 242 918 286 831 242 l 242 242 z "},"Ю":{"ha":1701,"x_min":0,"x_max":0,"o":"m 379 0 l 379 363 l 553 363 b 1094 -15 589 107 765 -15 b 1644 465 1467 -15 1644 140 b 1094 944 1644 790 1467 944 b 553 567 764 944 588 822 l 379 567 l 379 929 l 92 929 l 92 0 z m 1357 465 b 1094 226 1357 279 1294 226 b 833 465 896 226 833 279 b 1094 703 833 651 894 703 b 1357 465 1296 703 1357 651 z "},"Я":{"ha":1421,"x_min":0,"x_max":0,"o":"m 1050 249 l 1050 0 l 1338 0 l 1338 478 l 515 478 b 361 582 413 478 361 513 b 515 688 361 653 413 688 l 1147 688 l 1336 929 l 544 929 b 74 590 250 929 74 803 b 299 288 74 446 156 340 l 17 0 l 393 0 l 628 249 z "},"а":{"ha":1574,"x_min":0,"x_max":0,"o":"m 1561 0 l 979 840 b 796 944 939 899 882 944 b 611 840 707 944 651 896 l 15 0 l 351 0 l 792 621 l 1054 242 l 654 242 l 482 0 z "},"б":{"ha":1375,"x_min":0,"x_max":0,"o":"m 85 929 l 85 0 l 919 0 b 1317 290 1185 0 1317 100 b 969 569 1317 474 1193 569 l 371 569 l 371 688 l 949 688 l 1135 929 z m 371 364 l 946 364 b 1035 303 1010 364 1035 346 b 944 242 1035 258 1008 242 l 371 242 z "},"в":{"ha":1338,"x_min":0,"x_max":0,"o":"m 903 0 b 1282 267 1157 0 1282 88 b 1169 474 1282 356 1240 431 b 1263 674 1228 517 1263 588 b 897 929 1263 835 1129 929 l 285 929 l 88 688 l 914 688 b 990 629 964 688 990 667 b 913 568 990 589 964 568 l 88 568 l 88 0 z m 913 364 b 994 301 967 364 994 343 b 914 242 994 263 968 242 l 375 242 l 375 364 z "},"г":{"ha":1101,"x_min":0,"x_max":0,"o":"m 1093 929 l 88 929 l 88 0 l 375 0 l 375 688 l 907 688 z "},"д":{"ha":1596,"x_min":0,"x_max":0,"o":"m 17 242 l 17 -354 l 243 -354 l 243 0 l 1354 0 l 1354 -354 l 1579 -354 l 1579 242 l 1406 242 l 990 840 b 808 944 940 913 882 944 b 624 840 735 944 672 910 l 199 242 z m 531 242 l 801 632 l 1067 242 z "},"е":{"ha":1176,"x_min":0,"x_max":0,"o":"m 375 688 l 978 688 l 1164 929 l 88 929 l 88 0 l 982 0 l 1165 242 l 375 242 l 375 363 l 943 363 l 1110 568 l 375 568 z "},"ж":{"ha":1803,"x_min":0,"x_max":0,"o":"m 393 929 l 49 929 l 492 490 l 17 0 l 390 0 l 758 385 l 758 0 l 1044 0 l 1044 385 l 1414 0 l 1786 0 l 1313 490 l 1754 929 l 1410 929 l 1044 567 l 1044 929 l 758 929 l 758 567 z "},"з":{"ha":1265,"x_min":0,"x_max":0,"o":"m 831 0 b 1207 261 1081 0 1207 88 b 1097 471 1207 354 1171 422 b 1189 668 1160 518 1189 582 b 836 929 1189 840 1069 929 l 246 929 l 58 688 l 840 688 b 915 629 893 688 915 669 b 849 568 915 589 893 568 l 435 568 l 276 364 l 851 364 b 921 304 897 364 921 344 b 842 242 921 263 894 242 l 194 242 l 13 0 z "},"и":{"ha":1268,"x_min":0,"x_max":0,"o":"m 1186 769 b 1029 944 1186 878 1126 944 b 915 896 986 944 953 931 l 358 388 l 358 929 l 83 929 l 83 158 b 240 -17 83 51 143 -17 b 356 35 283 -17 317 -1 l 910 540 l 910 0 l 1186 0 z "},"й":{"ha":1268,"x_min":0,"x_max":0,"o":"m 1186 769 b 1029 944 1186 878 1126 944 b 915 896 986 944 953 931 l 358 388 l 358 929 l 83 929 l 83 158 b 240 -17 83 51 143 -17 b 356 35 283 -17 317 -1 l 910 540 l 910 0 l 1186 0 z m 411 1204 b 594 993 411 1085 490 993 l 678 993 b 860 1204 781 993 860 1083 l 715 1204 b 651 1086 715 1129 692 1086 l 628 1086 b 554 1204 582 1086 554 1132 z "},"к":{"ha":1265,"x_min":0,"x_max":0,"o":"m 375 929 l 88 929 l 88 0 l 375 0 l 375 401 l 846 0 l 1258 0 l 669 489 l 1226 929 l 838 929 l 375 550 z "},"л":{"ha":1574,"x_min":0,"x_max":0,"o":"m 15 0 l 351 0 l 789 632 l 1218 0 l 1560 0 l 978 840 b 796 944 928 913 869 944 b 611 840 722 944 660 910 z "},"м":{"ha":1747,"x_min":0,"x_max":0,"o":"m 1731 0 l 1494 815 b 1331 944 1472 894 1410 944 b 1175 847 1264 944 1210 911 l 878 296 l 582 847 b 426 944 546 911 493 944 b 263 815 346 944 286 897 l 21 0 l 313 0 l 464 539 l 700 89 b 872 -15 742 11 786 -15 b 1044 89 957 -15 1001 11 l 1286 539 l 1433 0 z "},"н":{"ha":1303,"x_min":0,"x_max":0,"o":"m 375 929 l 88 929 l 88 0 l 375 0 l 375 358 l 928 358 l 928 0 l 1214 0 l 1214 929 l 928 929 l 928 600 l 375 600 z "},"о":{"ha":1474,"x_min":0,"x_max":0,"o":"m 736 944 b 58 465 275 944 58 790 b 736 -15 58 139 276 -15 b 1417 465 1197 -15 1417 140 b 736 944 1417 790 1197 944 z m 736 703 b 1129 465 1049 703 1129 654 b 736 226 1129 276 1047 226 b 344 465 428 226 344 276 b 736 703 344 653 426 703 z "},"п":{"ha":1303,"x_min":0,"x_max":0,"o":"m 928 0 l 1214 0 l 1214 929 l 88 929 l 88 0 l 375 0 l 375 688 l 928 688 z "},"р":{"ha":1372,"x_min":0,"x_max":0,"o":"m 869 240 b 1313 582 1142 240 1313 374 b 869 929 1313 793 1139 929 l 278 929 l 85 688 l 901 688 b 1026 583 978 688 1026 647 b 901 478 1026 518 979 478 l 85 478 l 85 0 l 371 0 l 371 240 z "},"с":{"ha":1282,"x_min":0,"x_max":0,"o":"m 1085 0 l 1268 242 l 618 242 b 344 474 446 242 344 328 b 618 688 344 614 439 688 l 1085 688 l 1268 929 l 618 929 b 58 474 290 929 58 740 b 618 0 58 203 297 0 z "},"т":{"ha":1242,"x_min":0,"x_max":0,"o":"m 753 0 l 753 688 l 1046 688 l 1235 929 l 196 929 l 7 688 l 467 688 l 467 0 z "},"у":{"ha":1428,"x_min":0,"x_max":0,"o":"m 11 929 l 561 349 b 351 242 501 281 425 242 l 203 242 l 15 0 l 351 0 b 885 318 554 0 663 65 l 1417 929 l 1069 929 l 726 536 l 375 929 z "},"ф":{"ha":1474,"x_min":0,"x_max":0,"o":"m 881 0 l 881 96 b 1417 467 1244 119 1417 239 b 881 835 1417 693 1246 811 l 881 929 l 594 929 l 594 835 b 58 465 229 813 58 693 b 594 96 58 238 229 118 l 594 0 z m 344 467 b 594 624 344 578 389 615 l 594 307 b 344 467 389 317 344 354 z m 1129 467 b 881 307 1129 354 1085 317 l 881 624 b 1129 467 1086 614 1129 578 z "},"х":{"ha":1444,"x_min":0,"x_max":0,"o":"m 1035 929 l 744 644 l 442 929 l 42 929 l 529 469 l 24 0 l 397 0 l 708 301 l 1028 0 l 1428 0 l 924 475 l 1404 929 z "},"ц":{"ha":1368,"x_min":0,"x_max":0,"o":"m 379 929 l 92 929 l 92 0 l 1125 0 l 1125 -354 l 1351 -354 l 1351 242 l 1218 242 l 1218 929 l 932 929 l 932 242 l 379 242 z "},"ч":{"ha":1369,"x_min":0,"x_max":0,"o":"m 1007 540 l 524 540 b 363 683 413 540 363 586 l 363 929 l 75 929 l 75 683 b 531 299 75 431 229 299 l 1007 299 l 1007 0 l 1293 0 l 1293 929 l 1007 929 z "},"ш":{"ha":1647,"x_min":0,"x_max":0,"o":"m 1556 0 l 1556 929 l 1268 929 l 1268 242 l 967 242 l 967 929 l 681 929 l 681 242 l 379 242 l 379 929 l 92 929 l 92 0 z "},"щ":{"ha":1704,"x_min":0,"x_max":0,"o":"m 1688 -354 l 1688 242 l 1556 242 l 1556 929 l 1268 929 l 1268 242 l 967 242 l 967 929 l 681 929 l 681 242 l 379 242 l 379 929 l 92 929 l 92 0 l 1463 0 l 1463 -354 z "},"ъ":{"ha":1713,"x_min":0,"x_max":0,"o":"m 1199 688 l 713 688 l 713 929 l 186 929 l 1 688 l 425 688 l 425 451 l 1242 451 b 1367 346 1319 451 1367 411 b 1242 242 1367 282 1318 242 l 613 242 l 425 0 l 1200 0 b 1653 347 1478 0 1653 135 b 1199 688 1653 557 1479 688 z "},"ы":{"ha":1842,"x_min":0,"x_max":0,"o":"m 858 688 l 371 688 l 371 929 l 85 929 l 85 451 l 901 451 b 1026 346 979 451 1026 411 b 901 242 1026 282 978 242 l 272 242 l 85 0 l 860 0 b 1313 347 1138 0 1313 135 b 858 688 1313 557 1139 688 z m 1751 0 l 1751 929 l 1464 929 l 1464 0 z "},"ь":{"ha":1372,"x_min":0,"x_max":0,"o":"m 858 688 l 371 688 l 371 929 l 85 929 l 85 451 l 901 451 b 1026 346 979 451 1026 411 b 901 242 1026 282 978 242 l 272 242 l 85 0 l 860 0 b 1313 347 1138 0 1313 135 b 858 688 1313 557 1139 688 z "},"э":{"ha":1326,"x_min":0,"x_max":0,"o":"m 58 0 l 708 0 b 1268 474 1029 0 1268 203 b 708 929 1268 740 1036 929 l 242 929 l 58 688 l 708 688 b 963 568 842 688 928 647 l 475 568 l 308 364 l 957 364 b 708 242 918 286 831 242 l 242 242 z "},"ю":{"ha":1701,"x_min":0,"x_max":0,"o":"m 379 0 l 379 363 l 553 363 b 1094 -15 589 107 765 -15 b 1644 465 1467 -15 1644 140 b 1094 944 1644 790 1467 944 b 553 567 764 944 588 822 l 379 567 l 379 929 l 92 929 l 92 0 z m 1357 465 b 1094 226 1357 279 1294 226 b 833 465 896 226 833 279 b 1094 703 833 651 894 703 b 1357 465 1296 703 1357 651 z "},"я":{"ha":1421,"x_min":0,"x_max":0,"o":"m 1050 249 l 1050 0 l 1338 0 l 1338 478 l 515 478 b 361 582 413 478 361 513 b 515 688 361 653 413 688 l 1147 688 l 1336 929 l 544 929 b 74 590 250 929 74 803 b 299 288 74 446 156 340 l 17 0 l 393 0 l 628 249 z "},"ѐ":{"ha":1176,"x_min":0,"x_max":0,"o":"m 375 688 l 978 688 l 1164 929 l 88 929 l 88 0 l 982 0 l 1165 242 l 375 242 l 375 363 l 943 363 l 1110 568 l 375 568 z m 817 993 l 817 1113 l 403 1204 l 403 1043 z "},"ё":{"ha":1176,"x_min":0,"x_max":0,"o":"m 375 688 l 978 688 l 1164 929 l 88 929 l 88 0 l 982 0 l 1165 242 l 375 242 l 375 363 l 943 363 l 1110 568 l 375 568 z m 583 1113 b 481 1203 583 1168 539 1203 b 375 1113 421 1203 375 1168 b 481 1022 375 1057 421 1022 b 583 1113 539 1022 583 1057 z m 876 1113 b 772 1203 876 1168 833 1203 b 669 1113 714 1203 669 1168 b 772 1022 669 1057 714 1022 b 876 1113 833 1022 876 1057 z "},"ђ":{"ha":1638,"x_min":0,"x_max":0,"o":"m 657 688 l 1164 688 l 1349 929 l 193 929 l 7 688 l 371 688 l 371 0 l 657 0 l 657 331 l 1113 331 b 1275 206 1231 331 1275 296 l 1275 0 l 1274 0 l 1274 -47 b 1138 -122 1274 -100 1233 -122 l 1014 -122 l 835 -354 l 1143 -354 b 1561 -47 1403 -354 1561 -237 l 1561 206 b 1107 572 1561 453 1414 572 l 657 572 z "},"ѓ":{"ha":1101,"x_min":0,"x_max":0,"o":"m 1093 929 l 88 929 l 88 0 l 375 0 l 375 688 l 907 688 z m 814 1043 l 814 1204 l 400 1113 l 400 993 z "},"є":{"ha":1282,"x_min":0,"x_max":0,"o":"m 1085 0 l 1268 242 l 618 242 b 369 361 496 242 410 285 l 851 361 l 1017 567 l 363 567 b 618 688 397 646 483 688 l 1085 688 l 1268 929 l 618 929 b 58 474 290 929 58 740 b 618 0 58 203 297 0 z "},"ѕ":{"ha":1339,"x_min":0,"x_max":0,"o":"m 921 0 b 1296 297 1179 0 1296 93 b 943 567 1296 474 1174 567 l 436 567 b 349 628 376 567 349 586 b 436 688 349 668 376 688 l 1086 688 l 1271 929 l 458 929 b 67 642 196 929 67 833 b 424 363 67 465 197 363 l 926 363 b 1014 301 986 363 1014 344 b 929 242 1014 260 988 242 l 218 242 l 33 0 z "},"і":{"ha":469,"x_min":0,"x_max":0,"o":"m 379 0 l 379 929 l 92 929 l 92 0 z "},"ї":{"ha":543,"x_min":0,"x_max":0,"o":"m 417 0 l 417 929 l 129 929 l 129 0 z m 229 1113 b 126 1203 229 1168 185 1203 b 21 1113 67 1203 21 1168 b 126 1022 21 1057 67 1022 b 229 1113 185 1022 229 1057 z m 522 1113 b 418 1203 522 1168 479 1203 b 315 1113 360 1203 315 1168 b 418 1022 315 1057 360 1022 b 522 1113 479 1022 522 1057 z "},"ј":{"ha":1017,"x_min":0,"x_max":0,"o":"m 656 929 l 656 400 b 364 242 656 285 578 242 l 203 242 l 15 0 l 364 0 b 943 422 750 0 943 140 l 943 929 z "},"љ":{"ha":2249,"x_min":0,"x_max":0,"o":"m 1735 688 l 1247 688 l 1247 929 l 786 929 b 601 825 713 929 653 894 l 15 0 l 351 0 l 833 688 l 961 688 l 961 451 l 1778 451 b 1903 346 1856 451 1903 411 b 1778 242 1903 282 1854 242 l 1149 242 l 961 0 l 1736 0 b 2189 347 2014 0 2189 135 b 1735 688 2189 557 2015 688 z "},"њ":{"ha":2103,"x_min":0,"x_max":0,"o":"m 375 929 l 88 929 l 88 0 l 375 0 l 375 438 l 1633 438 b 1758 338 1711 438 1758 403 b 1633 242 1758 275 1710 242 l 1060 242 l 872 0 l 1592 0 b 2044 346 1869 0 2044 135 b 1590 679 2044 557 1872 679 l 1158 679 l 1158 929 l 872 929 l 872 679 l 375 679 z "},"ћ":{"ha":1638,"x_min":0,"x_max":0,"o":"m 657 688 l 1164 688 l 1349 929 l 193 929 l 7 688 l 371 688 l 371 0 l 657 0 l 657 331 l 1113 331 b 1275 206 1231 331 1275 296 l 1275 0 l 1561 0 l 1561 206 b 1107 572 1561 453 1414 572 l 657 572 z "},"ќ":{"ha":1265,"x_min":0,"x_max":0,"o":"m 375 929 l 88 929 l 88 0 l 375 0 l 375 401 l 846 0 l 1258 0 l 669 489 l 1226 929 l 838 929 l 375 550 z m 811 1043 l 811 1204 l 397 1113 l 397 993 z "},"ѝ":{"ha":1268,"x_min":0,"x_max":0,"o":"m 1186 769 b 1029 944 1186 878 1126 944 b 915 896 986 944 953 931 l 358 388 l 358 929 l 83 929 l 83 158 b 240 -17 83 51 143 -17 b 356 35 283 -17 317 -1 l 910 540 l 910 0 l 1186 0 z m 825 993 l 825 1113 l 411 1204 l 411 1043 z "},"ў":{"ha":1428,"x_min":0,"x_max":0,"o":"m 11 929 l 561 349 b 351 242 501 281 425 242 l 203 242 l 15 0 l 351 0 b 885 318 554 0 663 65 l 1417 929 l 1069 929 l 726 536 l 375 929 z m 503 1204 b 686 993 503 1085 582 993 l 769 993 b 951 1204 872 993 951 1083 l 807 1204 b 743 1086 807 1129 783 1086 l 719 1086 b 646 1204 674 1086 646 1132 z "},"џ":{"ha":1303,"x_min":0,"x_max":0,"o":"m 375 929 l 88 929 l 88 0 l 539 0 l 539 -354 l 764 -354 l 764 0 l 1214 0 l 1214 929 l 928 929 l 928 242 l 375 242 z "},"Ґ":{"ha":1110,"x_min":0,"x_max":0,"o":"m 1093 688 l 1093 1158 l 868 1158 l 868 929 l 88 929 l 88 0 l 375 0 l 375 688 z "},"ґ":{"ha":1110,"x_min":0,"x_max":0,"o":"m 1093 688 l 1093 1158 l 868 1158 l 868 929 l 88 929 l 88 0 l 375 0 l 375 688 z "},"Ғ":{"ha":1226,"x_min":0,"x_max":0,"o":"m 1224 929 l 218 929 l 218 519 l 136 519 l -3 317 l 218 317 l 218 0 l 506 0 l 506 317 l 794 317 l 929 519 l 506 519 l 506 688 l 1039 688 z "},"ғ":{"ha":1226,"x_min":0,"x_max":0,"o":"m 1224 929 l 218 929 l 218 519 l 136 519 l -3 317 l 218 317 l 218 0 l 506 0 l 506 317 l 794 317 l 929 519 l 506 519 l 506 688 l 1039 688 z "},"Җ":{"ha":1913,"x_min":0,"x_max":0,"o":"m 400 929 l 56 929 l 499 490 l 24 0 l 397 0 l 765 385 l 765 0 l 1051 0 l 1051 385 l 1421 0 l 1669 0 l 1669 -354 l 1896 -354 l 1896 242 l 1560 242 l 1319 490 l 1761 929 l 1417 929 l 1051 567 l 1051 929 l 765 929 l 765 567 z "},"җ":{"ha":1913,"x_min":0,"x_max":0,"o":"m 400 929 l 56 929 l 499 490 l 24 0 l 397 0 l 765 385 l 765 0 l 1051 0 l 1051 385 l 1421 0 l 1669 0 l 1669 -354 l 1896 -354 l 1896 242 l 1560 242 l 1319 490 l 1761 929 l 1417 929 l 1051 567 l 1051 929 l 765 929 l 765 567 z "},"Ҙ":{"ha":1265,"x_min":0,"x_max":0,"o":"m 589 0 l 589 -53 b 461 -122 589 -103 551 -122 l 417 -122 l 238 -354 l 465 -354 b 753 -53 658 -354 753 -254 l 753 0 l 831 0 b 1207 261 1081 0 1207 88 b 1097 471 1207 354 1171 422 b 1189 668 1160 518 1189 582 b 836 929 1189 840 1069 929 l 246 929 l 58 688 l 840 688 b 915 629 893 688 915 669 b 849 568 915 589 893 568 l 435 568 l 276 364 l 851 364 b 921 304 897 364 921 344 b 842 242 921 263 894 242 l 194 242 l 13 0 z "},"ҙ":{"ha":1265,"x_min":0,"x_max":0,"o":"m 589 0 l 589 -53 b 461 -122 589 -103 551 -122 l 417 -122 l 238 -354 l 465 -354 b 753 -53 658 -354 753 -254 l 753 0 l 831 0 b 1207 261 1081 0 1207 88 b 1097 471 1207 354 1171 422 b 1189 668 1160 518 1189 582 b 836 929 1189 840 1069 929 l 246 929 l 58 688 l 840 688 b 915 629 893 688 915 669 b 849 568 915 589 893 568 l 435 568 l 276 364 l 851 364 b 921 304 897 364 921 344 b 842 242 921 263 894 242 l 194 242 l 13 0 z "},"Қ":{"ha":1422,"x_min":0,"x_max":0,"o":"m 1406 -354 l 1406 242 l 1058 242 l 761 489 l 1318 929 l 929 929 l 467 550 l 467 929 l 179 929 l 179 0 l 467 0 l 467 401 l 938 0 l 1181 0 l 1181 -354 z "},"қ":{"ha":1422,"x_min":0,"x_max":0,"o":"m 1406 -354 l 1406 242 l 1058 242 l 761 489 l 1318 929 l 929 929 l 467 550 l 467 929 l 179 929 l 179 0 l 467 0 l 467 401 l 938 0 l 1181 0 l 1181 -354 z "},"Ҡ":{"ha":1603,"x_min":0,"x_max":0,"o":"m 713 929 l 193 929 l 7 688 l 425 688 l 425 0 l 713 0 l 713 401 l 1183 0 l 1596 0 l 1007 489 l 1564 929 l 1175 929 l 713 550 z "},"ҡ":{"ha":1603,"x_min":0,"x_max":0,"o":"m 713 929 l 193 929 l 7 688 l 425 688 l 425 0 l 713 0 l 713 401 l 1183 0 l 1596 0 l 1007 489 l 1564 929 l 1175 929 l 713 550 z "},"Ң":{"ha":1456,"x_min":0,"x_max":0,"o":"m 1439 -354 l 1439 242 l 1306 242 l 1306 929 l 1019 929 l 1019 600 l 467 600 l 467 929 l 179 929 l 179 0 l 467 0 l 467 358 l 1019 358 l 1019 0 l 1213 0 l 1213 -354 z "},"ң":{"ha":1456,"x_min":0,"x_max":0,"o":"m 1439 -354 l 1439 242 l 1306 242 l 1306 929 l 1019 929 l 1019 600 l 467 600 l 467 929 l 179 929 l 179 0 l 467 0 l 467 358 l 1019 358 l 1019 0 l 1213 0 l 1213 -354 z "},"Ҫ":{"ha":1282,"x_min":0,"x_max":0,"o":"m 1085 0 l 1268 242 l 618 242 b 344 474 446 242 344 328 b 618 688 344 614 439 688 l 1085 688 l 1268 929 l 618 929 b 58 474 290 929 58 740 b 618 0 58 203 297 0 l 757 0 l 757 -53 b 629 -122 757 -103 719 -122 l 585 -122 l 406 -354 l 633 -354 b 921 -53 826 -354 921 -254 l 921 0 z "},"ҫ":{"ha":1282,"x_min":0,"x_max":0,"o":"m 1085 0 l 1268 242 l 618 242 b 344 474 446 242 344 328 b 618 688 344 614 439 688 l 1085 688 l 1268 929 l 618 929 b 58 474 290 929 58 740 b 618 0 58 203 297 0 l 757 0 l 757 -53 b 629 -122 757 -103 719 -122 l 585 -122 l 406 -354 l 633 -354 b 921 -53 826 -354 921 -254 l 921 0 z "},"Ү":{"ha":1428,"x_min":0,"x_max":0,"o":"m 865 0 l 865 308 l 1417 929 l 1065 929 l 726 547 l 379 929 l 11 929 l 578 308 l 578 0 z "},"ү":{"ha":1428,"x_min":0,"x_max":0,"o":"m 865 0 l 865 308 l 1417 929 l 1065 929 l 726 547 l 379 929 l 11 929 l 578 308 l 578 0 z "},"Ұ":{"ha":1428,"x_min":0,"x_max":0,"o":"m 865 0 l 865 232 l 1183 232 l 1282 422 l 967 422 l 1417 929 l 1065 929 l 726 547 l 379 929 l 11 929 l 475 422 l 249 422 l 147 232 l 578 232 l 578 0 z "},"ұ":{"ha":1428,"x_min":0,"x_max":0,"o":"m 865 0 l 865 232 l 1183 232 l 1282 422 l 967 422 l 1417 929 l 1065 929 l 726 547 l 379 929 l 11 929 l 475 422 l 249 422 l 147 232 l 578 232 l 578 0 z "},"Ҳ":{"ha":1501,"x_min":0,"x_max":0,"o":"m 1483 -354 l 1483 242 l 1172 242 l 924 475 l 1404 929 l 1035 929 l 744 644 l 442 929 l 42 929 l 529 469 l 24 0 l 397 0 l 708 301 l 1028 0 l 1258 0 l 1258 -354 z "},"ҳ":{"ha":1501,"x_min":0,"x_max":0,"o":"m 1483 -354 l 1483 242 l 1172 242 l 924 475 l 1404 929 l 1035 929 l 744 644 l 442 929 l 42 929 l 529 469 l 24 0 l 397 0 l 708 301 l 1028 0 l 1258 0 l 1258 -354 z "},"Ҷ":{"ha":1460,"x_min":0,"x_max":0,"o":"m 1024 540 l 540 540 b 379 683 429 540 379 586 l 379 929 l 92 929 l 92 683 b 547 299 92 431 246 299 l 1024 299 l 1024 0 l 1217 0 l 1217 -354 l 1443 -354 l 1443 242 l 1310 242 l 1310 929 l 1024 929 z "},"ҷ":{"ha":1460,"x_min":0,"x_max":0,"o":"m 1024 540 l 540 540 b 379 683 429 540 379 586 l 379 929 l 92 929 l 92 683 b 547 299 92 431 246 299 l 1024 299 l 1024 0 l 1217 0 l 1217 -354 l 1443 -354 l 1443 242 l 1310 242 l 1310 929 l 1024 929 z "},"Һ":{"ha":1369,"x_min":0,"x_max":0,"o":"m 379 389 l 863 389 b 1024 246 974 389 1024 343 l 1024 0 l 1311 0 l 1311 246 b 856 631 1311 499 1157 631 l 379 631 l 379 929 l 93 929 l 93 0 l 379 0 z "},"һ":{"ha":1369,"x_min":0,"x_max":0,"o":"m 379 389 l 863 389 b 1024 246 974 389 1024 343 l 1024 0 l 1311 0 l 1311 246 b 856 631 1311 499 1157 631 l 379 631 l 379 929 l 93 929 l 93 0 l 379 0 z "},"Ӏ":{"ha":469,"x_min":0,"x_max":0,"o":"m 379 0 l 379 929 l 92 929 l 92 0 z "},"Ӄ":{"ha":1269,"x_min":0,"x_max":0,"o":"m 1099 0 l 1099 -53 b 971 -122 1099 -103 1061 -122 l 926 -122 l 747 -354 l 975 -354 b 1263 -53 1168 -354 1263 -254 l 1263 0 l 674 489 l 1231 929 l 842 929 l 379 550 l 379 929 l 92 929 l 92 0 l 379 0 l 379 401 l 850 0 z "},"ӄ":{"ha":1269,"x_min":0,"x_max":0,"o":"m 1099 0 l 1099 -53 b 971 -122 1099 -103 1061 -122 l 926 -122 l 747 -354 l 975 -354 b 1263 -53 1168 -354 1263 -254 l 1263 0 l 674 489 l 1231 929 l 842 929 l 379 550 l 379 929 l 92 929 l 92 0 l 379 0 l 379 401 l 850 0 z "},"Ӈ":{"ha":1308,"x_min":0,"x_max":0,"o":"m 379 929 l 92 929 l 92 0 l 379 0 l 379 358 l 932 358 l 932 0 l 1054 0 l 1054 -53 b 926 -122 1054 -103 1017 -122 l 882 -122 l 703 -354 l 931 -354 b 1218 -53 1124 -354 1218 -254 l 1218 929 l 932 929 l 932 600 l 379 600 z "},"ӈ":{"ha":1308,"x_min":0,"x_max":0,"o":"m 379 929 l 92 929 l 92 0 l 379 0 l 379 358 l 932 358 l 932 0 l 1054 0 l 1054 -53 b 926 -122 1054 -103 1017 -122 l 882 -122 l 703 -354 l 931 -354 b 1218 -53 1124 -354 1218 -254 l 1218 929 l 932 929 l 932 600 l 379 600 z "},"ӏ":{"ha":469,"x_min":0,"x_max":0,"o":"m 379 0 l 379 929 l 92 929 l 92 0 z "},"Ә":{"ha":1349,"x_min":0,"x_max":0,"o":"m 776 688 b 988 567 882 688 954 646 l 407 567 b 58 297 188 567 58 467 b 621 -15 58 90 250 -15 b 1290 435 1068 -15 1290 136 b 732 929 1290 732 1068 929 l 131 929 l 317 688 z m 993 353 b 593 226 954 258 840 226 b 332 306 401 226 332 249 b 422 353 332 339 356 353 z "},"ә":{"ha":1349,"x_min":0,"x_max":0,"o":"m 776 688 b 988 567 882 688 954 646 l 407 567 b 58 297 188 567 58 467 b 621 -15 58 90 250 -15 b 1290 435 1068 -15 1290 136 b 732 929 1290 732 1068 929 l 131 929 l 317 688 z m 993 353 b 593 226 954 258 840 226 b 332 306 401 226 332 249 b 422 353 332 339 356 353 z "},"Ӣ":{"ha":1268,"x_min":0,"x_max":0,"o":"m 1186 769 b 1029 944 1186 878 1126 944 b 915 896 986 944 953 931 l 358 388 l 358 929 l 83 929 l 83 158 b 240 -17 83 51 143 -17 b 356 35 283 -17 317 -1 l 910 540 l 910 0 l 1186 0 z m 842 1039 l 842 1160 l 428 1160 l 428 1039 z "},"ӣ":{"ha":1268,"x_min":0,"x_max":0,"o":"m 1186 769 b 1029 944 1186 878 1126 944 b 915 896 986 944 953 931 l 358 388 l 358 929 l 83 929 l 83 158 b 240 -17 83 51 143 -17 b 356 35 283 -17 317 -1 l 910 540 l 910 0 l 1186 0 z m 842 1039 l 842 1160 l 428 1160 l 428 1039 z "},"Ө":{"ha":1474,"x_min":0,"x_max":0,"o":"m 1417 465 b 736 944 1417 790 1197 944 b 58 465 275 944 58 790 b 736 -15 58 139 276 -15 b 1417 465 1197 -15 1417 140 z m 736 217 b 331 363 468 217 361 247 l 1144 363 b 736 217 1113 247 1007 217 z m 736 713 b 1144 568 1008 713 1113 683 l 331 568 b 736 713 361 683 467 713 z "},"ө":{"ha":1474,"x_min":0,"x_max":0,"o":"m 1417 465 b 736 944 1417 790 1197 944 b 58 465 275 944 58 790 b 736 -15 58 139 276 -15 b 1417 465 1197 -15 1417 140 z m 736 217 b 331 363 468 217 361 247 l 1144 363 b 736 217 1113 247 1007 217 z m 736 713 b 1144 568 1008 713 1113 683 l 331 568 b 736 713 361 683 467 713 z "},"Ӯ":{"ha":1428,"x_min":0,"x_max":0,"o":"m 11 929 l 561 349 b 351 242 501 281 425 242 l 203 242 l 15 0 l 351 0 b 885 318 554 0 663 65 l 1417 929 l 1069 929 l 726 536 l 375 929 z m 933 1039 l 933 1160 l 519 1160 l 519 1039 z "},"ӯ":{"ha":1428,"x_min":0,"x_max":0,"o":"m 11 929 l 561 349 b 351 242 501 281 425 242 l 203 242 l 15 0 l 351 0 b 885 318 554 0 663 65 l 1417 929 l 1069 929 l 726 536 l 375 929 z m 933 1039 l 933 1160 l 519 1160 l 519 1039 z "},"Ԓ":{"ha":1574,"x_min":0,"x_max":0,"o":"m 15 0 l 351 0 l 789 632 l 1218 0 l 1396 0 l 1396 -53 b 1268 -122 1396 -103 1358 -122 l 1224 -122 l 1044 -354 l 1272 -354 b 1560 -53 1465 -354 1560 -254 l 1560 0 l 978 840 b 796 944 928 913 869 944 b 611 840 722 944 660 910 z "},"ԓ":{"ha":1574,"x_min":0,"x_max":0,"o":"m 15 0 l 351 0 l 789 632 l 1218 0 l 1396 0 l 1396 -53 b 1268 -122 1396 -103 1358 -122 l 1224 -122 l 1044 -354 l 1272 -354 b 1560 -53 1465 -354 1560 -254 l 1560 0 l 978 840 b 796 944 928 913 869 944 b 611 840 722 944 660 910 z "},"֏":{"ha":1476,"x_min":0,"x_max":0,"o":"m 779 250 l 638 67 l 988 67 l 988 0 l 1274 0 l 1274 67 l 1319 67 l 1465 250 l 1274 250 l 1274 347 l 1319 347 l 1465 531 l 1274 531 b 661 944 1271 817 1081 944 b 75 524 244 944 75 815 l 75 353 l 347 353 l 347 524 b 661 703 347 657 426 703 b 988 531 897 703 985 657 l 779 531 l 638 347 l 988 347 l 988 250 z "},"Ḍ":{"ha":1326,"x_min":0,"x_max":0,"o":"m 710 0 b 1269 474 1031 0 1269 203 b 710 929 1269 740 1038 929 l 272 929 l 88 688 l 710 688 b 982 474 878 688 982 606 b 710 242 982 324 888 242 l 375 242 l 375 574 l 88 574 l 88 0 z m 735 -183 b 631 -93 735 -128 689 -93 b 528 -183 572 -93 528 -128 b 631 -274 528 -239 572 -274 b 735 -183 689 -274 735 -239 z "},"ḍ":{"ha":1326,"x_min":0,"x_max":0,"o":"m 710 0 b 1269 474 1031 0 1269 203 b 710 929 1269 740 1038 929 l 272 929 l 88 688 l 710 688 b 982 474 878 688 982 606 b 710 242 982 324 888 242 l 375 242 l 375 574 l 88 574 l 88 0 z m 735 -183 b 631 -93 735 -128 689 -93 b 528 -183 572 -93 528 -128 b 631 -274 528 -239 572 -274 b 735 -183 689 -274 735 -239 z "},"Ḓ":{"ha":1326,"x_min":0,"x_max":0,"o":"m 710 0 b 1269 474 1031 0 1269 203 b 710 929 1269 740 1038 929 l 272 929 l 88 688 l 710 688 b 982 474 878 688 982 606 b 710 242 982 324 888 242 l 375 242 l 375 574 l 88 574 l 88 0 z m 549 -64 l 392 -275 l 539 -275 l 631 -147 l 721 -275 l 868 -275 l 714 -64 z "},"ḓ":{"ha":1326,"x_min":0,"x_max":0,"o":"m 710 0 b 1269 474 1031 0 1269 203 b 710 929 1269 740 1038 929 l 272 929 l 88 688 l 710 688 b 982 474 878 688 982 606 b 710 242 982 324 888 242 l 375 242 l 375 574 l 88 574 l 88 0 z m 549 -64 l 392 -275 l 539 -275 l 631 -147 l 721 -275 l 868 -275 l 714 -64 z "},"Ḥ":{"ha":1303,"x_min":0,"x_max":0,"o":"m 375 929 l 88 929 l 88 0 l 375 0 l 375 358 l 928 358 l 928 0 l 1214 0 l 1214 929 l 928 929 l 928 600 l 375 600 z m 756 -183 b 651 -93 756 -128 710 -93 b 549 -183 593 -93 549 -128 b 651 -274 549 -239 593 -274 b 756 -183 710 -274 756 -239 z "},"ḥ":{"ha":1303,"x_min":0,"x_max":0,"o":"m 375 929 l 88 929 l 88 0 l 375 0 l 375 358 l 928 358 l 928 0 l 1214 0 l 1214 929 l 928 929 l 928 600 l 375 600 z m 756 -183 b 651 -93 756 -128 710 -93 b 549 -183 593 -93 549 -128 b 651 -274 549 -239 593 -274 b 756 -183 710 -274 756 -239 z "},"Ḽ":{"ha":1101,"x_min":0,"x_max":0,"o":"m 910 0 l 1094 242 l 375 242 l 375 929 l 88 929 l 88 0 z m 485 -64 l 328 -275 l 475 -275 l 567 -147 l 657 -275 l 804 -275 l 650 -64 z "},"ḽ":{"ha":1101,"x_min":0,"x_max":0,"o":"m 910 0 l 1094 242 l 375 242 l 375 929 l 88 929 l 88 0 z m 485 -64 l 328 -275 l 475 -275 l 567 -147 l 657 -275 l 804 -275 l 650 -64 z "},"Ṅ":{"ha":1268,"x_min":0,"x_max":0,"o":"m 83 0 l 360 0 l 360 540 l 914 35 b 1029 -17 953 -1 986 -17 b 1186 158 1126 -17 1186 51 l 1186 929 l 911 929 l 911 388 l 354 896 b 240 944 317 931 283 944 b 83 769 143 944 83 878 z m 740 1113 b 636 1203 740 1168 694 1203 b 533 1113 578 1203 533 1168 b 636 1022 533 1057 578 1022 b 740 1113 694 1022 740 1057 z "},"ṅ":{"ha":1268,"x_min":0,"x_max":0,"o":"m 83 0 l 360 0 l 360 540 l 914 35 b 1029 -17 953 -1 986 -17 b 1186 158 1126 -17 1186 51 l 1186 929 l 911 929 l 911 388 l 354 896 b 240 944 317 931 283 944 b 83 769 143 944 83 878 z m 740 1113 b 636 1203 740 1168 694 1203 b 533 1113 578 1203 533 1168 b 636 1022 533 1057 578 1022 b 740 1113 694 1022 740 1057 z "},"Ṋ":{"ha":1268,"x_min":0,"x_max":0,"o":"m 83 0 l 360 0 l 360 540 l 914 35 b 1029 -17 953 -1 986 -17 b 1186 158 1126 -17 1186 51 l 1186 929 l 911 929 l 911 388 l 354 896 b 240 944 317 931 283 944 b 83 769 143 944 83 878 z m 554 -64 l 397 -275 l 544 -275 l 636 -147 l 726 -275 l 874 -275 l 719 -64 z "},"ṋ":{"ha":1268,"x_min":0,"x_max":0,"o":"m 83 0 l 360 0 l 360 540 l 914 35 b 1029 -17 953 -1 986 -17 b 1186 158 1126 -17 1186 51 l 1186 929 l 911 929 l 911 388 l 354 896 b 240 944 317 931 283 944 b 83 769 143 944 83 878 z m 554 -64 l 397 -275 l 544 -275 l 636 -147 l 726 -275 l 874 -275 l 719 -64 z "},"Ṛ":{"ha":1421,"x_min":0,"x_max":0,"o":"m 1347 590 b 879 929 1347 803 1171 929 l 276 929 l 85 688 l 907 688 b 1060 579 1011 688 1060 654 b 908 479 1060 510 1014 479 l 85 479 l 85 0 l 371 0 l 371 247 l 792 247 l 1025 0 l 1404 0 l 1124 286 b 1347 590 1265 340 1347 446 z m 769 -183 b 665 -93 769 -128 724 -93 b 563 -183 607 -93 563 -128 b 665 -274 563 -239 607 -274 b 769 -183 724 -274 769 -239 z "},"ṛ":{"ha":1421,"x_min":0,"x_max":0,"o":"m 1347 590 b 879 929 1347 803 1171 929 l 276 929 l 85 688 l 907 688 b 1060 579 1011 688 1060 654 b 908 479 1060 510 1014 479 l 85 479 l 85 0 l 371 0 l 371 247 l 792 247 l 1025 0 l 1404 0 l 1124 286 b 1347 590 1265 340 1347 446 z m 769 -183 b 665 -93 769 -128 724 -93 b 563 -183 607 -93 563 -128 b 665 -274 563 -239 607 -274 b 769 -183 724 -274 769 -239 z "},"Ṣ":{"ha":1339,"x_min":0,"x_max":0,"o":"m 921 0 b 1296 297 1179 0 1296 93 b 943 567 1296 474 1174 567 l 436 567 b 349 628 376 567 349 586 b 436 688 349 668 376 688 l 1086 688 l 1271 929 l 458 929 b 67 642 196 929 67 833 b 424 363 67 465 197 363 l 926 363 b 1014 301 986 363 1014 344 b 929 242 1014 260 988 242 l 218 242 l 33 0 z m 771 -183 b 667 -93 771 -128 725 -93 b 564 -183 608 -93 564 -128 b 667 -274 564 -239 608 -274 b 771 -183 725 -274 771 -239 z "},"ṣ":{"ha":1339,"x_min":0,"x_max":0,"o":"m 921 0 b 1296 297 1179 0 1296 93 b 943 567 1296 474 1174 567 l 436 567 b 349 628 376 567 349 586 b 436 688 349 668 376 688 l 1086 688 l 1271 929 l 458 929 b 67 642 196 929 67 833 b 424 363 67 465 197 363 l 926 363 b 1014 301 986 363 1014 344 b 929 242 1014 260 988 242 l 218 242 l 33 0 z m 771 -183 b 667 -93 771 -128 725 -93 b 564 -183 608 -93 564 -128 b 667 -274 564 -239 608 -274 b 771 -183 725 -274 771 -239 z "},"Ṭ":{"ha":1242,"x_min":0,"x_max":0,"o":"m 753 0 l 753 688 l 1046 688 l 1235 929 l 196 929 l 7 688 l 467 688 l 467 0 z m 719 -183 b 615 -93 719 -128 674 -93 b 513 -183 557 -93 513 -128 b 615 -274 513 -239 557 -274 b 719 -183 674 -274 719 -239 z "},"ṭ":{"ha":1242,"x_min":0,"x_max":0,"o":"m 753 0 l 753 688 l 1046 688 l 1235 929 l 196 929 l 7 688 l 467 688 l 467 0 z m 719 -183 b 615 -93 719 -128 674 -93 b 513 -183 557 -93 513 -128 b 615 -274 513 -239 557 -274 b 719 -183 674 -274 719 -239 z "},"Ẁ":{"ha":1749,"x_min":0,"x_max":0,"o":"m 18 929 l 253 114 b 417 -15 276 32 336 -15 b 572 82 485 -15 538 18 l 872 647 l 1168 82 b 1322 -15 1203 18 1256 -15 b 1488 114 1403 -15 1463 32 l 1729 929 l 1446 929 l 1290 374 l 1047 840 b 878 944 1006 918 961 944 b 704 840 792 944 747 918 l 458 375 l 306 929 z m 1068 993 l 1068 1113 l 654 1204 l 654 1043 z "},"ẁ":{"ha":1749,"x_min":0,"x_max":0,"o":"m 18 929 l 253 114 b 417 -15 276 32 336 -15 b 572 82 485 -15 538 18 l 872 647 l 1168 82 b 1322 -15 1203 18 1256 -15 b 1488 114 1403 -15 1463 32 l 1729 929 l 1446 929 l 1290 374 l 1047 840 b 878 944 1006 918 961 944 b 704 840 792 944 747 918 l 458 375 l 306 929 z m 1068 993 l 1068 1113 l 654 1204 l 654 1043 z "},"Ẃ":{"ha":1749,"x_min":0,"x_max":0,"o":"m 18 929 l 253 114 b 417 -15 276 32 336 -15 b 572 82 485 -15 538 18 l 872 647 l 1168 82 b 1322 -15 1203 18 1256 -15 b 1488 114 1403 -15 1463 32 l 1729 929 l 1446 929 l 1290 374 l 1047 840 b 878 944 1006 918 961 944 b 704 840 792 944 747 918 l 458 375 l 306 929 z m 1100 1043 l 1100 1204 l 686 1113 l 686 993 z "},"ẃ":{"ha":1749,"x_min":0,"x_max":0,"o":"m 18 929 l 253 114 b 417 -15 276 32 336 -15 b 572 82 485 -15 538 18 l 872 647 l 1168 82 b 1322 -15 1203 18 1256 -15 b 1488 114 1403 -15 1463 32 l 1729 929 l 1446 929 l 1290 374 l 1047 840 b 878 944 1006 918 961 944 b 704 840 792 944 747 918 l 458 375 l 306 929 z m 1100 1043 l 1100 1204 l 686 1113 l 686 993 z "},"Ẅ":{"ha":1749,"x_min":0,"x_max":0,"o":"m 18 929 l 253 114 b 417 -15 276 32 336 -15 b 572 82 485 -15 538 18 l 872 647 l 1168 82 b 1322 -15 1203 18 1256 -15 b 1488 114 1403 -15 1463 32 l 1729 929 l 1446 929 l 1290 374 l 1047 840 b 878 944 1006 918 961 944 b 704 840 792 944 747 918 l 458 375 l 306 929 z m 835 1113 b 732 1203 835 1168 790 1203 b 626 1113 672 1203 626 1168 b 732 1022 626 1057 672 1022 b 835 1113 790 1022 835 1057 z m 1128 1113 b 1024 1203 1128 1168 1085 1203 b 921 1113 965 1203 921 1168 b 1024 1022 921 1057 965 1022 b 1128 1113 1085 1022 1128 1057 z "},"ẅ":{"ha":1749,"x_min":0,"x_max":0,"o":"m 18 929 l 253 114 b 417 -15 276 32 336 -15 b 572 82 485 -15 538 18 l 872 647 l 1168 82 b 1322 -15 1203 18 1256 -15 b 1488 114 1403 -15 1463 32 l 1729 929 l 1446 929 l 1290 374 l 1047 840 b 878 944 1006 918 961 944 b 704 840 792 944 747 918 l 458 375 l 306 929 z m 835 1113 b 732 1203 835 1168 790 1203 b 626 1113 672 1203 626 1168 b 732 1022 626 1057 672 1022 b 835 1113 790 1022 835 1057 z m 1128 1113 b 1024 1203 1128 1168 1085 1203 b 921 1113 965 1203 921 1168 b 1024 1022 921 1057 965 1022 b 1128 1113 1085 1022 1128 1057 z "},"Ẓ":{"ha":1247,"x_min":0,"x_max":0,"o":"m 200 929 l 17 688 l 714 688 l 114 231 b 185 0 1 146 46 0 l 1063 0 l 1236 242 l 528 242 l 1125 699 b 1054 929 1238 783 1192 929 z m 729 -183 b 625 -93 729 -128 683 -93 b 522 -183 567 -93 522 -128 b 625 -274 522 -239 567 -274 b 729 -183 683 -274 729 -239 z "},"ẓ":{"ha":1247,"x_min":0,"x_max":0,"o":"m 200 929 l 17 688 l 714 688 l 114 231 b 185 0 1 146 46 0 l 1063 0 l 1236 242 l 528 242 l 1125 699 b 1054 929 1238 783 1192 929 z m 729 -183 b 625 -93 729 -128 683 -93 b 522 -183 567 -93 522 -128 b 625 -274 522 -239 567 -274 b 729 -183 683 -274 729 -239 z "},"ẞ":{"ha":1421,"x_min":0,"x_max":0,"o":"m 76 0 l 363 0 l 363 508 b 685 688 363 640 447 688 l 879 688 l 675 533 b 719 363 593 471 621 363 l 1003 363 b 1078 303 1053 363 1078 343 b 1000 242 1078 261 1053 242 l 615 242 l 433 0 l 994 0 b 1364 272 1251 0 1364 83 b 1100 553 1364 436 1278 529 l 1292 699 b 1221 929 1403 783 1358 929 l 682 929 b 76 508 264 929 76 799 z "},"Ạ":{"ha":1574,"x_min":0,"x_max":0,"o":"m 1561 0 l 979 840 b 796 944 939 899 882 944 b 611 840 707 944 651 896 l 15 0 l 351 0 l 792 621 l 1054 242 l 654 242 l 482 0 z m 900 -183 b 796 -93 900 -128 854 -93 b 693 -183 738 -93 693 -128 b 796 -274 693 -239 738 -274 b 900 -183 854 -274 900 -239 z "},"ạ":{"ha":1574,"x_min":0,"x_max":0,"o":"m 1561 0 l 979 840 b 796 944 939 899 882 944 b 611 840 707 944 651 896 l 15 0 l 351 0 l 792 621 l 1054 242 l 654 242 l 482 0 z m 900 -183 b 796 -93 900 -128 854 -93 b 693 -183 738 -93 693 -128 b 796 -274 693 -239 738 -274 b 900 -183 854 -274 900 -239 z "},"Ả":{"ha":1574,"x_min":0,"x_max":0,"o":"m 1561 0 l 979 840 b 796 944 939 899 882 944 b 611 840 707 944 651 896 l 15 0 l 351 0 l 792 621 l 1054 242 l 654 242 l 482 0 z m 908 994 b 1117 1140 1051 994 1117 1040 b 892 1313 1117 1251 1038 1313 l 750 1313 l 635 1164 l 899 1164 b 943 1132 931 1164 943 1154 b 899 1103 943 1111 932 1103 l 851 1103 b 729 990 771 1103 729 1064 l 729 969 l 851 969 l 851 978 b 868 994 851 989 857 994 z "},"ả":{"ha":1574,"x_min":0,"x_max":0,"o":"m 1561 0 l 979 840 b 796 944 939 899 882 944 b 611 840 707 944 651 896 l 15 0 l 351 0 l 792 621 l 1054 242 l 654 242 l 482 0 z m 908 994 b 1117 1140 1051 994 1117 1040 b 892 1313 1117 1251 1038 1313 l 750 1313 l 635 1164 l 899 1164 b 943 1132 931 1164 943 1154 b 899 1103 943 1111 932 1103 l 851 1103 b 729 990 771 1103 729 1064 l 729 969 l 851 969 l 851 978 b 868 994 851 989 857 994 z "},"Ấ":{"ha":1574,"x_min":0,"x_max":0,"o":"m 1561 0 l 979 840 b 796 944 939 899 882 944 b 611 840 707 944 651 896 l 15 0 l 351 0 l 792 621 l 1054 242 l 654 242 l 482 0 z m 718 1204 l 561 993 l 708 993 l 796 1114 l 882 993 l 1029 993 l 874 1204 z m 1275 1156 l 1275 1313 l 967 1217 l 967 1101 z "},"ấ":{"ha":1574,"x_min":0,"x_max":0,"o":"m 1561 0 l 979 840 b 796 944 939 899 882 944 b 611 840 707 944 651 896 l 15 0 l 351 0 l 792 621 l 1054 242 l 654 242 l 482 0 z m 718 1204 l 561 993 l 708 993 l 796 1114 l 882 993 l 1029 993 l 874 1204 z m 1275 1156 l 1275 1313 l 967 1217 l 967 1101 z "},"Ầ":{"ha":1574,"x_min":0,"x_max":0,"o":"m 1561 0 l 979 840 b 796 944 939 899 882 944 b 611 840 707 944 651 896 l 15 0 l 351 0 l 792 621 l 1054 242 l 654 242 l 482 0 z m 718 1204 l 561 993 l 708 993 l 796 1114 l 882 993 l 1029 993 l 874 1204 z m 1228 1101 l 1228 1217 l 919 1313 l 919 1156 z "},"ầ":{"ha":1574,"x_min":0,"x_max":0,"o":"m 1561 0 l 979 840 b 796 944 939 899 882 944 b 611 840 707 944 651 896 l 15 0 l 351 0 l 792 621 l 1054 242 l 654 242 l 482 0 z m 718 1204 l 561 993 l 708 993 l 796 1114 l 882 993 l 1029 993 l 874 1204 z m 1228 1101 l 1228 1217 l 919 1313 l 919 1156 z "},"Ẩ":{"ha":1574,"x_min":0,"x_max":0,"o":"m 1561 0 l 979 840 b 796 944 939 899 882 944 b 611 840 707 944 651 896 l 15 0 l 351 0 l 792 621 l 1054 242 l 654 242 l 482 0 z m 718 1204 l 561 993 l 704 993 l 796 1121 l 886 993 l 1029 993 l 874 1204 z m 1138 1072 b 1294 1183 1244 1072 1294 1108 b 1118 1313 1294 1268 1238 1313 l 1024 1313 l 938 1203 l 1122 1203 b 1164 1176 1151 1203 1164 1194 b 1125 1151 1164 1158 1153 1151 l 1100 1151 b 1010 1068 1042 1151 1010 1121 l 1010 1056 l 1103 1056 l 1103 1060 b 1114 1072 1103 1069 1104 1072 z "},"ẩ":{"ha":1574,"x_min":0,"x_max":0,"o":"m 1561 0 l 979 840 b 796 944 939 899 882 944 b 611 840 707 944 651 896 l 15 0 l 351 0 l 792 621 l 1054 242 l 654 242 l 482 0 z m 718 1204 l 561 993 l 704 993 l 796 1121 l 886 993 l 1029 993 l 874 1204 z m 1138 1072 b 1294 1183 1244 1072 1294 1108 b 1118 1313 1294 1268 1238 1313 l 1024 1313 l 938 1203 l 1122 1203 b 1164 1176 1151 1203 1164 1194 b 1125 1151 1164 1158 1153 1151 l 1100 1151 b 1010 1068 1042 1151 1010 1121 l 1010 1056 l 1103 1056 l 1103 1060 b 1114 1072 1103 1069 1104 1072 z "},"Ẫ":{"ha":1574,"x_min":0,"x_max":0,"o":"m 1561 0 l 979 840 b 796 944 939 899 882 944 b 611 840 707 944 651 896 l 15 0 l 351 0 l 792 621 l 1054 242 l 654 242 l 482 0 z m 1001 1221 l 1001 1313 l 588 1313 l 588 1221 z m 718 1204 l 561 993 l 708 993 l 796 1114 l 882 993 l 1029 993 l 874 1204 z "},"ẫ":{"ha":1574,"x_min":0,"x_max":0,"o":"m 1561 0 l 979 840 b 796 944 939 899 882 944 b 611 840 707 944 651 896 l 15 0 l 351 0 l 792 621 l 1054 242 l 654 242 l 482 0 z m 1001 1221 l 1001 1313 l 588 1313 l 588 1221 z m 718 1204 l 561 993 l 708 993 l 796 1114 l 882 993 l 1029 993 l 874 1204 z "},"Ậ":{"ha":1574,"x_min":0,"x_max":0,"o":"m 1561 0 l 979 840 b 796 944 939 899 882 944 b 611 840 707 944 651 896 l 15 0 l 351 0 l 792 621 l 1054 242 l 654 242 l 482 0 z m 714 1204 l 557 993 l 704 993 l 796 1121 l 886 993 l 1033 993 l 879 1204 z m 900 -183 b 796 -93 900 -128 854 -93 b 693 -183 738 -93 693 -128 b 796 -274 693 -239 738 -274 b 900 -183 854 -274 900 -239 z "},"ậ":{"ha":1574,"x_min":0,"x_max":0,"o":"m 1561 0 l 979 840 b 796 944 939 899 882 944 b 611 840 707 944 651 896 l 15 0 l 351 0 l 792 621 l 1054 242 l 654 242 l 482 0 z m 714 1204 l 557 993 l 704 993 l 796 1121 l 886 993 l 1033 993 l 879 1204 z m 900 -183 b 796 -93 900 -128 854 -93 b 693 -183 738 -93 693 -128 b 796 -274 693 -239 738 -274 b 900 -183 854 -274 900 -239 z "},"Ắ":{"ha":1574,"x_min":0,"x_max":0,"o":"m 1561 0 l 979 840 b 796 944 939 899 882 944 b 611 840 707 944 651 896 l 15 0 l 351 0 l 792 621 l 1054 242 l 654 242 l 482 0 z m 575 1204 b 754 993 575 1090 657 993 l 840 993 b 1018 1204 936 993 1018 1089 l 879 1204 b 810 1079 879 1132 850 1079 l 790 1079 b 711 1204 746 1079 711 1135 z m 947 1218 l 947 1313 l 736 1246 l 736 1176 z "},"ắ":{"ha":1574,"x_min":0,"x_max":0,"o":"m 1561 0 l 979 840 b 796 944 939 899 882 944 b 611 840 707 944 651 896 l 15 0 l 351 0 l 792 621 l 1054 242 l 654 242 l 482 0 z m 575 1204 b 754 993 575 1090 657 993 l 840 993 b 1018 1204 936 993 1018 1089 l 879 1204 b 810 1079 879 1132 850 1079 l 790 1079 b 711 1204 746 1079 711 1135 z m 947 1218 l 947 1313 l 736 1246 l 736 1176 z "},"Ằ":{"ha":1574,"x_min":0,"x_max":0,"o":"m 1561 0 l 979 840 b 796 944 939 899 882 944 b 611 840 707 944 651 896 l 15 0 l 351 0 l 792 621 l 1054 242 l 654 242 l 482 0 z m 854 1176 l 854 1246 l 644 1313 l 644 1218 z m 575 1204 b 754 993 575 1090 657 993 l 840 993 b 1018 1204 936 993 1018 1089 l 879 1204 b 810 1079 879 1132 850 1079 l 790 1079 b 711 1204 746 1079 711 1135 z "},"ằ":{"ha":1574,"x_min":0,"x_max":0,"o":"m 1561 0 l 979 840 b 796 944 939 899 882 944 b 611 840 707 944 651 896 l 15 0 l 351 0 l 792 621 l 1054 242 l 654 242 l 482 0 z m 854 1176 l 854 1246 l 644 1313 l 644 1218 z m 575 1204 b 754 993 575 1090 657 993 l 840 993 b 1018 1204 936 993 1018 1089 l 879 1204 b 810 1079 879 1132 850 1079 l 790 1079 b 711 1204 746 1079 711 1135 z "},"Ẳ":{"ha":1574,"x_min":0,"x_max":0,"o":"m 1561 0 l 979 840 b 796 944 939 899 882 944 b 611 840 707 944 651 896 l 15 0 l 351 0 l 792 621 l 1054 242 l 654 242 l 482 0 z m 575 1154 b 754 993 575 1065 656 993 l 840 993 b 1018 1154 939 993 1018 1065 l 879 1154 b 810 1054 879 1094 851 1054 l 790 1054 b 711 1154 744 1054 711 1096 z m 822 1151 b 925 1226 893 1151 925 1175 b 806 1313 925 1283 885 1313 l 742 1313 l 686 1236 l 811 1236 b 842 1218 833 1236 842 1232 b 814 1201 842 1206 833 1201 l 796 1201 b 733 1143 754 1201 733 1181 l 733 1131 l 793 1131 l 793 1138 b 804 1151 793 1147 797 1151 z "},"ẳ":{"ha":1574,"x_min":0,"x_max":0,"o":"m 1561 0 l 979 840 b 796 944 939 899 882 944 b 611 840 707 944 651 896 l 15 0 l 351 0 l 792 621 l 1054 242 l 654 242 l 482 0 z m 575 1154 b 754 993 575 1065 656 993 l 840 993 b 1018 1154 939 993 1018 1065 l 879 1154 b 810 1054 879 1094 851 1054 l 790 1054 b 711 1154 744 1054 711 1096 z m 822 1151 b 925 1226 893 1151 925 1175 b 806 1313 925 1283 885 1313 l 742 1313 l 686 1236 l 811 1236 b 842 1218 833 1236 842 1232 b 814 1201 842 1206 833 1201 l 796 1201 b 733 1143 754 1201 733 1181 l 733 1131 l 793 1131 l 793 1138 b 804 1151 793 1147 797 1151 z "},"Ẵ":{"ha":1574,"x_min":0,"x_max":0,"o":"m 1561 0 l 979 840 b 796 944 939 899 882 944 b 611 840 707 944 651 896 l 15 0 l 351 0 l 792 621 l 1054 242 l 654 242 l 482 0 z m 1003 1221 l 1003 1313 l 589 1313 l 589 1221 z m 575 1203 b 754 993 575 1089 657 993 l 840 993 b 1018 1203 936 993 1018 1088 l 879 1203 b 810 1079 879 1131 850 1079 l 790 1079 b 711 1203 746 1079 711 1133 z "},"ẵ":{"ha":1574,"x_min":0,"x_max":0,"o":"m 1561 0 l 979 840 b 796 944 939 899 882 944 b 611 840 707 944 651 896 l 15 0 l 351 0 l 792 621 l 1054 242 l 654 242 l 482 0 z m 1003 1221 l 1003 1313 l 589 1313 l 589 1221 z m 575 1203 b 754 993 575 1089 657 993 l 840 993 b 1018 1203 936 993 1018 1088 l 879 1203 b 810 1079 879 1131 850 1079 l 790 1079 b 711 1203 746 1079 711 1133 z "},"Ặ":{"ha":1574,"x_min":0,"x_max":0,"o":"m 1561 0 l 979 840 b 796 944 939 899 882 944 b 611 840 707 944 651 896 l 15 0 l 351 0 l 792 621 l 1054 242 l 654 242 l 482 0 z m 572 1204 b 756 993 572 1085 651 993 l 839 993 b 1021 1204 942 993 1021 1083 l 876 1204 b 813 1086 876 1129 853 1086 l 789 1086 b 715 1204 743 1086 715 1132 z m 900 -183 b 796 -93 900 -128 854 -93 b 693 -183 738 -93 693 -128 b 796 -274 693 -239 738 -274 b 900 -183 854 -274 900 -239 z "},"ặ":{"ha":1574,"x_min":0,"x_max":0,"o":"m 1561 0 l 979 840 b 796 944 939 899 882 944 b 611 840 707 944 651 896 l 15 0 l 351 0 l 792 621 l 1054 242 l 654 242 l 482 0 z m 572 1204 b 756 993 572 1085 651 993 l 839 993 b 1021 1204 942 993 1021 1083 l 876 1204 b 813 1086 876 1129 853 1086 l 789 1086 b 715 1204 743 1086 715 1132 z m 900 -183 b 796 -93 900 -128 854 -93 b 693 -183 738 -93 693 -128 b 796 -274 693 -239 738 -274 b 900 -183 854 -274 900 -239 z "},"Ẹ":{"ha":1176,"x_min":0,"x_max":0,"o":"m 375 688 l 978 688 l 1164 929 l 88 929 l 88 0 l 982 0 l 1165 242 l 375 242 l 375 363 l 943 363 l 1110 568 l 375 568 z m 731 -183 b 626 -93 731 -128 685 -93 b 524 -183 568 -93 524 -128 b 626 -274 524 -239 568 -274 b 731 -183 685 -274 731 -239 z "},"ẹ":{"ha":1176,"x_min":0,"x_max":0,"o":"m 375 688 l 978 688 l 1164 929 l 88 929 l 88 0 l 982 0 l 1165 242 l 375 242 l 375 363 l 943 363 l 1110 568 l 375 568 z m 731 -183 b 626 -93 731 -128 685 -93 b 524 -183 568 -93 524 -128 b 626 -274 524 -239 568 -274 b 731 -183 685 -274 731 -239 z "},"Ẻ":{"ha":1176,"x_min":0,"x_max":0,"o":"m 375 688 l 978 688 l 1164 929 l 88 929 l 88 0 l 982 0 l 1165 242 l 375 242 l 375 363 l 943 363 l 1110 568 l 375 568 z m 739 994 b 947 1140 882 994 947 1040 b 722 1313 947 1251 868 1313 l 581 1313 l 465 1164 l 729 1164 b 774 1132 761 1164 774 1154 b 729 1103 774 1111 763 1103 l 682 1103 b 560 990 601 1103 560 1064 l 560 969 l 682 969 l 682 978 b 699 994 682 989 688 994 z "},"ẻ":{"ha":1176,"x_min":0,"x_max":0,"o":"m 375 688 l 978 688 l 1164 929 l 88 929 l 88 0 l 982 0 l 1165 242 l 375 242 l 375 363 l 943 363 l 1110 568 l 375 568 z m 739 994 b 947 1140 882 994 947 1040 b 722 1313 947 1251 868 1313 l 581 1313 l 465 1164 l 729 1164 b 774 1132 761 1164 774 1154 b 729 1103 774 1111 763 1103 l 682 1103 b 560 990 601 1103 560 1064 l 560 969 l 682 969 l 682 978 b 699 994 682 989 688 994 z "},"Ẽ":{"ha":1176,"x_min":0,"x_max":0,"o":"m 375 688 l 978 688 l 1164 929 l 88 929 l 88 0 l 982 0 l 1165 242 l 375 242 l 375 363 l 943 363 l 1110 568 l 375 568 z m 833 1039 l 833 1160 l 419 1160 l 419 1039 z "},"ẽ":{"ha":1176,"x_min":0,"x_max":0,"o":"m 375 688 l 978 688 l 1164 929 l 88 929 l 88 0 l 982 0 l 1165 242 l 375 242 l 375 363 l 943 363 l 1110 568 l 375 568 z m 833 1039 l 833 1160 l 419 1160 l 419 1039 z "},"Ế":{"ha":1176,"x_min":0,"x_max":0,"o":"m 375 688 l 978 688 l 1164 929 l 88 929 l 88 0 l 982 0 l 1165 242 l 375 242 l 375 363 l 943 363 l 1110 568 l 375 568 z m 549 1204 l 392 993 l 539 993 l 626 1114 l 713 993 l 860 993 l 704 1204 z m 1106 1156 l 1106 1313 l 797 1217 l 797 1101 z "},"ế":{"ha":1176,"x_min":0,"x_max":0,"o":"m 375 688 l 978 688 l 1164 929 l 88 929 l 88 0 l 982 0 l 1165 242 l 375 242 l 375 363 l 943 363 l 1110 568 l 375 568 z m 549 1204 l 392 993 l 539 993 l 626 1114 l 713 993 l 860 993 l 704 1204 z m 1106 1156 l 1106 1313 l 797 1217 l 797 1101 z "},"Ề":{"ha":1176,"x_min":0,"x_max":0,"o":"m 375 688 l 978 688 l 1164 929 l 88 929 l 88 0 l 982 0 l 1165 242 l 375 242 l 375 363 l 943 363 l 1110 568 l 375 568 z m 549 1204 l 392 993 l 539 993 l 626 1114 l 713 993 l 860 993 l 704 1204 z m 1058 1101 l 1058 1217 l 750 1313 l 750 1156 z "},"ề":{"ha":1176,"x_min":0,"x_max":0,"o":"m 375 688 l 978 688 l 1164 929 l 88 929 l 88 0 l 982 0 l 1165 242 l 375 242 l 375 363 l 943 363 l 1110 568 l 375 568 z m 549 1204 l 392 993 l 539 993 l 626 1114 l 713 993 l 860 993 l 704 1204 z m 1058 1101 l 1058 1217 l 750 1313 l 750 1156 z "},"Ể":{"ha":1176,"x_min":0,"x_max":0,"o":"m 375 688 l 978 688 l 1164 929 l 88 929 l 88 0 l 982 0 l 1165 242 l 375 242 l 375 363 l 943 363 l 1110 568 l 375 568 z m 968 1072 b 1125 1183 1075 1072 1125 1108 b 949 1313 1125 1268 1068 1313 l 854 1313 l 768 1203 l 953 1203 b 994 1176 982 1203 994 1194 b 956 1151 994 1158 983 1151 l 931 1151 b 840 1068 872 1151 840 1121 l 840 1056 l 933 1056 l 933 1060 b 944 1072 933 1069 935 1072 z m 549 1204 l 392 993 l 535 993 l 626 1121 l 717 993 l 860 993 l 704 1204 z "},"ể":{"ha":1176,"x_min":0,"x_max":0,"o":"m 375 688 l 978 688 l 1164 929 l 88 929 l 88 0 l 982 0 l 1165 242 l 375 242 l 375 363 l 943 363 l 1110 568 l 375 568 z m 968 1072 b 1125 1183 1075 1072 1125 1108 b 949 1313 1125 1268 1068 1313 l 854 1313 l 768 1203 l 953 1203 b 994 1176 982 1203 994 1194 b 956 1151 994 1158 983 1151 l 931 1151 b 840 1068 872 1151 840 1121 l 840 1056 l 933 1056 l 933 1060 b 944 1072 933 1069 935 1072 z m 549 1204 l 392 993 l 535 993 l 626 1121 l 717 993 l 860 993 l 704 1204 z "},"Ễ":{"ha":1176,"x_min":0,"x_max":0,"o":"m 375 688 l 978 688 l 1164 929 l 88 929 l 88 0 l 982 0 l 1165 242 l 375 242 l 375 363 l 943 363 l 1110 568 l 375 568 z m 549 1204 l 392 993 l 539 993 l 626 1114 l 713 993 l 860 993 l 704 1204 z m 832 1221 l 832 1313 l 418 1313 l 418 1221 z "},"ễ":{"ha":1176,"x_min":0,"x_max":0,"o":"m 375 688 l 978 688 l 1164 929 l 88 929 l 88 0 l 982 0 l 1165 242 l 375 242 l 375 363 l 943 363 l 1110 568 l 375 568 z m 549 1204 l 392 993 l 539 993 l 626 1114 l 713 993 l 860 993 l 704 1204 z m 832 1221 l 832 1313 l 418 1313 l 418 1221 z "},"Ệ":{"ha":1176,"x_min":0,"x_max":0,"o":"m 375 688 l 978 688 l 1164 929 l 88 929 l 88 0 l 982 0 l 1165 242 l 375 242 l 375 363 l 943 363 l 1110 568 l 375 568 z m 544 1204 l 388 993 l 535 993 l 626 1121 l 717 993 l 864 993 l 710 1204 z m 731 -183 b 626 -93 731 -128 685 -93 b 524 -183 568 -93 524 -128 b 626 -274 524 -239 568 -274 b 731 -183 685 -274 731 -239 z "},"ệ":{"ha":1176,"x_min":0,"x_max":0,"o":"m 375 688 l 978 688 l 1164 929 l 88 929 l 88 0 l 982 0 l 1165 242 l 375 242 l 375 363 l 943 363 l 1110 568 l 375 568 z m 544 1204 l 388 993 l 535 993 l 626 1121 l 717 993 l 864 993 l 710 1204 z m 731 -183 b 626 -93 731 -128 685 -93 b 524 -183 568 -93 524 -128 b 626 -274 524 -239 568 -274 b 731 -183 685 -274 731 -239 z "},"Ỉ":{"ha":469,"x_min":0,"x_max":0,"o":"m 379 0 l 379 929 l 92 929 l 92 0 z m 349 994 b 557 1140 492 994 557 1040 b 332 1313 557 1251 478 1313 l 190 1313 l 75 1164 l 339 1164 b 383 1132 371 1164 383 1154 b 339 1103 383 1111 372 1103 l 292 1103 b 169 990 211 1103 169 1064 l 169 969 l 292 969 l 292 978 b 308 994 292 989 297 994 z "},"ỉ":{"ha":469,"x_min":0,"x_max":0,"o":"m 379 0 l 379 929 l 92 929 l 92 0 z m 349 994 b 557 1140 492 994 557 1040 b 332 1313 557 1251 478 1313 l 190 1313 l 75 1164 l 339 1164 b 383 1132 371 1164 383 1154 b 339 1103 383 1111 372 1103 l 292 1103 b 169 990 211 1103 169 1064 l 169 969 l 292 969 l 292 978 b 308 994 292 989 297 994 z "},"Ị":{"ha":469,"x_min":0,"x_max":0,"o":"m 379 0 l 379 929 l 92 929 l 92 0 z m 340 -183 b 236 -93 340 -128 294 -93 b 133 -183 178 -93 133 -128 b 236 -274 133 -239 178 -274 b 340 -183 294 -274 340 -239 z "},"ị":{"ha":469,"x_min":0,"x_max":0,"o":"m 379 0 l 379 929 l 92 929 l 92 0 z m 340 -183 b 236 -93 340 -128 294 -93 b 133 -183 178 -93 133 -128 b 236 -274 133 -239 178 -274 b 340 -183 294 -274 340 -239 z "},"Ọ":{"ha":1474,"x_min":0,"x_max":0,"o":"m 736 944 b 58 465 275 944 58 790 b 736 -15 58 139 276 -15 b 1417 465 1197 -15 1417 140 b 736 944 1417 790 1197 944 z m 736 703 b 1129 465 1049 703 1129 654 b 736 226 1129 276 1047 226 b 344 465 428 226 344 276 b 736 703 344 653 426 703 z m 842 -183 b 738 -93 842 -128 796 -93 b 635 -183 679 -93 635 -128 b 738 -274 635 -239 679 -274 b 842 -183 796 -274 842 -239 z "},"ọ":{"ha":1474,"x_min":0,"x_max":0,"o":"m 736 944 b 58 465 275 944 58 790 b 736 -15 58 139 276 -15 b 1417 465 1197 -15 1417 140 b 736 944 1417 790 1197 944 z m 736 703 b 1129 465 1049 703 1129 654 b 736 226 1129 276 1047 226 b 344 465 428 226 344 276 b 736 703 344 653 426 703 z m 842 -183 b 738 -93 842 -128 796 -93 b 635 -183 679 -93 635 -128 b 738 -274 635 -239 679 -274 b 842 -183 796 -274 842 -239 z "},"Ỏ":{"ha":1474,"x_min":0,"x_max":0,"o":"m 736 944 b 58 465 275 944 58 790 b 736 -15 58 139 276 -15 b 1417 465 1197 -15 1417 140 b 736 944 1417 790 1197 944 z m 736 703 b 1129 465 1049 703 1129 654 b 736 226 1129 276 1047 226 b 344 465 428 226 344 276 b 736 703 344 653 426 703 z m 850 994 b 1058 1140 993 994 1058 1040 b 833 1313 1058 1251 979 1313 l 692 1313 l 576 1164 l 840 1164 b 885 1132 872 1164 885 1154 b 840 1103 885 1111 874 1103 l 793 1103 b 671 990 713 1103 671 1064 l 671 969 l 793 969 l 793 978 b 810 994 793 989 799 994 z "},"ỏ":{"ha":1474,"x_min":0,"x_max":0,"o":"m 736 944 b 58 465 275 944 58 790 b 736 -15 58 139 276 -15 b 1417 465 1197 -15 1417 140 b 736 944 1417 790 1197 944 z m 736 703 b 1129 465 1049 703 1129 654 b 736 226 1129 276 1047 226 b 344 465 428 226 344 276 b 736 703 344 653 426 703 z m 850 994 b 1058 1140 993 994 1058 1040 b 833 1313 1058 1251 979 1313 l 692 1313 l 576 1164 l 840 1164 b 885 1132 872 1164 885 1154 b 840 1103 885 1111 874 1103 l 793 1103 b 671 990 713 1103 671 1064 l 671 969 l 793 969 l 793 978 b 810 994 793 989 799 994 z "},"Ố":{"ha":1474,"x_min":0,"x_max":0,"o":"m 736 944 b 58 465 275 944 58 790 b 736 -15 58 139 276 -15 b 1417 465 1197 -15 1417 140 b 736 944 1417 790 1197 944 z m 660 1204 l 503 993 l 650 993 l 738 1114 l 824 993 l 971 993 l 815 1204 z m 1217 1156 l 1217 1313 l 908 1217 l 908 1101 z m 736 703 b 1129 465 1049 703 1129 654 b 736 226 1129 276 1047 226 b 344 465 428 226 344 276 b 736 703 344 653 426 703 z "},"ố":{"ha":1474,"x_min":0,"x_max":0,"o":"m 736 944 b 58 465 275 944 58 790 b 736 -15 58 139 276 -15 b 1417 465 1197 -15 1417 140 b 736 944 1417 790 1197 944 z m 660 1204 l 503 993 l 650 993 l 738 1114 l 824 993 l 971 993 l 815 1204 z m 1217 1156 l 1217 1313 l 908 1217 l 908 1101 z m 736 703 b 1129 465 1049 703 1129 654 b 736 226 1129 276 1047 226 b 344 465 428 226 344 276 b 736 703 344 653 426 703 z "},"Ồ":{"ha":1474,"x_min":0,"x_max":0,"o":"m 736 944 b 58 465 275 944 58 790 b 736 -15 58 139 276 -15 b 1417 465 1197 -15 1417 140 b 736 944 1417 790 1197 944 z m 660 1204 l 503 993 l 650 993 l 738 1114 l 824 993 l 971 993 l 815 1204 z m 1169 1101 l 1169 1217 l 861 1313 l 861 1156 z m 736 703 b 1129 465 1049 703 1129 654 b 736 226 1129 276 1047 226 b 344 465 428 226 344 276 b 736 703 344 653 426 703 z "},"ồ":{"ha":1474,"x_min":0,"x_max":0,"o":"m 736 944 b 58 465 275 944 58 790 b 736 -15 58 139 276 -15 b 1417 465 1197 -15 1417 140 b 736 944 1417 790 1197 944 z m 660 1204 l 503 993 l 650 993 l 738 1114 l 824 993 l 971 993 l 815 1204 z m 1169 1101 l 1169 1217 l 861 1313 l 861 1156 z m 736 703 b 1129 465 1049 703 1129 654 b 736 226 1129 276 1047 226 b 344 465 428 226 344 276 b 736 703 344 653 426 703 z "},"Ổ":{"ha":1474,"x_min":0,"x_max":0,"o":"m 736 944 b 58 465 275 944 58 790 b 736 -15 58 139 276 -15 b 1417 465 1197 -15 1417 140 b 736 944 1417 790 1197 944 z m 660 1204 l 503 993 l 646 993 l 738 1121 l 828 993 l 971 993 l 815 1204 z m 1079 1072 b 1236 1183 1186 1072 1236 1108 b 1060 1313 1236 1268 1179 1313 l 965 1313 l 879 1203 l 1064 1203 b 1106 1176 1093 1203 1106 1194 b 1067 1151 1106 1158 1094 1151 l 1042 1151 b 951 1068 983 1151 951 1121 l 951 1056 l 1044 1056 l 1044 1060 b 1056 1072 1044 1069 1046 1072 z m 736 703 b 1129 465 1049 703 1129 654 b 736 226 1129 276 1047 226 b 344 465 428 226 344 276 b 736 703 344 653 426 703 z "},"ổ":{"ha":1474,"x_min":0,"x_max":0,"o":"m 736 944 b 58 465 275 944 58 790 b 736 -15 58 139 276 -15 b 1417 465 1197 -15 1417 140 b 736 944 1417 790 1197 944 z m 660 1204 l 503 993 l 646 993 l 738 1121 l 828 993 l 971 993 l 815 1204 z m 1079 1072 b 1236 1183 1186 1072 1236 1108 b 1060 1313 1236 1268 1179 1313 l 965 1313 l 879 1203 l 1064 1203 b 1106 1176 1093 1203 1106 1194 b 1067 1151 1106 1158 1094 1151 l 1042 1151 b 951 1068 983 1151 951 1121 l 951 1056 l 1044 1056 l 1044 1060 b 1056 1072 1044 1069 1046 1072 z m 736 703 b 1129 465 1049 703 1129 654 b 736 226 1129 276 1047 226 b 344 465 428 226 344 276 b 736 703 344 653 426 703 z "},"Ỗ":{"ha":1474,"x_min":0,"x_max":0,"o":"m 736 944 b 58 465 275 944 58 790 b 736 -15 58 139 276 -15 b 1417 465 1197 -15 1417 140 b 736 944 1417 790 1197 944 z m 943 1221 l 943 1313 l 529 1313 l 529 1221 z m 660 1204 l 503 993 l 650 993 l 738 1114 l 824 993 l 971 993 l 815 1204 z m 736 703 b 1129 465 1049 703 1129 654 b 736 226 1129 276 1047 226 b 344 465 428 226 344 276 b 736 703 344 653 426 703 z "},"ỗ":{"ha":1474,"x_min":0,"x_max":0,"o":"m 736 944 b 58 465 275 944 58 790 b 736 -15 58 139 276 -15 b 1417 465 1197 -15 1417 140 b 736 944 1417 790 1197 944 z m 943 1221 l 943 1313 l 529 1313 l 529 1221 z m 660 1204 l 503 993 l 650 993 l 738 1114 l 824 993 l 971 993 l 815 1204 z m 736 703 b 1129 465 1049 703 1129 654 b 736 226 1129 276 1047 226 b 344 465 428 226 344 276 b 736 703 344 653 426 703 z "},"Ộ":{"ha":1474,"x_min":0,"x_max":0,"o":"m 736 944 b 58 465 275 944 58 790 b 736 -15 58 139 276 -15 b 1417 465 1197 -15 1417 140 b 736 944 1417 790 1197 944 z m 736 703 b 1129 465 1049 703 1129 654 b 736 226 1129 276 1047 226 b 344 465 428 226 344 276 b 736 703 344 653 426 703 z m 656 1204 l 499 993 l 646 993 l 738 1121 l 828 993 l 975 993 l 821 1204 z m 842 -183 b 738 -93 842 -128 796 -93 b 635 -183 679 -93 635 -128 b 738 -274 635 -239 679 -274 b 842 -183 796 -274 842 -239 z "},"ộ":{"ha":1474,"x_min":0,"x_max":0,"o":"m 736 944 b 58 465 275 944 58 790 b 736 -15 58 139 276 -15 b 1417 465 1197 -15 1417 140 b 736 944 1417 790 1197 944 z m 736 703 b 1129 465 1049 703 1129 654 b 736 226 1129 276 1047 226 b 344 465 428 226 344 276 b 736 703 344 653 426 703 z m 656 1204 l 499 993 l 646 993 l 738 1121 l 828 993 l 975 993 l 821 1204 z m 842 -183 b 738 -93 842 -128 796 -93 b 635 -183 679 -93 635 -128 b 738 -274 635 -239 679 -274 b 842 -183 796 -274 842 -239 z "},"Ớ":{"ha":1417,"x_min":0,"x_max":0,"o":"m 736 944 b 58 465 275 944 58 790 b 736 -15 58 139 276 -15 b 1417 465 1197 -15 1417 140 b 1313 772 1417 593 1382 696 b 1524 1001 1456 799 1524 876 l 1524 1147 l 1236 1147 l 1236 978 b 1164 929 1236 944 1214 929 l 964 929 b 736 944 896 939 819 944 z m 736 703 b 1129 465 1049 703 1129 654 b 736 226 1129 276 1047 226 b 344 465 428 226 344 276 b 736 703 344 653 426 703 z m 958 1043 l 958 1204 l 544 1113 l 544 993 z "},"ớ":{"ha":1417,"x_min":0,"x_max":0,"o":"m 736 944 b 58 465 275 944 58 790 b 736 -15 58 139 276 -15 b 1417 465 1197 -15 1417 140 b 1313 772 1417 593 1382 696 b 1524 1001 1456 799 1524 876 l 1524 1147 l 1236 1147 l 1236 978 b 1164 929 1236 944 1214 929 l 964 929 b 736 944 896 939 819 944 z m 736 703 b 1129 465 1049 703 1129 654 b 736 226 1129 276 1047 226 b 344 465 428 226 344 276 b 736 703 344 653 426 703 z m 958 1043 l 958 1204 l 544 1113 l 544 993 z "},"Ờ":{"ha":1417,"x_min":0,"x_max":0,"o":"m 736 944 b 58 465 275 944 58 790 b 736 -15 58 139 276 -15 b 1417 465 1197 -15 1417 140 b 1313 772 1417 593 1382 696 b 1524 1001 1456 799 1524 876 l 1524 1147 l 1236 1147 l 1236 978 b 1164 929 1236 944 1214 929 l 964 929 b 736 944 896 939 819 944 z m 736 703 b 1129 465 1049 703 1129 654 b 736 226 1129 276 1047 226 b 344 465 428 226 344 276 b 736 703 344 653 426 703 z m 926 993 l 926 1113 l 513 1204 l 513 1043 z "},"ờ":{"ha":1417,"x_min":0,"x_max":0,"o":"m 736 944 b 58 465 275 944 58 790 b 736 -15 58 139 276 -15 b 1417 465 1197 -15 1417 140 b 1313 772 1417 593 1382 696 b 1524 1001 1456 799 1524 876 l 1524 1147 l 1236 1147 l 1236 978 b 1164 929 1236 944 1214 929 l 964 929 b 736 944 896 939 819 944 z m 736 703 b 1129 465 1049 703 1129 654 b 736 226 1129 276 1047 226 b 344 465 428 226 344 276 b 736 703 344 653 426 703 z m 926 993 l 926 1113 l 513 1204 l 513 1043 z "},"Ở":{"ha":1417,"x_min":0,"x_max":0,"o":"m 736 944 b 58 465 275 944 58 790 b 736 -15 58 139 276 -15 b 1417 465 1197 -15 1417 140 b 1313 772 1417 593 1382 696 b 1524 1001 1456 799 1524 876 l 1524 1147 l 1236 1147 l 1236 978 b 1164 929 1236 944 1214 929 l 964 929 b 736 944 896 939 819 944 z m 736 703 b 1129 465 1049 703 1129 654 b 736 226 1129 276 1047 226 b 344 465 428 226 344 276 b 736 703 344 653 426 703 z m 849 994 b 1057 1140 992 994 1057 1040 b 832 1313 1057 1251 978 1313 l 690 1313 l 575 1164 l 839 1164 b 883 1132 871 1164 883 1154 b 839 1103 883 1111 872 1103 l 792 1103 b 669 990 711 1103 669 1064 l 669 969 l 792 969 l 792 978 b 808 994 792 989 797 994 z "},"ở":{"ha":1417,"x_min":0,"x_max":0,"o":"m 736 944 b 58 465 275 944 58 790 b 736 -15 58 139 276 -15 b 1417 465 1197 -15 1417 140 b 1313 772 1417 593 1382 696 b 1524 1001 1456 799 1524 876 l 1524 1147 l 1236 1147 l 1236 978 b 1164 929 1236 944 1214 929 l 964 929 b 736 944 896 939 819 944 z m 736 703 b 1129 465 1049 703 1129 654 b 736 226 1129 276 1047 226 b 344 465 428 226 344 276 b 736 703 344 653 426 703 z m 849 994 b 1057 1140 992 994 1057 1040 b 832 1313 1057 1251 978 1313 l 690 1313 l 575 1164 l 839 1164 b 883 1132 871 1164 883 1154 b 839 1103 883 1111 872 1103 l 792 1103 b 669 990 711 1103 669 1064 l 669 969 l 792 969 l 792 978 b 808 994 792 989 797 994 z "},"Ỡ":{"ha":1417,"x_min":0,"x_max":0,"o":"m 736 944 b 58 465 275 944 58 790 b 736 -15 58 139 276 -15 b 1417 465 1197 -15 1417 140 b 1313 772 1417 593 1382 696 b 1524 1001 1456 799 1524 876 l 1524 1147 l 1236 1147 l 1236 978 b 1164 929 1236 944 1214 929 l 964 929 b 736 944 896 939 819 944 z m 736 703 b 1129 465 1049 703 1129 654 b 736 226 1129 276 1047 226 b 344 465 428 226 344 276 b 736 703 344 653 426 703 z m 943 1039 l 943 1160 l 529 1160 l 529 1039 z "},"ỡ":{"ha":1417,"x_min":0,"x_max":0,"o":"m 736 944 b 58 465 275 944 58 790 b 736 -15 58 139 276 -15 b 1417 465 1197 -15 1417 140 b 1313 772 1417 593 1382 696 b 1524 1001 1456 799 1524 876 l 1524 1147 l 1236 1147 l 1236 978 b 1164 929 1236 944 1214 929 l 964 929 b 736 944 896 939 819 944 z m 736 703 b 1129 465 1049 703 1129 654 b 736 226 1129 276 1047 226 b 344 465 428 226 344 276 b 736 703 344 653 426 703 z m 943 1039 l 943 1160 l 529 1160 l 529 1039 z "},"Ợ":{"ha":1417,"x_min":0,"x_max":0,"o":"m 736 944 b 58 465 275 944 58 790 b 736 -15 58 139 276 -15 b 1417 465 1197 -15 1417 140 b 1313 772 1417 593 1382 696 b 1524 1001 1456 799 1524 876 l 1524 1147 l 1236 1147 l 1236 978 b 1164 929 1236 944 1214 929 l 964 929 b 736 944 896 939 819 944 z m 736 703 b 1129 465 1049 703 1129 654 b 736 226 1129 276 1047 226 b 344 465 428 226 344 276 b 736 703 344 653 426 703 z m 840 -183 b 736 -93 840 -128 794 -93 b 633 -183 678 -93 633 -128 b 736 -274 633 -239 678 -274 b 840 -183 794 -274 840 -239 z "},"ợ":{"ha":1417,"x_min":0,"x_max":0,"o":"m 736 944 b 58 465 275 944 58 790 b 736 -15 58 139 276 -15 b 1417 465 1197 -15 1417 140 b 1313 772 1417 593 1382 696 b 1524 1001 1456 799 1524 876 l 1524 1147 l 1236 1147 l 1236 978 b 1164 929 1236 944 1214 929 l 964 929 b 736 944 896 939 819 944 z m 736 703 b 1129 465 1049 703 1129 654 b 736 226 1129 276 1047 226 b 344 465 428 226 344 276 b 736 703 344 653 426 703 z m 840 -183 b 736 -93 840 -128 794 -93 b 633 -183 678 -93 633 -128 b 736 -274 633 -239 678 -274 b 840 -183 794 -274 840 -239 z "},"Ụ":{"ha":1369,"x_min":0,"x_max":0,"o":"m 1007 406 b 688 226 1007 274 925 226 b 363 406 447 226 363 274 l 363 929 l 75 929 l 75 406 b 688 -15 75 114 265 -15 b 1293 406 1106 -15 1293 115 l 1293 929 l 1007 929 z m 789 -183 b 685 -93 789 -128 743 -93 b 582 -183 626 -93 582 -128 b 685 -274 582 -239 626 -274 b 789 -183 743 -274 789 -239 z "},"ụ":{"ha":1369,"x_min":0,"x_max":0,"o":"m 1007 406 b 688 226 1007 274 925 226 b 363 406 447 226 363 274 l 363 929 l 75 929 l 75 406 b 688 -15 75 114 265 -15 b 1293 406 1106 -15 1293 115 l 1293 929 l 1007 929 z m 789 -183 b 685 -93 789 -128 743 -93 b 582 -183 626 -93 582 -128 b 685 -274 582 -239 626 -274 b 789 -183 743 -274 789 -239 z "},"Ủ":{"ha":1369,"x_min":0,"x_max":0,"o":"m 1007 406 b 688 226 1007 274 925 226 b 363 406 447 226 363 274 l 363 929 l 75 929 l 75 406 b 688 -15 75 114 265 -15 b 1293 406 1106 -15 1293 115 l 1293 929 l 1007 929 z m 797 994 b 1006 1140 940 994 1006 1040 b 781 1313 1006 1251 926 1313 l 639 1313 l 524 1164 l 788 1164 b 832 1132 819 1164 832 1154 b 788 1103 832 1111 821 1103 l 740 1103 b 618 990 660 1103 618 1064 l 618 969 l 740 969 l 740 978 b 757 994 740 989 746 994 z "},"ủ":{"ha":1369,"x_min":0,"x_max":0,"o":"m 1007 406 b 688 226 1007 274 925 226 b 363 406 447 226 363 274 l 363 929 l 75 929 l 75 406 b 688 -15 75 114 265 -15 b 1293 406 1106 -15 1293 115 l 1293 929 l 1007 929 z m 797 994 b 1006 1140 940 994 1006 1040 b 781 1313 1006 1251 926 1313 l 639 1313 l 524 1164 l 788 1164 b 832 1132 819 1164 832 1154 b 788 1103 832 1111 821 1103 l 740 1103 b 618 990 660 1103 618 1064 l 618 969 l 740 969 l 740 978 b 757 994 740 989 746 994 z "},"Ứ":{"ha":1526,"x_min":0,"x_max":0,"o":"m 1007 406 b 688 226 1007 274 925 226 b 363 406 447 226 363 274 l 363 929 l 75 929 l 75 406 b 688 -15 75 114 265 -15 b 1293 406 1106 -15 1293 115 l 1293 768 b 1526 1001 1451 790 1526 869 l 1526 1147 l 1240 1147 l 1240 978 b 1165 929 1240 944 1217 929 l 1007 929 z m 931 1043 l 931 1204 l 517 1113 l 517 993 z "},"ứ":{"ha":1526,"x_min":0,"x_max":0,"o":"m 1007 406 b 688 226 1007 274 925 226 b 363 406 447 226 363 274 l 363 929 l 75 929 l 75 406 b 688 -15 75 114 265 -15 b 1293 406 1106 -15 1293 115 l 1293 768 b 1526 1001 1451 790 1526 869 l 1526 1147 l 1240 1147 l 1240 978 b 1165 929 1240 944 1217 929 l 1007 929 z m 931 1043 l 931 1204 l 517 1113 l 517 993 z "},"Ừ":{"ha":1526,"x_min":0,"x_max":0,"o":"m 1007 406 b 688 226 1007 274 925 226 b 363 406 447 226 363 274 l 363 929 l 75 929 l 75 406 b 688 -15 75 114 265 -15 b 1293 406 1106 -15 1293 115 l 1293 768 b 1526 1001 1451 790 1526 869 l 1526 1147 l 1240 1147 l 1240 978 b 1165 929 1240 944 1217 929 l 1007 929 z m 899 993 l 899 1113 l 485 1204 l 485 1043 z "},"ừ":{"ha":1526,"x_min":0,"x_max":0,"o":"m 1007 406 b 688 226 1007 274 925 226 b 363 406 447 226 363 274 l 363 929 l 75 929 l 75 406 b 688 -15 75 114 265 -15 b 1293 406 1106 -15 1293 115 l 1293 768 b 1526 1001 1451 790 1526 869 l 1526 1147 l 1240 1147 l 1240 978 b 1165 929 1240 944 1217 929 l 1007 929 z m 899 993 l 899 1113 l 485 1204 l 485 1043 z "},"Ử":{"ha":1526,"x_min":0,"x_max":0,"o":"m 1007 406 b 688 226 1007 274 925 226 b 363 406 447 226 363 274 l 363 929 l 75 929 l 75 406 b 688 -15 75 114 265 -15 b 1293 406 1106 -15 1293 115 l 1293 768 b 1526 1001 1451 790 1526 869 l 1526 1147 l 1240 1147 l 1240 978 b 1165 929 1240 944 1217 929 l 1007 929 z m 821 994 b 1029 1140 964 994 1029 1040 b 804 1313 1029 1251 950 1313 l 663 1313 l 547 1164 l 811 1164 b 856 1132 843 1164 856 1154 b 811 1103 856 1111 844 1103 l 764 1103 b 642 990 683 1103 642 1064 l 642 969 l 764 969 l 764 978 b 781 994 764 989 769 994 z "},"ử":{"ha":1526,"x_min":0,"x_max":0,"o":"m 1007 406 b 688 226 1007 274 925 226 b 363 406 447 226 363 274 l 363 929 l 75 929 l 75 406 b 688 -15 75 114 265 -15 b 1293 406 1106 -15 1293 115 l 1293 768 b 1526 1001 1451 790 1526 869 l 1526 1147 l 1240 1147 l 1240 978 b 1165 929 1240 944 1217 929 l 1007 929 z m 821 994 b 1029 1140 964 994 1029 1040 b 804 1313 1029 1251 950 1313 l 663 1313 l 547 1164 l 811 1164 b 856 1132 843 1164 856 1154 b 811 1103 856 1111 844 1103 l 764 1103 b 642 990 683 1103 642 1064 l 642 969 l 764 969 l 764 978 b 781 994 764 989 769 994 z "},"Ữ":{"ha":1526,"x_min":0,"x_max":0,"o":"m 1007 406 b 688 226 1007 274 925 226 b 363 406 447 226 363 274 l 363 929 l 75 929 l 75 406 b 688 -15 75 114 265 -15 b 1293 406 1106 -15 1293 115 l 1293 768 b 1526 1001 1451 790 1526 869 l 1526 1147 l 1240 1147 l 1240 978 b 1165 929 1240 944 1217 929 l 1007 929 z m 915 1039 l 915 1160 l 501 1160 l 501 1039 z "},"ữ":{"ha":1526,"x_min":0,"x_max":0,"o":"m 1007 406 b 688 226 1007 274 925 226 b 363 406 447 226 363 274 l 363 929 l 75 929 l 75 406 b 688 -15 75 114 265 -15 b 1293 406 1106 -15 1293 115 l 1293 768 b 1526 1001 1451 790 1526 869 l 1526 1147 l 1240 1147 l 1240 978 b 1165 929 1240 944 1217 929 l 1007 929 z m 915 1039 l 915 1160 l 501 1160 l 501 1039 z "},"Ự":{"ha":1526,"x_min":0,"x_max":0,"o":"m 1007 406 b 688 226 1007 274 925 226 b 363 406 447 226 363 274 l 363 929 l 75 929 l 75 406 b 688 -15 75 114 265 -15 b 1293 406 1106 -15 1293 115 l 1293 768 b 1526 1001 1451 790 1526 869 l 1526 1147 l 1240 1147 l 1240 978 b 1165 929 1240 944 1217 929 l 1007 929 z m 814 -183 b 710 -93 814 -128 768 -93 b 607 -183 651 -93 607 -128 b 710 -274 607 -239 651 -274 b 814 -183 768 -274 814 -239 z "},"ự":{"ha":1526,"x_min":0,"x_max":0,"o":"m 1007 406 b 688 226 1007 274 925 226 b 363 406 447 226 363 274 l 363 929 l 75 929 l 75 406 b 688 -15 75 114 265 -15 b 1293 406 1106 -15 1293 115 l 1293 768 b 1526 1001 1451 790 1526 869 l 1526 1147 l 1240 1147 l 1240 978 b 1165 929 1240 944 1217 929 l 1007 929 z m 814 -183 b 710 -93 814 -128 768 -93 b 607 -183 651 -93 607 -128 b 710 -274 607 -239 651 -274 b 814 -183 768 -274 814 -239 z "},"Ỳ":{"ha":1428,"x_min":0,"x_max":0,"o":"m 865 0 l 865 308 l 1417 929 l 1065 929 l 726 547 l 379 929 l 11 929 l 578 308 l 578 0 z m 917 993 l 917 1113 l 503 1204 l 503 1043 z "},"ỳ":{"ha":1428,"x_min":0,"x_max":0,"o":"m 865 0 l 865 308 l 1417 929 l 1065 929 l 726 547 l 379 929 l 11 929 l 578 308 l 578 0 z m 917 993 l 917 1113 l 503 1204 l 503 1043 z "},"Ỷ":{"ha":1428,"x_min":0,"x_max":0,"o":"m 865 0 l 865 308 l 1417 929 l 1065 929 l 726 547 l 379 929 l 11 929 l 578 308 l 578 0 z m 839 994 b 1047 1140 982 994 1047 1040 b 822 1313 1047 1251 968 1313 l 681 1313 l 565 1164 l 829 1164 b 874 1132 861 1164 874 1154 b 829 1103 874 1111 863 1103 l 782 1103 b 660 990 701 1103 660 1064 l 660 969 l 782 969 l 782 978 b 799 994 782 989 788 994 z "},"ỷ":{"ha":1428,"x_min":0,"x_max":0,"o":"m 865 0 l 865 308 l 1417 929 l 1065 929 l 726 547 l 379 929 l 11 929 l 578 308 l 578 0 z m 839 994 b 1047 1140 982 994 1047 1040 b 822 1313 1047 1251 968 1313 l 681 1313 l 565 1164 l 829 1164 b 874 1132 861 1164 874 1154 b 829 1103 874 1111 863 1103 l 782 1103 b 660 990 701 1103 660 1064 l 660 969 l 782 969 l 782 978 b 799 994 782 989 788 994 z "},"Ỹ":{"ha":1428,"x_min":0,"x_max":0,"o":"m 865 0 l 865 308 l 1417 929 l 1065 929 l 726 547 l 379 929 l 11 929 l 578 308 l 578 0 z m 933 1039 l 933 1160 l 519 1160 l 519 1039 z "},"ỹ":{"ha":1428,"x_min":0,"x_max":0,"o":"m 865 0 l 865 308 l 1417 929 l 1065 929 l 726 547 l 379 929 l 11 929 l 578 308 l 578 0 z m 933 1039 l 933 1160 l 519 1160 l 519 1039 z "}," ":{"ha":890,"x_min":0,"x_max":0,"o":""}," ":{"ha":1415,"x_min":0,"x_max":0,"o":""}," ":{"ha":890,"x_min":0,"x_max":0,"o":""}," ":{"ha":1415,"x_min":0,"x_max":0,"o":""}," ":{"ha":467,"x_min":0,"x_max":0,"o":""}," ":{"ha":354,"x_min":0,"x_max":0,"o":""}," ":{"ha":235,"x_min":0,"x_max":0,"o":""}," ":{"ha":1331,"x_min":0,"x_max":0,"o":""}," ":{"ha":464,"x_min":0,"x_max":0,"o":""}," ":{"ha":232,"x_min":0,"x_max":0,"o":""}," ":{"ha":117,"x_min":0,"x_max":0,"o":""},"​":{"ha":0,"x_min":0,"x_max":0,"o":""},"–":{"ha":868,"x_min":0,"x_max":0,"o":"m 706 378 l 847 561 l 165 561 l 21 378 z "},"—":{"ha":1392,"x_min":0,"x_max":0,"o":"m 1233 378 l 1375 561 l 164 561 l 21 378 z "},"‘":{"ha":303,"x_min":0,"x_max":0,"o":"m 160 929 l 24 557 l 272 557 l 279 929 z "},"’":{"ha":303,"x_min":0,"x_max":0,"o":"m 144 557 l 281 929 l 31 929 l 25 557 z "},"‚":{"ha":303,"x_min":0,"x_max":0,"o":"m 144 -133 l 279 239 l 25 239 l 18 -133 z "},"‛":{"ha":303,"x_min":0,"x_max":0,"o":"m 279 557 l 272 929 l 24 929 l 160 557 z "},"“":{"ha":618,"x_min":0,"x_max":0,"o":"m 160 929 l 24 557 l 272 557 l 279 929 z m 475 929 l 339 557 l 589 557 l 594 929 z "},"”":{"ha":618,"x_min":0,"x_max":0,"o":"m 140 557 l 276 929 l 26 929 l 19 557 z m 454 557 l 590 929 l 342 929 l 336 557 z "},"„":{"ha":618,"x_min":0,"x_max":0,"o":"m 144 -133 l 279 239 l 25 239 l 18 -133 z m 457 -133 l 594 239 l 339 239 l 333 -133 z "},"‟":{"ha":618,"x_min":0,"x_max":0,"o":"m 279 557 l 272 929 l 24 929 l 160 557 z m 594 557 l 589 929 l 339 929 l 475 557 z "},"†":{"ha":596,"x_min":0,"x_max":0,"o":"m 314 929 l 271 929 l 228 682 l 147 682 l 60 625 l 147 565 l 228 565 l 269 0 l 315 0 l 360 565 l 438 565 l 526 625 l 438 682 l 357 682 z "},"‡":{"ha":590,"x_min":0,"x_max":0,"o":"m 275 929 l 229 686 l 149 686 l 61 629 l 149 569 l 229 569 l 229 360 l 149 360 l 61 300 l 149 243 l 229 243 l 275 0 l 311 0 l 358 243 l 439 243 l 528 300 l 439 360 l 361 360 l 361 569 l 439 569 l 528 629 l 439 686 l 358 686 l 311 929 z "},"•":{"ha":636,"x_min":0,"x_max":0,"o":"m 317 228 b 553 465 447 228 553 336 b 317 703 553 594 447 703 b 82 465 188 703 82 594 b 317 228 82 336 188 228 z "},"…":{"ha":1282,"x_min":0,"x_max":0,"o":"m 214 253 b 58 118 122 253 58 199 b 214 -15 58 38 121 -15 b 368 118 307 -15 368 38 b 214 253 368 199 307 253 z m 642 253 b 486 118 550 253 486 199 b 642 -15 486 38 549 -15 b 796 118 735 -15 796 38 b 642 253 796 199 735 253 z m 1069 253 b 914 118 978 253 914 199 b 1069 -15 914 38 976 -15 b 1224 118 1163 -15 1224 38 b 1069 253 1224 199 1163 253 z "},"‰":{"ha":1928,"x_min":0,"x_max":0,"o":"m 358 -53 l 1099 981 l 963 981 l 213 -53 z m 951 458 b 656 219 750 458 656 382 b 950 -21 656 56 750 -21 b 1247 219 1153 -21 1247 57 b 951 458 1247 382 1153 458 z m 1572 458 b 1276 219 1371 458 1276 382 b 1571 -21 1276 56 1371 -21 b 1868 219 1774 -21 1868 57 b 1572 458 1868 382 1774 458 z m 354 961 b 58 722 153 961 58 885 b 353 482 58 558 153 482 b 650 722 556 482 650 560 b 354 961 650 885 556 961 z m 953 338 b 1103 221 1072 338 1103 314 b 950 100 1103 125 1071 100 b 801 219 832 100 801 124 b 953 338 801 314 832 338 z m 1574 338 b 1724 221 1693 338 1724 314 b 1571 100 1724 125 1692 100 b 1422 219 1453 100 1422 124 b 1574 338 1422 314 1453 338 z m 356 840 b 506 724 475 840 506 817 b 353 603 506 628 474 603 b 204 722 235 603 204 626 b 356 840 204 817 235 840 z "},"′":{"ha":317,"x_min":0,"x_max":0,"o":"m 124 557 l 324 929 l 110 929 l 18 557 z "},"″":{"ha":632,"x_min":0,"x_max":0,"o":"m 124 557 l 324 929 l 110 929 l 18 557 z m 440 557 l 640 929 l 426 929 l 335 557 z "},"‹":{"ha":317,"x_min":0,"x_max":0,"o":"m 289 219 l 289 357 l 156 451 l 289 542 l 289 683 l 74 529 b 74 367 11 485 11 408 z "},"›":{"ha":317,"x_min":0,"x_max":0,"o":"m 31 683 l 31 546 l 164 451 l 31 361 l 31 219 l 246 374 b 246 536 308 418 308 494 z "},"⁄":{"ha":393,"x_min":0,"x_max":0,"o":"m -93 -53 l 647 981 l 511 981 l -239 -53 z "},"⁰":{"ha":690,"x_min":0,"x_max":0,"o":"m 344 961 b 49 722 143 961 49 885 b 343 482 49 558 143 482 b 640 722 546 482 640 560 b 344 961 640 885 546 961 z m 346 840 b 496 724 465 840 496 817 b 343 603 496 628 464 603 b 194 722 225 603 194 626 b 346 840 194 817 225 840 z "},"⁴":{"ha":706,"x_min":0,"x_max":0,"o":"m 683 660 l 549 660 l 549 875 b 469 963 549 933 524 963 b 407 939 449 963 424 953 l 69 665 b 108 546 13 621 36 546 l 411 546 l 411 490 l 549 490 l 549 546 l 596 546 z "},"⁵":{"ha":663,"x_min":0,"x_max":0,"o":"m 415 490 b 614 636 549 490 614 540 b 442 775 614 728 554 775 l 215 775 l 215 832 l 504 832 l 599 954 l 72 954 l 72 669 l 435 669 b 476 640 464 669 476 660 b 435 608 476 619 463 608 l 142 608 l 47 490 z "},"⁶":{"ha":713,"x_min":0,"x_max":0,"o":"m 306 832 l 535 832 l 628 954 l 328 954 b 49 710 160 954 49 856 b 383 482 49 557 160 482 b 664 640 572 482 664 533 b 492 774 664 728 604 774 l 199 774 b 306 832 218 810 256 832 z m 197 665 l 481 665 b 529 640 517 665 529 658 b 406 603 529 614 494 603 b 197 665 283 603 221 619 z "},"⁷":{"ha":626,"x_min":0,"x_max":0,"o":"m 121 954 l 28 832 l 396 832 l 96 490 l 279 490 l 579 842 b 522 954 624 893 592 954 z "},"⁸":{"ha":700,"x_min":0,"x_max":0,"o":"m 464 490 b 653 622 592 490 653 533 b 581 729 653 675 625 714 b 643 826 619 743 643 781 b 460 954 643 907 575 954 l 240 954 b 57 826 125 954 57 906 b 119 729 57 779 81 743 b 49 622 75 714 49 675 b 236 490 49 533 110 490 z m 475 672 b 508 642 496 672 508 661 b 475 613 508 622 497 613 l 228 613 b 192 643 204 613 192 622 b 229 672 192 663 204 672 z m 478 832 b 508 803 499 832 508 824 b 478 774 508 785 499 774 l 224 774 b 193 801 206 774 193 785 b 225 832 193 821 206 832 z "},"⁹":{"ha":713,"x_min":0,"x_max":0,"o":"m 392 608 l 185 608 l 90 490 l 385 490 b 664 733 551 490 664 589 b 339 961 664 885 554 961 b 49 804 146 961 49 908 b 214 668 49 721 114 668 b 515 689 342 668 444 675 b 392 608 503 635 463 608 z m 229 778 b 185 806 197 778 185 786 b 326 840 185 832 224 840 b 513 786 446 840 494 829 b 229 778 451 781 360 778 z "},"₀":{"ha":690,"x_min":0,"x_max":0,"o":"m 344 458 b 49 219 143 458 49 382 b 343 -21 49 56 143 -21 b 640 219 546 -21 640 57 b 344 458 640 382 546 458 z m 346 338 b 496 221 465 338 496 314 b 343 100 496 125 464 100 b 194 219 225 100 194 124 b 346 338 194 314 225 338 z "},"₁":{"ha":349,"x_min":0,"x_max":0,"o":"m 285 -12 l 285 451 l 117 451 l 24 317 l 140 317 l 140 -12 z "},"₂":{"ha":689,"x_min":0,"x_max":0,"o":"m 547 -12 l 642 106 l 192 106 l 192 139 b 239 167 192 161 200 167 l 463 167 b 636 308 572 167 636 219 b 440 451 636 401 569 451 l 164 451 l 72 329 l 451 329 b 497 300 485 329 497 322 b 451 269 497 278 483 269 l 226 269 b 53 138 113 269 53 224 l 53 -12 z "},"₃":{"ha":671,"x_min":0,"x_max":0,"o":"m 435 -12 b 624 117 561 -12 624 31 b 553 226 624 172 596 215 b 614 321 593 239 614 272 b 431 451 614 404 547 451 l 140 451 l 47 329 l 438 329 b 476 300 465 329 476 321 b 438 271 476 281 463 271 l 231 271 l 157 169 l 436 169 b 481 140 467 169 481 160 b 438 110 481 119 467 110 l 117 110 l 25 -12 z "},"₄":{"ha":706,"x_min":0,"x_max":0,"o":"m 683 157 l 549 157 l 549 372 b 469 460 549 431 524 460 b 407 436 449 460 424 450 l 69 163 b 108 43 13 118 36 43 l 411 43 l 411 -12 l 549 -12 l 549 43 l 596 43 z "},"₅":{"ha":663,"x_min":0,"x_max":0,"o":"m 415 -12 b 614 133 549 -12 614 38 b 442 272 614 225 554 272 l 215 272 l 215 329 l 504 329 l 599 451 l 72 451 l 72 167 l 435 167 b 476 138 464 167 476 157 b 435 106 476 117 463 106 l 142 106 l 47 -12 z "},"₆":{"ha":713,"x_min":0,"x_max":0,"o":"m 306 329 l 535 329 l 628 451 l 328 451 b 49 207 160 451 49 353 b 383 -21 49 54 160 -21 b 664 138 572 -21 664 31 b 492 271 664 225 604 271 l 199 271 b 306 329 218 307 256 329 z m 197 163 l 481 163 b 529 138 517 163 529 156 b 406 100 529 111 494 100 b 197 163 283 100 221 117 z "},"₇":{"ha":626,"x_min":0,"x_max":0,"o":"m 121 451 l 28 329 l 396 329 l 96 -12 l 279 -12 l 579 339 b 522 451 624 390 592 451 z "},"₈":{"ha":700,"x_min":0,"x_max":0,"o":"m 464 -12 b 653 119 592 -12 653 31 b 581 226 653 172 625 211 b 643 324 619 240 643 278 b 460 451 643 404 575 451 l 240 451 b 57 324 125 451 57 403 b 119 226 57 276 81 240 b 49 119 75 211 49 172 b 236 -12 49 31 110 -12 z m 475 169 b 508 139 496 169 508 158 b 475 110 508 119 497 110 l 228 110 b 192 140 204 110 192 119 b 229 169 192 160 204 169 z m 478 329 b 508 300 499 329 508 321 b 478 271 508 282 499 271 l 224 271 b 193 299 206 271 193 282 b 225 329 193 318 206 329 z "},"₉":{"ha":713,"x_min":0,"x_max":0,"o":"m 392 106 l 185 106 l 90 -12 l 385 -12 b 664 231 551 -12 664 86 b 339 458 664 382 554 458 b 49 301 146 458 49 406 b 214 165 49 218 114 165 b 515 186 342 165 444 172 b 392 106 503 132 463 106 z m 229 275 b 185 303 197 275 185 283 b 326 338 185 329 224 338 b 513 283 446 338 494 326 b 229 275 451 278 360 275 z "},"₩":{"ha":1640,"x_min":0,"x_max":0,"o":"m 1565 929 l 1322 929 l 1264 690 l 1033 690 l 964 840 b 824 944 928 919 893 944 b 685 840 754 944 721 921 l 617 690 l 385 690 l 326 929 l 89 929 l 150 690 l 124 690 l 26 547 l 186 547 l 201 490 l 124 490 l 26 347 l 239 347 l 299 114 b 439 -15 321 32 369 -15 b 571 82 496 -15 540 18 l 690 347 l 965 347 l 1088 82 b 1221 -15 1118 18 1164 -15 b 1360 114 1289 -15 1339 33 l 1418 347 l 1519 347 l 1615 490 l 1454 490 l 1469 547 l 1519 547 l 1615 690 l 1506 690 z m 756 490 l 782 547 l 874 547 l 900 490 z m 435 490 l 421 547 l 553 547 l 526 490 z m 1125 490 l 1099 547 l 1231 547 l 1217 490 z "},"₪":{"ha":1064,"x_min":0,"x_max":0,"o":"m 568 314 l 736 314 l 736 404 b 435 779 736 639 622 779 l 88 779 l 88 0 l 257 0 l 257 539 l 438 539 b 568 426 539 539 568 513 z m 494 467 l 326 467 l 326 375 b 628 0 326 140 440 0 l 975 0 l 975 779 l 806 779 l 806 242 l 625 242 b 494 353 524 242 494 268 z "},"€":{"ha":1235,"x_min":0,"x_max":0,"o":"m 1204 929 l 682 929 b 149 617 422 929 218 804 l 86 617 l 11 507 l 124 507 b 122 471 122 494 122 483 b 124 433 122 458 122 446 l 86 433 l 11 324 l 149 324 b 682 0 219 132 426 0 l 992 0 l 1175 242 l 682 242 b 464 324 586 242 510 271 l 751 324 l 833 433 l 413 433 b 410 474 411 446 410 460 b 413 507 410 485 411 496 l 883 507 l 965 617 l 464 617 b 682 688 510 663 583 688 l 1019 688 z "},"₭":{"ha":1368,"x_min":0,"x_max":0,"o":"m 1133 383 l 1272 567 l 871 567 l 1329 929 l 940 929 l 497 567 l 478 567 l 478 929 l 190 929 l 190 567 l 143 567 l 0 383 l 190 383 l 190 0 l 478 0 l 478 383 l 499 383 l 949 0 l 1361 0 l 899 383 z "},"₮":{"ha":1242,"x_min":0,"x_max":0,"o":"m 753 0 l 753 188 l 890 239 l 849 365 l 753 331 l 753 425 l 890 476 l 849 603 l 753 568 l 753 688 l 1046 688 l 1235 929 l 196 929 l 7 688 l 467 688 l 467 461 l 315 406 l 357 278 l 467 319 l 467 224 l 315 168 l 357 40 l 467 82 l 467 0 z "},"₱":{"ha":1346,"x_min":0,"x_max":0,"o":"m 1231 476 l 1326 603 l 1161 603 b 710 929 1146 801 981 929 l 257 929 l 68 688 l 713 688 b 864 603 786 688 840 657 l 117 603 l 21 476 l 864 476 b 713 393 840 425 786 393 l 67 393 l 67 0 l 353 0 l 353 164 l 708 164 b 1150 476 924 164 1104 292 z "},"₲":{"ha":1332,"x_min":0,"x_max":0,"o":"m 1256 0 l 1256 567 l 886 567 l 1317 982 l 1136 982 l 1081 929 l 618 929 b 58 474 290 929 58 740 b 235 122 58 331 125 207 l 53 -51 l 244 -51 l 351 53 b 618 0 431 19 521 0 z m 344 461 b 618 688 344 592 463 688 l 828 688 l 422 300 b 344 461 372 339 344 394 z m 676 365 l 968 365 l 968 242 l 618 242 b 553 246 596 242 574 243 z "},"₴":{"ha":1278,"x_min":0,"x_max":0,"o":"m 1085 492 l 1171 604 l 661 604 l 551 688 l 1067 688 l 1250 929 l 210 929 b 139 699 71 929 25 783 l 261 604 l 186 604 l 99 492 l 408 492 l 478 438 l 186 438 l 99 325 l 625 325 l 735 242 l 201 242 l 28 0 l 1081 0 b 1151 231 1219 0 1264 146 l 1028 325 l 1085 325 l 1171 438 l 879 438 l 810 492 z "},"₸":{"ha":1061,"x_min":0,"x_max":0,"o":"m 675 0 l 675 454 l 911 454 l 1050 638 l 154 638 l 11 454 l 389 454 l 389 0 z m 911 746 l 1050 929 l 154 929 l 11 746 z "},"₹":{"ha":1293,"x_min":0,"x_max":0,"o":"m 156 929 l 17 747 l 635 747 b 779 672 724 747 765 731 l 161 672 l 17 494 l 776 494 b 635 419 758 438 717 419 l 506 419 b 428 219 378 419 331 297 l 699 0 l 1151 0 l 826 239 b 1056 494 957 281 1035 368 l 1093 494 l 1276 672 l 1050 672 b 1021 747 1043 699 1033 725 l 1136 747 l 1276 929 z "},"₺":{"ha":1357,"x_min":0,"x_max":0,"o":"m 600 683 l 558 810 l 449 769 l 449 929 l 161 929 l 161 663 l 25 613 l 67 485 l 161 521 l 161 422 l 25 372 l 67 244 l 161 281 l 161 0 l 692 0 b 1297 421 1110 0 1297 131 l 1297 538 l 1011 538 l 1011 421 b 692 242 1011 289 931 242 l 449 242 l 449 386 l 600 443 l 558 569 l 449 529 l 449 626 z "},"₼":{"ha":1369,"x_min":0,"x_max":0,"o":"m 542 929 l 542 778 b 76 363 221 749 76 618 l 76 0 l 363 0 l 363 363 b 542 533 363 464 411 515 l 542 0 l 828 0 l 828 533 b 1007 363 958 514 1007 463 l 1007 0 l 1294 0 l 1294 363 b 828 778 1294 618 1147 749 l 828 929 z "},"₽":{"ha":1354,"x_min":0,"x_max":0,"o":"m 707 96 l 847 279 l 558 279 l 558 374 l 926 374 b 1294 646 1164 374 1294 479 b 928 929 1294 813 1163 929 l 257 929 l 68 688 l 917 688 b 1008 619 974 688 1008 663 b 917 556 1008 578 975 556 l 164 556 l 21 374 l 272 374 l 272 279 l 164 279 l 21 96 l 272 96 l 272 0 l 558 0 l 558 96 z "},"₾":{"ha":1449,"x_min":0,"x_max":0,"o":"m 586 415 l 729 415 l 729 703 b 776 703 744 703 760 703 b 850 701 803 703 828 703 l 850 415 l 993 415 l 993 689 b 1157 513 1117 667 1157 614 l 1157 444 l 1415 444 l 1415 544 b 993 932 1415 765 1281 893 l 993 1054 l 850 1054 l 850 943 b 781 944 828 944 804 944 b 729 944 763 944 746 944 l 729 1054 l 586 1054 l 586 935 b 121 558 279 899 121 772 b 333 242 121 422 186 325 l 185 242 l 11 0 l 776 0 b 828 228 901 0 950 175 l 551 346 b 408 533 451 389 408 442 b 586 693 408 628 453 674 z "},"⃁":{"ha":1156,"x_min":0,"x_max":0,"o":"m 213 929 l 213 490 l 42 414 l 42 204 l 213 281 l 213 160 l 42 83 l 42 -181 l 499 24 l 499 408 l 639 469 l 639 85 l 1114 296 l 1114 560 l 925 475 l 925 597 l 1114 681 l 1114 890 l 925 807 l 925 929 l 639 929 l 639 679 l 499 617 l 499 929 z m 639 -19 l 639 -229 l 1114 -18 l 1114 192 z "},"№":{"ha":1775,"x_min":0,"x_max":0,"o":"m 92 1 l 335 1 l 335 518 l 738 56 b 853 -15 785 3 813 -15 b 974 124 925 -15 974 39 l 974 931 l 731 931 l 731 414 l 322 882 b 213 946 279 931 254 946 b 92 815 138 946 92 897 z m 1597 136 l 1674 293 l 1125 293 l 1050 136 z m 1383 947 b 1068 665 1168 947 1068 857 b 1382 383 1068 474 1168 383 b 1701 665 1599 383 1701 475 b 1383 947 1701 856 1600 947 z m 1385 775 b 1521 665 1492 775 1521 751 b 1386 557 1521 581 1492 557 b 1247 667 1278 557 1247 581 b 1385 775 1247 751 1278 775 z "},"℗":{"ha":1090,"x_min":0,"x_max":0,"o":"m 542 -15 b 1022 467 807 -15 1022 200 b 542 946 1022 732 808 946 b 60 465 275 946 60 731 b 542 -15 60 200 276 -15 z m 413 685 l 349 608 l 608 608 b 699 532 667 608 699 581 b 608 456 699 482 667 456 l 321 456 l 321 242 l 411 242 l 411 379 l 603 379 b 794 532 722 379 794 438 b 603 685 794 626 721 685 z m 935 464 b 543 60 935 239 763 60 b 147 464 324 60 147 239 b 543 871 147 689 325 871 b 935 464 761 871 935 690 z "},"™":{"ha":803,"x_min":0,"x_max":0,"o":"m 238 540 l 238 842 l 339 842 l 339 929 l 47 929 l 47 842 l 150 842 l 150 540 z m 739 540 l 739 929 l 658 929 l 561 683 l 463 929 l 382 929 l 382 540 l 471 540 l 471 692 l 528 540 l 594 540 l 651 693 l 651 540 z "},"⅓":{"ha":1218,"x_min":0,"x_max":0,"o":"m 971 -12 b 1160 117 1097 -12 1160 31 b 1089 226 1160 172 1132 215 b 1150 321 1129 239 1150 272 b 967 451 1150 404 1083 451 l 676 451 l 583 329 l 974 329 b 1013 300 1001 329 1013 321 b 974 271 1013 281 999 271 l 767 271 l 693 169 l 972 169 b 1017 140 1003 169 1017 160 b 974 110 1017 119 1003 110 l 653 110 l 561 -12 z m 332 490 l 332 954 l 164 954 l 71 819 l 188 819 l 188 490 z m 193 -53 l 933 981 l 797 981 l 47 -53 z "},"⅔":{"ha":1397,"x_min":0,"x_max":0,"o":"m 551 490 l 646 608 l 196 608 l 196 642 b 243 669 196 664 204 669 l 467 669 b 640 811 576 669 640 722 b 444 954 640 904 574 954 l 168 954 l 76 832 l 456 832 b 501 803 489 832 501 825 b 456 772 501 781 488 772 l 231 772 b 57 640 117 772 57 726 l 57 490 z m 393 -53 l 1133 981 l 997 981 l 247 -53 z m 1151 -12 b 1340 117 1278 -12 1340 31 b 1269 226 1340 172 1313 215 b 1331 321 1310 239 1331 272 b 1147 451 1331 404 1264 451 l 857 451 l 764 329 l 1154 329 b 1193 300 1182 329 1193 321 b 1154 271 1193 281 1179 271 l 947 271 l 874 169 l 1153 169 b 1197 140 1183 169 1197 160 b 1154 110 1197 119 1183 110 l 833 110 l 742 -12 z "}}}
